<?xml version="1.0" encoding="UTF-8"?>
<!DOCTYPE svg PUBLIC "-//W3C//DTD SVG 1.1//EN" "http://www.w3.org/Graphics/SVG/1.1/DTD/svg11.dtd">
<svg width="130mm" height="76mm" viewBox="0 0 13000 7600" version="1.1" xmlns="http://www.w3.org/2000/svg" stroke-width="28.222" stroke-linejoin="round" xml:space="preserve">
 <path fill="rgb(255,255,255)" stroke="none" d="M 6544,7619 L 22,7619 22,0 13065,0 13065,7619 6544,7619 Z"/>
 <path fill="rgb(255,255,255)" stroke="none" d="M 7450,5896 L 2096,5896 2096,1630 12805,1630 12805,5896 7450,5896 Z"/>
 <path fill="none" stroke="rgb(135,135,135)" stroke-width="26" stroke-linejoin="round" d="M 12805,5895 L 2096,5895"/>
 <path fill="none" stroke="rgb(135,135,135)" stroke-width="26" stroke-linejoin="round" d="M 12805,5468 L 2096,5468"/>
 <path fill="none" stroke="rgb(135,135,135)" stroke-width="26" stroke-linejoin="round" d="M 12805,5041 L 2096,5041"/>
 <path fill="none" stroke="rgb(135,135,135)" stroke-width="26" stroke-linejoin="round" d="M 12805,4614 L 2096,4614"/>
 <path fill="none" stroke="rgb(135,135,135)" stroke-width="26" stroke-linejoin="round" d="M 12805,4188 L 2096,4188"/>
 <path fill="none" stroke="rgb(135,135,135)" stroke-width="26" stroke-linejoin="round" d="M 12805,3762 L 2096,3762"/>
 <path fill="none" stroke="rgb(135,135,135)" stroke-width="26" stroke-linejoin="round" d="M 12805,3335 L 2096,3335"/>
 <path fill="none" stroke="rgb(135,135,135)" stroke-width="26" stroke-linejoin="round" d="M 12805,2909 L 2096,2909"/>
 <path fill="none" stroke="rgb(135,135,135)" stroke-width="26" stroke-linejoin="round" d="M 12805,2482 L 2096,2482"/>
 <path fill="none" stroke="rgb(135,135,135)" stroke-width="26" stroke-linejoin="round" d="M 12805,2055 L 2096,2055"/>
 <path fill="none" stroke="rgb(135,135,135)" stroke-width="26" stroke-linejoin="round" d="M 12805,1629 L 2096,1629"/>
 <path fill="none" stroke="rgb(135,135,135)" stroke-width="26" stroke-linejoin="round" d="M 2096,6045 L 2096,5895"/>
 <path fill="none" stroke="rgb(135,135,135)" stroke-width="26" stroke-linejoin="round" d="M 4043,6045 L 4043,5895"/>
 <path fill="none" stroke="rgb(135,135,135)" stroke-width="26" stroke-linejoin="round" d="M 5990,6045 L 5990,5895"/>
 <path fill="none" stroke="rgb(135,135,135)" stroke-width="26" stroke-linejoin="round" d="M 7936,6045 L 7936,5895"/>
 <path fill="none" stroke="rgb(135,135,135)" stroke-width="26" stroke-linejoin="round" d="M 9884,6045 L 9884,5895"/>
 <path fill="none" stroke="rgb(135,135,135)" stroke-width="26" stroke-linejoin="round" d="M 11831,6045 L 11831,5895"/>
 <path fill="none" stroke="rgb(135,135,135)" stroke-width="26" stroke-linejoin="round" d="M 2096,5895 L 12805,5895"/>
 <path fill="none" stroke="rgb(135,135,135)" stroke-width="26" stroke-linejoin="round" d="M 1946,5895 L 2096,5895"/>
 <path fill="none" stroke="rgb(135,135,135)" stroke-width="26" stroke-linejoin="round" d="M 1946,5468 L 2096,5468"/>
 <path fill="none" stroke="rgb(135,135,135)" stroke-width="26" stroke-linejoin="round" d="M 1946,5041 L 2096,5041"/>
 <path fill="none" stroke="rgb(135,135,135)" stroke-width="26" stroke-linejoin="round" d="M 1946,4614 L 2096,4614"/>
 <path fill="none" stroke="rgb(135,135,135)" stroke-width="26" stroke-linejoin="round" d="M 1946,4188 L 2096,4188"/>
 <path fill="none" stroke="rgb(135,135,135)" stroke-width="26" stroke-linejoin="round" d="M 1946,3762 L 2096,3762"/>
 <path fill="none" stroke="rgb(135,135,135)" stroke-width="26" stroke-linejoin="round" d="M 1946,3335 L 2096,3335"/>
 <path fill="none" stroke="rgb(135,135,135)" stroke-width="26" stroke-linejoin="round" d="M 1946,2909 L 2096,2909"/>
 <path fill="none" stroke="rgb(135,135,135)" stroke-width="26" stroke-linejoin="round" d="M 1946,2482 L 2096,2482"/>
 <path fill="none" stroke="rgb(135,135,135)" stroke-width="26" stroke-linejoin="round" d="M 1946,2055 L 2096,2055"/>
 <path fill="none" stroke="rgb(135,135,135)" stroke-width="26" stroke-linejoin="round" d="M 1946,1629 L 2096,1629"/>
 <path fill="none" stroke="rgb(135,135,135)" stroke-width="26" stroke-linejoin="round" d="M 2096,5895 L 2096,1629"/>
 <path fill="none" stroke="rgb(74,126,187)" stroke-width="79" stroke-linejoin="round" d="M 2096,5894 L 2105,5894 2110,5894 2120,5894 2125,5894 2130,5894 2139,5894 2144,5894 2149,5894 2159,5894 2164,5894 2169,5894 2178,5894 2183,5894 2188,5894 2198,5894 2203,5894 2207,5894 2217,5894 2222,5894 2227,5894 2237,5893 2242,5893 2246,5892 2256,5890 2261,5889 2266,5888 2271,5886 2276,5884 2280,5882 2285,5880 2290,5877 2295,5874 2300,5871 2305,5868 2310,5864 2315,5860 2319,5855 2324,5850 2329,5845 2334,5840 2339,5835 2344,5829 2349,5822 2354,5816 2358,5809 2363,5802 2368,5795 2373,5787 2378,5779 2383,5771 2388,5762 2392,5753 2397,5744 2402,5735 2407,5725 2412,5715 2417,5705 2422,5694 2427,5684 2431,5673 2436,5662 2441,5650 2446,5639 2451,5627 2456,5615 2461,5602 2465,5590 2470,5577 2475,5564 2480,5551 2485,5538 2490,5525 2495,5511 2500,5497 2504,5483 2509,5469 2514,5455 2519,5441 2524,5426 2529,5412 2534,5397 2539,5382 2543,5367 2548,5352 2553,5336 2558,5321 2563,5305 2568,5290 2573,5274 2577,5258 2582,5242 2587,5226 2592,5210 2597,5194 2602,5177 2607,5161 2612,5144 2616,5128 2621,5111 2626,5094 2631,5077 2636,5060 2641,5043 2646,5026 2650,5009 2655,4992 2660,4974 2665,4957 2670,4939 2675,4922 2680,4904 2685,4886 2689,4869 2694,4851 2699,4833 2704,4815 2709,4797 2714,4779 2719,4761 2723,4743 2728,4724 2733,4706 2738,4688 2743,4669 2748,4651 2753,4632 2758,4614 2762,4595 2767,4576 2772,4558 2777,4539 2782,4520 2787,4501 2792,4482 2797,4463 2801,4445 2806,4425 2811,4406 2816,4387 2821,4368 2826,4349 2831,4330 2835,4310 2840,4291 2845,4272 2850,4252 2855,4233 2860,4213 2865,4194 2870,4174 2874,4155 2879,4135 2884,4115 2889,4096 2894,4076 2899,4056 2904,4036 2908,4016 2913,3996 2918,3976 2923,3957 2928,3937 2933,3916 2938,3896 2943,3876 2947,3856 2952,3836 2957,3816 2962,3797 2967,3776 2972,3756 2977,3736 2982,3716 2986,3695 2991,3675 2996,3654 3001,3634 3006,3614 3011,3593 3016,3573 3020,3552 3025,3531 3030,3511 3035,3490 3040,3470 3045,3449 3050,3428 3055,3407 3059,3387 3064,3366 3069,3345 3074,3324 3079,3303 3084,3282 3089,3262 3093,3241 3098,3220 3103,3199 3108,3179 3113,3158 3118,3138 3123,3118 3128,3097 3132,3077 3137,3058 3142,3038 3147,3018 3152,2999 3157,2980 3162,2961 3167,2943 3171,2925 3176,2907 3181,2889 3186,2872 3191,2854 3196,2837 3201,2821 3205,2804 3210,2788 3215,2773 3220,2757 3225,2742 3230,2727 3235,2712 3240,2697 3244,2683 3249,2669 3254,2656 3259,2642 3264,2629 3269,2616 3274,2603 3278,2591 3283,2579 3288,2567 3293,2555 3298,2544 3303,2533 3308,2522 3313,2511 3317,2500 3322,2490 3327,2480 3332,2470 3337,2460 3342,2450 3347,2441 3351,2432 3356,2422 3361,2413 3366,2405 3371,2396 3376,2388 3381,2379 3386,2371 3390,2363 3395,2355 3400,2347 3405,2340 3410,2332 3415,2325 3420,2317 3425,2310 3429,2303 3434,2296 3439,2289 3444,2283 3449,2276 3454,2269 3459,2263 3463,2256 3468,2250 3473,2244 3478,2238 3483,2232 3488,2226 3493,2220 3498,2214 3502,2208 3507,2202 3512,2197 3517,2191 3522,2186 3527,2180 3532,2175 3536,2170 3541,2165 3546,2159 3551,2154 3556,2149 3561,2144 3566,2139 3571,2135 3575,2130 3580,2125 3585,2120 3590,2116 3595,2111 3600,2107 3605,2102 3610,2098 3614,2093 3619,2089 3624,2085 3629,2080 3634,2076 3639,2072 3644,2068 3648,2064 3653,2060 3658,2056 3663,2052 3668,2048 3673,2044 3678,2040 3683,2037 3687,2033 3692,2029 3697,2026 3702,2022 3707,2018 3712,2015 3717,2011 3721,2008 3726,2005 3731,2001 3736,1998 3741,1995 3746,1991 3751,1988 3756,1985 3760,1982 3765,1979 3775,1973 3780,1970 3785,1967 3790,1964 3794,1961 3799,1959 3804,1956 3809,1953 3814,1950 3819,1948 3824,1945 3829,1942 3833,1940 3838,1937 3848,1932 3853,1930 3858,1927 3863,1925 3868,1923 3872,1920 3877,1918 3887,1913 3892,1911 3897,1909 3902,1907 3906,1905 3911,1903 3916,1900 3921,1898 3926,1896 3931,1894 3936,1892 3941,1890 3945,1888 3950,1886 3955,1884 3960,1883 3965,1881 3970,1879 3975,1877 3979,1875 3984,1874 3989,1872 3994,1870 3999,1868 4004,1867 4009,1865 4014,1863 4023,1860 4028,1859 4033,1857 4038,1856 4043,1855 4048,1853 4053,1852 4062,1849 4067,1848 4072,1847 4077,1845 4082,1844 4087,1843 4091,1842 4096,1841 4101,1840 4106,1839 4111,1838 4116,1837 4121,1836 4126,1835 4135,1834 4140,1833 4145,1832 4155,1831 4160,1830 4164,1830 4174,1828 4179,1828 4184,1827 4194,1826 4199,1826 4203,1826 4213,1825 4218,1825 4223,1824 4233,1824 4238,1824 4242,1824 4252,1823 4257,1823 4262,1823 4267,1823 4272,1823 4276,1823 4281,1823 4291,1823 4296,1823 4301,1823 4311,1824 4315,1824 4320,1824 4330,1824 4335,1825 4340,1825 4349,1826 4354,1826 4359,1826 4364,1827 4369,1827 4374,1828 4379,1828 4388,1829 4393,1830 4398,1830 4403,1831 4408,1832 4413,1832 4418,1833 4427,1834 4432,1835 4437,1836 4447,1837 4452,1838 4457,1839 4461,1839 4466,1840 4471,1841 4481,1843 4486,1844 4491,1845 4500,1846 4505,1847 4510,1848 4520,1850 4525,1851 4530,1852 4539,1854 4544,1855 4549,1856 4554,1858 4559,1859 4564,1860 4569,1861 4573,1862 4578,1863 4583,1865 4588,1866 4598,1868 4603,1869 4607,1871 4617,1873 4622,1875 4627,1876 4632,1877 4637,1879 4642,1880 4646,1881 4656,1884 4661,1885 4666,1887 4671,1888 4676,1890 4681,1891 4685,1892 4695,1895 4700,1897 4705,1898 4710,1900 4715,1901 4719,1903 4724,1904 4734,1908 4739,1909 4744,1911 4749,1912 4754,1914 4758,1915 4763,1917 4768,1919 4773,1920 4778,1922 4783,1924 4788,1925 4792,1927 4797,1929 4802,1930 4807,1932 4812,1934 4817,1936 4827,1939 4831,1941 4836,1942 4846,1946 4851,1948 4856,1950 4865,1953 4870,1955 4875,1957 4885,1960 4890,1962 4895,1964 4900,1966 4904,1968 4909,1969 4914,1971 4919,1973 4924,1975 4929,1977 4934,1979 4939,1980 4943,1982 4948,1984 4953,1986 4958,1988 4963,1990 4968,1992 4973,1994 4977,1995 4982,1997 4987,1999 4992,2001 4997,2003 5002,2005 5007,2007 5012,2009 5016,2011 5021,2013 5026,2015 5031,2017 5036,2019 5041,2021 5046,2023 5050,2025 5060,2029 5065,2031 5070,2033 5080,2038 5085,2040 5089,2042 5099,2046 5104,2048 5114,2052 5119,2055 5124,2057 5133,2061 5138,2063 5143,2065 5148,2067 5153,2070 5158,2072 5162,2074 5167,2076 5172,2078 5177,2080 5182,2083 5192,2087 5197,2089 5201,2091 5211,2095 5216,2098 5221,2100 5226,2102 5231,2104 5235,2106 5240,2108 5245,2110 5250,2113 5255,2115 5260,2117 5270,2121 5274,2123 5279,2125 5289,2130 5294,2132 5299,2134 5304,2136 5309,2138 5313,2140 5318,2142 5323,2145 5328,2147 5333,2149 5338,2151 5347,2155 5352,2158 5357,2160 5367,2164 5372,2166 5377,2168 5382,2171 5386,2173 5391,2175 5396,2177 5401,2179 5406,2181 5411,2183 5416,2186 5425,2190 5430,2192 5435,2194 5445,2198 5450,2201 5459,2205 5464,2207 5469,2209 5479,2213 5484,2215 5489,2217 5498,2222 5503,2224 5508,2226 5513,2228 5518,2230 5523,2232 5528,2234 5532,2236 5537,2238 5542,2240 5547,2242 5552,2244 5557,2247 5562,2249 5567,2251 5576,2255 5581,2257 5586,2259 5596,2263 5601,2265 5605,2267 5610,2269 5615,2271 5620,2273 5625,2275 5630,2278 5635,2280 5640,2282 5644,2284 5649,2286 5654,2288 5659,2290 5664,2292 5669,2294 5674,2296 5678,2298 5683,2300 5693,2304 5698,2306 5703,2308 5713,2312 5717,2314 5722,2316 5732,2320 5737,2322 5742,2324 5747,2326 5752,2328 5756,2330 5761,2332 5766,2334 5771,2337 5776,2339 5786,2343 5790,2345 5795,2347 5805,2351 5810,2353 5815,2355 5825,2359 5829,2361 5834,2363 5839,2365 5844,2367 5849,2369 5854,2371 5859,2373 5863,2375 5868,2377 5873,2379 5878,2381 5883,2383 5888,2384 5893,2386 5898,2388 5902,2390 5907,2392 5912,2394 5917,2396 5922,2398 5927,2400 5932,2402 5936,2403 5941,2405 5946,2407 5951,2409 5956,2411 5961,2413 5966,2414 5971,2416 5975,2418 5980,2420 5985,2422 5990,2424 5995,2425 6000,2427 6005,2429 6010,2431 6019,2435 6024,2437 6029,2438 6039,2442 6044,2444 6048,2446 6058,2450 6063,2451 6068,2453 6078,2457 6083,2459 6087,2461 6097,2465 6102,2466 6107,2468 6117,2472 6121,2474 6126,2476 6131,2478 6136,2479 6141,2481 6146,2483 6151,2485 6156,2487 6160,2489 6165,2490 6170,2492 6175,2494 6180,2496 6190,2499 6195,2501 6199,2503 6209,2506 6214,2508 6219,2509 6229,2513 6233,2514 6238,2516 6243,2518 6248,2519 6253,2521 6258,2523 6268,2526 6272,2528 6277,2529 6287,2533 6292,2534 6297,2536 6306,2540 6311,2541 6316,2543 6321,2545 6326,2546 6331,2548 6336,2550 6341,2551 6345,2553 6350,2555 6355,2556 6365,2560 6370,2561 6375,2563 6384,2566 6389,2568 6394,2570 6399,2571 6404,2573 6409,2574 6414,2576 6423,2579 6428,2581 6433,2582 6443,2586 6448,2587 6457,2590 6462,2592 6467,2594 6477,2597 6482,2598 6487,2600 6491,2601 6496,2603 6501,2605 6506,2606 6516,2609 6521,2611 6526,2613 6535,2616 6540,2617 6544,2619 6549,2621 6554,2622 6559,2624 6563,2625 6573,2628 6578,2630 6583,2631 6593,2635 6598,2636 6602,2638 6607,2639 6612,2641 6617,2642 6622,2644 6632,2647 6637,2648 6641,2650 6646,2651 6651,2653 6656,2654 6661,2656 6671,2659 6675,2660 6680,2662 6685,2663 6690,2665 6695,2666 6700,2668 6710,2671 6714,2672 6719,2674 6729,2677 6734,2678 6739,2680 6744,2681 6748,2683 6753,2684 6758,2686 6768,2689 6773,2690 6778,2692 6783,2693 6787,2695 6792,2696 6802,2699 6807,2701 6812,2702 6817,2704 6822,2705 6826,2707 6831,2708 6841,2711 6846,2713 6851,2714 6856,2715 6860,2717 6865,2718 6870,2719 6880,2722 6885,2723 6890,2724 6899,2727 6904,2728 6909,2729 6914,2731 6919,2732 6924,2733 6929,2735 6938,2738 6943,2739 6948,2741 6953,2743 6958,2745 6963,2747 6968,2749 6972,2751 6977,2753 6982,2755 6987,2757 6992,2759 6997,2762 7002,2764 7006,2767 7011,2769 7016,2771 7021,2774 7026,2776 7031,2779 7036,2781 7041,2783 7045,2785 7055,2790 7060,2792 7065,2794 7070,2796 7075,2797 7080,2799 7084,2801 7094,2804 7099,2806 7104,2807 7114,2810 7118,2812 7128,2815 7133,2816 7138,2818 7143,2819 7148,2821 7153,2823 7157,2824 7162,2826 7167,2828 7172,2829 7177,2831 7187,2835 7191,2837 7196,2839 7201,2841 7206,2843 7211,2845 7216,2848 7221,2850 7226,2852 7230,2854 7235,2856 7240,2859 7245,2861 7250,2863 7255,2865 7265,2870 7269,2872 7274,2874 7279,2877 7284,2879 7289,2881 7294,2883 7303,2888 7308,2890 7313,2892 7323,2896 7328,2898 7333,2900 7338,2903 7342,2905 7347,2907 7352,2908 7357,2910 7362,2912 7367,2914 7372,2916 7376,2918 7381,2919 7386,2921 7391,2923 7401,2926 7406,2928 7411,2929 7420,2933 7425,2934 7430,2936 7435,2938 7440,2939 7445,2941 7449,2943 7454,2944 7459,2946 7464,2948 7469,2949 7474,2951 7479,2953 7484,2955 7488,2956 7493,2958 7498,2960 7503,2962 7508,2963 7513,2965 7518,2967 7523,2969 7532,2972 7537,2974 7542,2976 7552,2980 7557,2981 7561,2983 7571,2987 7576,2989 7581,2990 7591,2994 7596,2996 7600,2997 7610,3001 7615,3003 7620,3005 7625,3006 7630,3008 7634,3010 7639,3012 7644,3013 7649,3015 7654,3017 7659,3019 7664,3020 7669,3022 7673,3024 7678,3026 7688,3029 7693,3031 7698,3033 7708,3036 7712,3038 7717,3040 7727,3043 7732,3045 7737,3047 7742,3049 7746,3051 7751,3052 7756,3054 7761,3056 7766,3058 7771,3060 7776,3062 7781,3063 7785,3065 7790,3067 7800,3070 7805,3072 7810,3073 7815,3075 7819,3076 7824,3078 7829,3079 7839,3081 7844,3083 7849,3084 7858,3085 7863,3086 7868,3087 7878,3088 7883,3089 7888,3090 7897,3091 7902,3092 7907,3092 7912,3093 7917,3094 7922,3095 7927,3096 7936,3097 7941,3099 7946,3100 7951,3101 7956,3102 7961,3104 7966,3105 7975,3108 7980,3109 7985,3111 7990,3112 7995,3114 8000,3115 8004,3117 8014,3120 8019,3121 8024,3122 8029,3124 8034,3125 8039,3126 8043,3128 8053,3130 8058,3131 8063,3132 8073,3134 8077,3135 8082,3135 8092,3137 8097,3138 8102,3139 8107,3139 8112,3140 8116,3141 8126,3142 8131,3143 8136,3143 8146,3145 8151,3146 8155,3146 8165,3148 8170,3148 8175,3149 8180,3150 8185,3151 8189,3152 8194,3152 8204,3154 8209,3155 8214,3156 8224,3158 8228,3159 8233,3160 8243,3162 8248,3163 8253,3164 8262,3166 8267,3167 8272,3168 8277,3169 8282,3171 8287,3172 8292,3173 8301,3175 8306,3176 8311,3177 8321,3180 8326,3181 8331,3182 8340,3184 8345,3185 8350,3186 8360,3188 8365,3189 8370,3189 8379,3191 8384,3192 8389,3193 8399,3195 8404,3196 8409,3196 8418,3198 8423,3199 8428,3200 8438,3201 8443,3202 8447,3203 8452,3204 8457,3205 8462,3205 8472,3207 8477,3208 8482,3209 8491,3210 8496,3211 8501,3212 8511,3213 8516,3214 8521,3215 8530,3217 8535,3217 8540,3218 8545,3219 8550,3220 8555,3220 8559,3221 8569,3223 8574,3224 8579,3224 8589,3226 8594,3227 8598,3227 8608,3229 8613,3230 8618,3230 8628,3232 8632,3233 8637,3233 8642,3234 8647,3235 8652,3236 8657,3236 8667,3238 8671,3239 8676,3239 8686,3241 8691,3241 8696,3242 8705,3244 8710,3244 8715,3245 8720,3246 8725,3246 8730,3247 8735,3248 8744,3249 8749,3250 8754,3250 8764,3252 8769,3252 8774,3253 8779,3253 8783,3254 8788,3255 8798,3256 8803,3257 8808,3257 8817,3259 8822,3260 8827,3260 8832,3261 8837,3262 8842,3262 8847,3263 8856,3264 8861,3265 8866,3266 8876,3267 8881,3268 8886,3269 8895,3270 8900,3271 8905,3271 8915,3272 8920,3273 8925,3274 8934,3275 8939,3276 8944,3276 8954,3277 8959,3278 8964,3278 8973,3279 8978,3280 8983,3280 8993,3281 8998,3282 9002,3282 9012,3283 9017,3284 9022,3284 9032,3285 9037,3286 9041,3286 9051,3287 9056,3287 9061,3288 9071,3289 9075,3289 9080,3289 9090,3290 9095,3291 9100,3291 9110,3292 9114,3292 9119,3293 9129,3294 9134,3294 9144,3295 9148,3295 9153,3296 9163,3296 9168,3297 9173,3297 9183,3298 9187,3299 9192,3299 9202,3300 9207,3301 9212,3301 9222,3302 9226,3302 9231,3303 9241,3304 9246,3304 9251,3305 9260,3306 9265,3306 9270,3307 9280,3308 9285,3308 9290,3309 9299,3310 9304,3310 9309,3311 9319,3311 9324,3312 9329,3312 9338,3313 9343,3314 9348,3314 9353,3314 9358,3315 9363,3315 9368,3316 9377,3316 9382,3317 9387,3317 9397,3318 9402,3318 9407,3319 9416,3319 9421,3320 9426,3320 9436,3321 9441,3321 9445,3322 9455,3323 9460,3323 9470,3324 9475,3325 9480,3325 9484,3325 9489,3326 9494,3326 9499,3327 9509,3328 9514,3328 9518,3329 9523,3330 9528,3330 9533,3331 9538,3331 9548,3332 9553,3333 9557,3333 9567,3334 9572,3335 9577,3336 9587,3337 9592,3337 9596,3338 9606,3339 9611,3339 9616,3340 9626,3340 9630,3341 9635,3341 9645,3342 9650,3343 9655,3343 9665,3344 9669,3344 9674,3345 9684,3346 9689,3346 9694,3347 9703,3347 9708,3348 9713,3348 9718,3349 9723,3349 9728,3349 9733,3350 9742,3351 9747,3351 9752,3352 9762,3352 9767,3353 9772,3353 9781,3354 9786,3354 9791,3355 9801,3356 9806,3356 9815,3357 9820,3358 9825,3358 9835,3359 9840,3359 9845,3360 9854,3361 9859,3361 9864,3361 9874,3362 9879,3363 9884,3363 9888,3364 9893,3364 9898,3365 9903,3365 9913,3366 9918,3366 9923,3367 9932,3368 9937,3368 9942,3369 9952,3369 9957,3370 9961,3370 9971,3371 9976,3372 9981,3372 9991,3373 9996,3374 10000,3375 10005,3375 10010,3376 10015,3376 10020,3377 10030,3378 10035,3378 10039,3379 10049,3380 10054,3381 10059,3381 10069,3382 10073,3383 10078,3383 10088,3384 10093,3385 10098,3385 10108,3386 10112,3386 10117,3387 10127,3388 10132,3388 10142,3389 10146,3389 10151,3390 10161,3390 10166,3391 10171,3391 10181,3392 10185,3393 10190,3393 10200,3394 10205,3395 10210,3395 10219,3396 10224,3397 10229,3398 10234,3398 10239,3399 10244,3399 10249,3400 10258,3401 10263,3402 10268,3402 10278,3403 10283,3404 10288,3404 10297,3406 10302,3406 10307,3407 10317,3408 10322,3409 10327,3409 10331,3410 10336,3410 10341,3411 10346,3411 10356,3412 10361,3413 10366,3413 10370,3413 10375,3414 10380,3414 10385,3415 10395,3415 10400,3416 10404,3416 10414,3417 10419,3417 10424,3417 10434,3418 10439,3418 10443,3419 10453,3419 10458,3419 10468,3420 10473,3420 10478,3421 10487,3421 10492,3422 10497,3422 10507,3423 10512,3423 10516,3424 10526,3425 10531,3425 10536,3425 10546,3426 10551,3427 10555,3427 10565,3428 10570,3428 10575,3429 10585,3429 10589,3430 10594,3430 10604,3431 10609,3431 10614,3432 10624,3433 10628,3433 10633,3433 10643,3434 10648,3435 10653,3435 10663,3436 10667,3436 10672,3437 10682,3437 10687,3438 10692,3438 10701,3439 10706,3440 10711,3440 10721,3441 10726,3442 10731,3442 10740,3443 10745,3443 10750,3444 10760,3445 10765,3445 10770,3446 10779,3447 10784,3447 10789,3448 10799,3449 10804,3449 10813,3450 10818,3451 10823,3451 10828,3451 10833,3452 10838,3452 10843,3453 10852,3454 10857,3454 10862,3454 10872,3455 10877,3456 10882,3456 10891,3457 10896,3457 10901,3457 10911,3458 10916,3458 10921,3459 10925,3459 10930,3459 10935,3460 10940,3460 10950,3461 10955,3461 10959,3461 10969,3462 10974,3462 10979,3463 10984,3463 10989,3463 10994,3464 10998,3464 11008,3465 11013,3465 11018,3465 11028,3466 11032,3467 11037,3467 11047,3468 11052,3468 11057,3469 11067,3469 11071,3470 11076,3470 11081,3471 11086,3471 11091,3472 11096,3472 11106,3473 11110,3473 11115,3474 11120,3474 11125,3475 11130,3475 11140,3476 11144,3476 11149,3477 11159,3478 11164,3478 11169,3478 11179,3479 11183,3480 11188,3480 11198,3481 11203,3481 11208,3482 11213,3482 11217,3483 11222,3483 11227,3484 11237,3484 11242,3485 11247,3485 11252,3486 11256,3487 11261,3487 11266,3488 11276,3489 11281,3489 11286,3490 11295,3491 11300,3492 11305,3492 11315,3494 11320,3494 11325,3495 11334,3496 11339,3497 11344,3497 11354,3498 11359,3499 11364,3499 11373,3500 11378,3501 11383,3501 11393,3502 11398,3502 11402,3503 11412,3504 11417,3504 11422,3505 11427,3505 11432,3505 11437,3506 11441,3506 11451,3507 11456,3507 11461,3507 11471,3508 11475,3508 11485,3509 11490,3509 11495,3510 11505,3511 11510,3511 11514,3511 11524,3512 11529,3512 11534,3513 11544,3513 11549,3514 11553,3514 11563,3515 11568,3515 11573,3516 11578,3516 11583,3517 11587,3517 11592,3518 11602,3518 11607,3519 11612,3519 11622,3520 11626,3521 11631,3521 11641,3522 11646,3523 11651,3523 11660,3524 11665,3524 11670,3525 11680,3526 11685,3526 11690,3527 11699,3528 11704,3528 11709,3529 11719,3530 11724,3530 11729,3531 11734,3531 11738,3532 11743,3533 11748,3533 11758,3534 11763,3535 11768,3535 11777,3537 11782,3537 11787,3538 11797,3539 11802,3540 11811,3541 11816,3542 11821,3542 11826,3543 11831,3544 11836,3544 11841,3545 11850,3546 11855,3547 11860,3547 11870,3549 11875,3549 11880,3550 11884,3551 11889,3551 11894,3552 11899,3552 11909,3554 11914,3554 11918,3555 11928,3556 11933,3557 11938,3557 11948,3558 11953,3559 11957,3560 11967,3561 11972,3561 11977,3562 11987,3563 11992,3564 11996,3564 12006,3565 12011,3566 12016,3566 12026,3567 12030,3568 12035,3568 12045,3570 12050,3570 12055,3571 12065,3572 12069,3572 12074,3573 12084,3574 12089,3574 12094,3575 12103,3576 12108,3576 12113,3577 12118,3577 12123,3578 12128,3578 12133,3579 12142,3580 12147,3580 12152,3581 12157,3582 12162,3582 12167,3583 12177,3584 12181,3584 12186,3585 12196,3586 12201,3586 12206,3587 12215,3588 12220,3589 12225,3589 12235,3590 12240,3591 12245,3591 12254,3593 12259,3593 12264,3594 12274,3595 12279,3596 12284,3596 12293,3598 12298,3598 12303,3599 12313,3601 12318,3601 12323,3602 12332,3604 12337,3605 12342,3605 12352,3607 12357,3608 12361,3609 12371,3610 12376,3611 12381,3612 12391,3613 12396,3614 12400,3615 12405,3616 12410,3616 12415,3617 12420,3617 12430,3618 12435,3619 12439,3619 12449,3620 12454,3620 12459,3621 12469,3622 12473,3622 12483,3622 12488,3623 12493,3623 12503,3624 12508,3624 12512,3624 12522,3625 12527,3625 12532,3626 12542,3626 12546,3627 12551,3627 12561,3628 12566,3628 12571,3629 12581,3629 12585,3630 12590,3630 12600,3631 12605,3631 12610,3631 12620,3632 12624,3632 12629,3632 12639,3633 12644,3633 12649,3633 12658,3634 12663,3634 12668,3634 12673,3634 12678,3635 12683,3635 12688,3635 12697,3636 12702,3636 12707,3636 12717,3637 12722,3637 12727,3637 12736,3638 12741,3638 12746,3639 12756,3639 12761,3640 12766,3640 12775,3641 12780,3641 12785,3641 12795,3642 12800,3643 12805,3643"/>
 <text class="TextShape"><tspan class="TextParagraph" font-family="Calibri, sans-serif" font-size="353px" font-weight="400"><tspan class="TextPosition" x="1818" y="6410"><tspan fill="rgb(0,0,0)" stroke="none">300</tspan></tspan></tspan></text>
 <text class="TextShape"><tspan class="TextParagraph" font-family="Calibri, sans-serif" font-size="353px" font-weight="400"><tspan class="TextPosition" x="3765" y="6410"><tspan fill="rgb(0,0,0)" stroke="none">500</tspan></tspan></tspan></text>
 <text class="TextShape"><tspan class="TextParagraph" font-family="Calibri, sans-serif" font-size="353px" font-weight="400"><tspan class="TextPosition" x="5712" y="6410"><tspan fill="rgb(0,0,0)" stroke="none">700</tspan></tspan></tspan></text>
 <text class="TextShape"><tspan class="TextParagraph" font-family="Calibri, sans-serif" font-size="353px" font-weight="400"><tspan class="TextPosition" x="7659" y="6410"><tspan fill="rgb(0,0,0)" stroke="none">900</tspan></tspan></tspan></text>
 <text class="TextShape"><tspan class="TextParagraph" font-family="Calibri, sans-serif" font-size="353px" font-weight="400"><tspan class="TextPosition" x="9514" y="6410"><tspan fill="rgb(0,0,0)" stroke="none">1100</tspan></tspan></tspan></text>
 <text class="TextShape"><tspan class="TextParagraph" font-family="Calibri, sans-serif" font-size="353px" font-weight="400"><tspan class="TextPosition" x="11461" y="6410"><tspan fill="rgb(0,0,0)" stroke="none">1300</tspan></tspan></tspan></text>
 <text class="TextShape"><tspan class="TextParagraph" font-family="Calibri, sans-serif" font-size="353px" font-weight="400"><tspan class="TextPosition" x="1661" y="5989"><tspan fill="rgb(0,0,0)" stroke="none">0</tspan></tspan></tspan></text>
 <text class="TextShape"><tspan class="TextParagraph" font-family="Calibri, sans-serif" font-size="353px" font-weight="400"><tspan class="TextPosition" x="1476" y="5562"><tspan fill="rgb(0,0,0)" stroke="none">10</tspan></tspan></tspan></text>
 <text class="TextShape"><tspan class="TextParagraph" font-family="Calibri, sans-serif" font-size="353px" font-weight="400"><tspan class="TextPosition" x="1476" y="5135"><tspan fill="rgb(0,0,0)" stroke="none">20</tspan></tspan></tspan></text>
 <text class="TextShape"><tspan class="TextParagraph" font-family="Calibri, sans-serif" font-size="353px" font-weight="400"><tspan class="TextPosition" x="1476" y="4708"><tspan fill="rgb(0,0,0)" stroke="none">30</tspan></tspan></tspan></text>
 <text class="TextShape"><tspan class="TextParagraph" font-family="Calibri, sans-serif" font-size="353px" font-weight="400"><tspan class="TextPosition" x="1476" y="4282"><tspan fill="rgb(0,0,0)" stroke="none">40</tspan></tspan></tspan></text>
 <text class="TextShape"><tspan class="TextParagraph" font-family="Calibri, sans-serif" font-size="353px" font-weight="400"><tspan class="TextPosition" x="1476" y="3855"><tspan fill="rgb(0,0,0)" stroke="none">50</tspan></tspan></tspan></text>
 <text class="TextShape"><tspan class="TextParagraph" font-family="Calibri, sans-serif" font-size="353px" font-weight="400"><tspan class="TextPosition" x="1476" y="3428"><tspan fill="rgb(0,0,0)" stroke="none">60</tspan></tspan></tspan></text>
 <text class="TextShape"><tspan class="TextParagraph" font-family="Calibri, sans-serif" font-size="353px" font-weight="400"><tspan class="TextPosition" x="1476" y="3002"><tspan fill="rgb(0,0,0)" stroke="none">70</tspan></tspan></tspan></text>
 <text class="TextShape"><tspan class="TextParagraph" font-family="Calibri, sans-serif" font-size="353px" font-weight="400"><tspan class="TextPosition" x="1476" y="2575"><tspan fill="rgb(0,0,0)" stroke="none">80</tspan></tspan></tspan></text>
 <text class="TextShape"><tspan class="TextParagraph" font-family="Calibri, sans-serif" font-size="353px" font-weight="400"><tspan class="TextPosition" x="1476" y="2148"><tspan fill="rgb(0,0,0)" stroke="none">90</tspan></tspan></tspan></text>
 <text class="TextShape"><tspan class="TextParagraph" font-family="Calibri, sans-serif" font-size="353px" font-weight="400"><tspan class="TextPosition" x="1290" y="1722"><tspan fill="rgb(0,0,0)" stroke="none">100</tspan></tspan></tspan></text>
 <text class="TextShape"><tspan class="TextParagraph" font-family="Calibri, sans-serif" font-size="635px" font-weight="700"><tspan class="TextPosition" x="2006" y="955"><tspan fill="rgb(0,0,0)" stroke="none">Machine Vision Lens Transmission</tspan></tspan></tspan></text>
 <text class="TextShape"><tspan class="TextParagraph" font-family="Calibri, sans-serif" font-size="353px" font-weight="700"><tspan class="TextPosition" x="5790" y="7014"><tspan fill="rgb(0,0,0)" stroke="none">Wavelength (nm)</tspan></tspan></tspan></text>
 <text class="TextShape" transform="translate(844,5164) rotate(-90) translate(-844,-5164)"><tspan class="TextParagraph" font-family="Calibri, sans-serif" font-size="353px" font-weight="700"><tspan class="TextPosition" x="844" y="5164"><tspan fill="rgb(0,0,0)" stroke="none">Transmission (%)</tspan></tspan></tspan></text>
</svg>