<?xml version="1.0" encoding="UTF-8" standalone="no"?>
<svg width="305.506mm" height="81.1389mm"
 xmlns="http://www.w3.org/2000/svg" xmlns:xlink="http://www.w3.org/1999/xlink"  version="1.2" baseProfile="tiny">
<title>Qt SVG Document</title>
<desc>Generated with Qt</desc>
<defs>
</defs>
<g fill="none" stroke="black" stroke-width="1" fill-rule="evenodd" stroke-linecap="square" stroke-linejoin="bevel" >

<g fill="none" stroke="#000000" stroke-opacity="1" stroke-width="1" stroke-linecap="square" stroke-linejoin="bevel" transform="matrix(1,0,0,1,0,0)"
font-family="Open Sans" font-size="9" font-weight="400" font-style="normal" 
>
</g>

<g fill="none" stroke="#000000" stroke-opacity="1" stroke-width="1" stroke-linecap="square" stroke-linejoin="bevel" transform="matrix(1,0,0,1,0,0)"
font-family="Open Sans" font-size="9" font-weight="400" font-style="normal" 
>
</g>

<g fill="none" stroke="#000000" stroke-opacity="1" stroke-width="1" stroke-linecap="square" stroke-linejoin="bevel" transform="matrix(1.99919,0,0,1.99919,0.000799678,244.901)"
font-family="Open Sans" font-size="9" font-weight="400" font-style="normal" 
>
</g>

<g fill="#ffffff" fill-opacity="1" stroke="none" transform="matrix(1.99919,0,0,1.99919,0.000799678,244.901)"
font-family="Open Sans" font-size="9" font-weight="400" font-style="normal" 
>
<rect x="-0.0004" y="-122.5" width="433.174" height="115"/>
</g>

<g fill="none" stroke="#000000" stroke-opacity="1" stroke-width="1" stroke-linecap="square" stroke-linejoin="bevel" transform="matrix(1.99919,0,0,1.99919,0.000799678,244.901)"
font-family="Open Sans" font-size="9" font-weight="400" font-style="normal" 
>
</g>

<g fill="none" stroke="#000000" stroke-opacity="1" stroke-width="1" stroke-linecap="square" stroke-linejoin="bevel" transform="matrix(1.99919,0,0,1.99919,0.000799678,244.901)"
font-family="Open Sans" font-size="9" font-weight="400" font-style="normal" 
>
</g>

<g fill="none" stroke="#000000" stroke-opacity="1" stroke-width="1" stroke-linecap="square" stroke-linejoin="bevel" transform="matrix(1.99919,0,0,1.99919,0.000799678,244.901)"
font-family="Open Sans" font-size="9" font-weight="400" font-style="normal" 
>
</g>

<g fill="none" stroke="#000000" stroke-opacity="1" stroke-width="1" stroke-linecap="square" stroke-linejoin="bevel" transform="matrix(1.99919,0,0,1.99919,0.000799678,244.901)"
font-family="Open Sans" font-size="9" font-weight="400" font-style="normal" 
>
</g>

<g fill="none" stroke="#000000" stroke-opacity="1" stroke-width="1" stroke-linecap="square" stroke-linejoin="round" transform="matrix(1.99919,0,0,1.99919,0.000799678,244.901)"
font-family="Open Sans" font-size="9" font-weight="400" font-style="normal" 
>
<rect x="137.99" y="-122" width="178" height="114"/>
</g>

<g fill="none" stroke="#000000" stroke-opacity="1" stroke-width="1" stroke-linecap="square" stroke-linejoin="bevel" transform="matrix(1.99919,0,0,1.99919,0.000799678,244.901)"
font-family="Open Sans" font-size="9" font-weight="400" font-style="normal" 
>
</g>

<g fill="none" stroke="#000000" stroke-opacity="1" stroke-width="1" stroke-linecap="square" stroke-linejoin="bevel" transform="matrix(1.99919,0,0,1.99919,413.127,10.9956)"
font-family="Open Sans" font-size="9" font-weight="400" font-style="normal" 
>
</g>

<g fill="none" stroke="#000000" stroke-opacity="1" stroke-width="1" stroke-linecap="square" stroke-linejoin="bevel" transform="matrix(1.99919,0,0,1.99919,413.127,10.9956)"
font-family="sans" font-size="11" font-weight="100" font-style="normal" 
>
</g>

<g fill="#000000" fill-opacity="1" stroke="#000000" stroke-opacity="1" stroke-width="1" stroke-linecap="square" stroke-linejoin="round" transform="matrix(1.99919,0,0,1.99919,413.127,10.9956)"
font-family="sans" font-size="11" font-weight="100" font-style="normal" 
>
<path vector-effect="none" fill-rule="nonzero" d="M0,10.1094 L2.20313,2.03125 L3.0625,2.03125 L0.875,10.1094 L0,10.1094 M4.53125,7.0625 C4.53125,7.84375 4.65104,8.41927 4.89063,8.78906 C5.13021,9.15885 5.49479,9.34375 5.98438,9.34375 C6.32813,9.34375 6.61719,9.25 6.85156,9.0625 C7.08594,8.875 7.22917,8.58854 7.28125,8.20313 L8.25,8.26563 C8.17708,8.82813 7.9401,9.27604 7.53906,9.60938 C7.13802,9.94271 6.63021,10.1094 6.01563,10.1094 C5.20313,10.1094 4.58333,9.85156 4.15625,9.33594 C3.72917,8.82031 3.51563,8.07292 3.51563,7.09375 C3.51563,6.11458 3.72917,5.36719 4.15625,4.85156 C4.58333,4.33594 5.19792,4.07813 6,4.07813 C6.59375,4.07813 7.08854,4.23177 7.48438,4.53906 C7.88021,4.84635 8.125,5.27083 8.21875,5.8125 L7.23438,5.89063 C7.18229,5.56771 7.05469,5.3125 6.85156,5.125 C6.64844,4.9375 6.35938,4.84375 5.98438,4.84375 C5.47396,4.84375 5.10417,5.01302 4.875,5.35156 C4.64583,5.6901 4.53125,6.26042 4.53125,7.0625 M10.7656,10.1094 C10.1823,10.1094 9.74479,9.95573 9.45313,9.64844 C9.16146,9.34115 9.01563,8.91667 9.01563,8.375 C9.01563,7.77083 9.21354,7.3099 9.60938,6.99219 C10.0052,6.67448 10.6406,6.5 11.5156,6.46875 L12.8281,6.45313 L12.8281,6.14063 C12.8281,5.66146 12.7266,5.32031 12.5234,5.11719 C12.3203,4.91406 12.0052,4.8125 11.5781,4.8125 C11.151,4.8125 10.8385,4.88542 10.6406,5.03125 C10.4427,5.17708 10.3229,5.41146 10.2813,5.73438 L9.26563,5.65625 C9.43229,4.60417 10.2135,4.07813 11.6094,4.07813 C12.3385,4.07813 12.888,4.24479 13.2578,4.57813 C13.6276,4.91146 13.8125,5.39583 13.8125,6.03125 L13.8125,8.53125 C13.8125,8.82292 13.849,9.04167 13.9219,9.1875 C13.9948,9.33333 14.1354,9.40625 14.3438,9.40625 C14.4375,9.40625 14.5469,9.39063 14.6719,9.35938 L14.6719,9.96875 C14.4219,10.0208 14.1719,10.0469 13.9219,10.0469 C13.5573,10.0469 13.2943,9.95313 13.1328,9.76563 C12.9714,9.57813 12.8802,9.28646 12.8594,8.89063 L12.8281,8.89063 C12.5781,9.32813 12.2891,9.64063 11.9609,9.82813 C11.6328,10.0156 11.2344,10.1094 10.7656,10.1094 M10.9844,9.375 C11.3385,9.375 11.6536,9.29688 11.9297,9.14063 C12.2057,8.98438 12.4245,8.76563 12.5859,8.48438 C12.7474,8.20313 12.8281,7.91146 12.8281,7.60938 L12.8281,7.125 L11.7656,7.15625 C11.3177,7.15625 10.9766,7.20052 10.7422,7.28906 C10.5078,7.3776 10.3281,7.51042 10.2031,7.6875 C10.0781,7.86458 10.0156,8.09896 10.0156,8.39063 C10.0156,8.70313 10.099,8.94531 10.2656,9.11719 C10.4323,9.28906 10.6719,9.375 10.9844,9.375 M18.7813,10 L18.7813,6.3125 C18.7813,5.75 18.7031,5.36198 18.5469,5.14844 C18.3906,4.9349 18.1146,4.82813 17.7188,4.82813 C17.3021,4.82813 16.974,4.98438 16.7344,5.29688 C16.4948,5.60938 16.375,6.05208 16.375,6.625 L16.375,10 L15.4219,10 L15.4219,5.42188 C15.4219,4.74479 15.4115,4.33333 15.3906,4.1875 L16.2969,4.1875 C16.3073,4.20833 16.3125,4.25781 16.3125,4.33594 C16.3125,4.41406 16.3151,4.5026 16.3203,4.60156 C16.3255,4.70052 16.3333,4.89583 16.3438,5.1875 L16.3594,5.1875 C16.5677,4.77083 16.8047,4.48177 17.0703,4.32031 C17.3359,4.15885 17.6667,4.07813 18.0625,4.07813 C18.5,4.07813 18.8464,4.16667 19.1016,4.34375 C19.3568,4.52083 19.5365,4.80208 19.6406,5.1875 L19.6563,5.1875 C19.8542,4.79167 20.0964,4.50781 20.3828,4.33594 C20.6693,4.16406 21.0104,4.07813 21.4063,4.07813 C22,4.07813 22.4297,4.23698 22.6953,4.55469 C22.9609,4.8724 23.0938,5.39583 23.0938,6.125 L23.0938,10 L22.1406,10 L22.1406,6.3125 C22.1406,5.75 22.0625,5.36198 21.9063,5.14844 C21.75,4.9349 21.474,4.82813 21.0781,4.82813 C20.651,4.82813 20.3203,4.98438 20.0859,5.29688 C19.8516,5.60938 19.7344,6.05208 19.7344,6.625 L19.7344,10 L18.7813,10 M25.2969,7.29688 C25.2969,7.96354 25.4349,8.47656 25.7109,8.83594 C25.987,9.19531 26.3906,9.375 26.9219,9.375 C27.3385,9.375 27.6719,9.29167 27.9219,9.125 C28.1719,8.95833 28.3438,8.74479 28.4375,8.48438 L29.2813,8.73438 C28.9375,9.65104 28.151,10.1094 26.9219,10.1094 C26.0573,10.1094 25.401,9.85417 24.9531,9.34375 C24.5052,8.83333 24.2813,8.07292 24.2813,7.0625 C24.2813,6.09375 24.5052,5.35417 24.9531,4.84375 C25.401,4.33333 26.0417,4.07813 26.875,4.07813 C28.5833,4.07813 29.4375,5.10938 29.4375,7.17188 L29.4375,7.29688 L25.2969,7.29688 M28.4375,6.5625 C28.3854,5.94792 28.2318,5.5 27.9766,5.21875 C27.7214,4.9375 27.349,4.79688 26.8594,4.79688 C26.3906,4.79688 26.0208,4.95313 25.75,5.26563 C25.4792,5.57813 25.3333,6.01042 25.3125,6.5625 L28.4375,6.5625 M30.6875,10 L30.6875,5.54688 C30.6875,5.13021 30.6771,4.67708 30.6563,4.1875 L31.5625,4.1875 C31.5938,4.84375 31.6094,5.23958 31.6094,5.375 L31.625,5.375 C31.7813,4.875 31.9609,4.53385 32.1641,4.35156 C32.3672,4.16927 32.651,4.07813 33.0156,4.07813 C33.1406,4.07813 33.2708,4.09896 33.4063,4.14063 L33.4063,5.01563 C33.2708,4.98438 33.099,4.96875 32.8906,4.96875 C32.4844,4.96875 32.1771,5.14063 31.9688,5.48438 C31.7604,5.82813 31.6563,6.32292 31.6563,6.96875 L31.6563,10 L30.6875,10 M35.7969,10.1094 C35.2135,10.1094 34.776,9.95573 34.4844,9.64844 C34.1927,9.34115 34.0469,8.91667 34.0469,8.375 C34.0469,7.77083 34.2448,7.3099 34.6406,6.99219 C35.0365,6.67448 35.6719,6.5 36.5469,6.46875 L37.8594,6.45313 L37.8594,6.14063 C37.8594,5.66146 37.7578,5.32031 37.5547,5.11719 C37.3516,4.91406 37.0365,4.8125 36.6094,4.8125 C36.1823,4.8125 35.8698,4.88542 35.6719,5.03125 C35.474,5.17708 35.3542,5.41146 35.3125,5.73438 L34.2969,5.65625 C34.4635,4.60417 35.2448,4.07813 36.6406,4.07813 C37.3698,4.07813 37.9193,4.24479 38.2891,4.57813 C38.6589,4.91146 38.8438,5.39583 38.8438,6.03125 L38.8438,8.53125 C38.8438,8.82292 38.8802,9.04167 38.9531,9.1875 C39.026,9.33333 39.1667,9.40625 39.375,9.40625 C39.4688,9.40625 39.5781,9.39063 39.7031,9.35938 L39.7031,9.96875 C39.4531,10.0208 39.2031,10.0469 38.9531,10.0469 C38.5885,10.0469 38.3255,9.95313 38.1641,9.76563 C38.0026,9.57813 37.9115,9.28646 37.8906,8.89063 L37.8594,8.89063 C37.6094,9.32813 37.3203,9.64063 36.9922,9.82813 C36.6641,10.0156 36.2656,10.1094 35.7969,10.1094 M36.0156,9.375 C36.3698,9.375 36.6849,9.29688 36.9609,9.14063 C37.237,8.98438 37.4557,8.76563 37.6172,8.48438 C37.7786,8.20313 37.8594,7.91146 37.8594,7.60938 L37.8594,7.125 L36.7969,7.15625 C36.349,7.15625 36.0078,7.20052 35.7734,7.28906 C35.5391,7.3776 35.3594,7.51042 35.2344,7.6875 C35.1094,7.86458 35.0469,8.09896 35.0469,8.39063 C35.0469,8.70313 35.1302,8.94531 35.2969,9.11719 C35.4635,9.28906 35.7031,9.375 36.0156,9.375 "/>
</g>

<g fill="none" stroke="#000000" stroke-opacity="1" stroke-width="1" stroke-linecap="square" stroke-linejoin="bevel" transform="matrix(1.99919,0,0,1.99919,413.127,10.9956)"
font-family="sans" font-size="11" font-weight="100" font-style="normal" 
>
</g>

<g fill="none" stroke="#000000" stroke-opacity="1" stroke-width="1" stroke-linecap="square" stroke-linejoin="bevel" transform="matrix(1.99919,0,0,1.99919,413.127,10.9956)"
font-family="Open Sans" font-size="9" font-weight="400" font-style="normal" 
>
</g>

<g fill="none" stroke="#000000" stroke-opacity="1" stroke-width="1" stroke-linecap="square" stroke-linejoin="bevel" transform="matrix(1.99919,0,0,1.99919,0.000799678,244.901)"
font-family="Open Sans" font-size="9" font-weight="400" font-style="normal" 
>
</g>

<g fill="none" stroke="#000000" stroke-opacity="1" stroke-width="1" stroke-linecap="square" stroke-linejoin="bevel" transform="matrix(1.99919,0,0,1.99919,0.000799678,244.901)"
font-family="Open Sans" font-size="9" font-weight="400" font-style="normal" 
>
</g>

<g fill="none" stroke="#000000" stroke-opacity="1" stroke-width="1" stroke-linecap="square" stroke-linejoin="bevel" transform="matrix(1.99919,0,0,1.99919,0.000799678,244.901)"
font-family="Open Sans" font-size="9" font-weight="400" font-style="normal" 
>
</g>

<g fill="none" stroke="#000000" stroke-opacity="1" stroke-width="1" stroke-linecap="square" stroke-linejoin="round" transform="matrix(1.99919,0,0,1.99919,0.000799678,244.901)"
font-family="Open Sans" font-size="9" font-weight="400" font-style="normal" 
>
<rect x="145.99" y="-91" width="162" height="75"/>
</g>

<g fill="none" stroke="#000000" stroke-opacity="1" stroke-width="1" stroke-linecap="square" stroke-linejoin="bevel" transform="matrix(1.99919,0,0,1.99919,0.000799678,244.901)"
font-family="Open Sans" font-size="9" font-weight="400" font-style="normal" 
>
</g>

<g fill="none" stroke="#000000" stroke-opacity="1" stroke-width="1" stroke-linecap="square" stroke-linejoin="bevel" transform="matrix(1.99919,0,0,1.99919,395.212,72.9706)"
font-family="Open Sans" font-size="9" font-weight="400" font-style="normal" 
>
</g>

<g fill="none" stroke="#000000" stroke-opacity="1" stroke-width="1" stroke-linecap="square" stroke-linejoin="bevel" transform="matrix(1.99919,0,0,1.99919,395.212,72.9706)"
font-family="sans" font-size="11" font-weight="100" font-style="normal" 
>
</g>

<g fill="#000000" fill-opacity="1" stroke="#000000" stroke-opacity="1" stroke-width="1" stroke-linecap="square" stroke-linejoin="round" transform="matrix(1.99919,0,0,1.99919,395.212,72.9706)"
font-family="sans" font-size="11" font-weight="100" font-style="normal" 
>
<path vector-effect="none" fill-rule="nonzero" d="M0,10.1094 L2.20313,2.03125 L3.0625,2.03125 L0.875,10.1094 L0,10.1094 M4.53125,7.0625 C4.53125,7.84375 4.65104,8.41927 4.89063,8.78906 C5.13021,9.15885 5.49479,9.34375 5.98438,9.34375 C6.32813,9.34375 6.61719,9.25 6.85156,9.0625 C7.08594,8.875 7.22917,8.58854 7.28125,8.20313 L8.25,8.26563 C8.17708,8.82813 7.9401,9.27604 7.53906,9.60938 C7.13802,9.94271 6.63021,10.1094 6.01563,10.1094 C5.20313,10.1094 4.58333,9.85156 4.15625,9.33594 C3.72917,8.82031 3.51563,8.07292 3.51563,7.09375 C3.51563,6.11458 3.72917,5.36719 4.15625,4.85156 C4.58333,4.33594 5.19792,4.07813 6,4.07813 C6.59375,4.07813 7.08854,4.23177 7.48438,4.53906 C7.88021,4.84635 8.125,5.27083 8.21875,5.8125 L7.23438,5.89063 C7.18229,5.56771 7.05469,5.3125 6.85156,5.125 C6.64844,4.9375 6.35938,4.84375 5.98438,4.84375 C5.47396,4.84375 5.10417,5.01302 4.875,5.35156 C4.64583,5.6901 4.53125,6.26042 4.53125,7.0625 M10.7656,10.1094 C10.1823,10.1094 9.74479,9.95573 9.45313,9.64844 C9.16146,9.34115 9.01563,8.91667 9.01563,8.375 C9.01563,7.77083 9.21354,7.3099 9.60938,6.99219 C10.0052,6.67448 10.6406,6.5 11.5156,6.46875 L12.8281,6.45313 L12.8281,6.14063 C12.8281,5.66146 12.7266,5.32031 12.5234,5.11719 C12.3203,4.91406 12.0052,4.8125 11.5781,4.8125 C11.151,4.8125 10.8385,4.88542 10.6406,5.03125 C10.4427,5.17708 10.3229,5.41146 10.2813,5.73438 L9.26563,5.65625 C9.43229,4.60417 10.2135,4.07813 11.6094,4.07813 C12.3385,4.07813 12.888,4.24479 13.2578,4.57813 C13.6276,4.91146 13.8125,5.39583 13.8125,6.03125 L13.8125,8.53125 C13.8125,8.82292 13.849,9.04167 13.9219,9.1875 C13.9948,9.33333 14.1354,9.40625 14.3438,9.40625 C14.4375,9.40625 14.5469,9.39063 14.6719,9.35938 L14.6719,9.96875 C14.4219,10.0208 14.1719,10.0469 13.9219,10.0469 C13.5573,10.0469 13.2943,9.95313 13.1328,9.76563 C12.9714,9.57813 12.8802,9.28646 12.8594,8.89063 L12.8281,8.89063 C12.5781,9.32813 12.2891,9.64063 11.9609,9.82813 C11.6328,10.0156 11.2344,10.1094 10.7656,10.1094 M10.9844,9.375 C11.3385,9.375 11.6536,9.29688 11.9297,9.14063 C12.2057,8.98438 12.4245,8.76563 12.5859,8.48438 C12.7474,8.20313 12.8281,7.91146 12.8281,7.60938 L12.8281,7.125 L11.7656,7.15625 C11.3177,7.15625 10.9766,7.20052 10.7422,7.28906 C10.5078,7.3776 10.3281,7.51042 10.2031,7.6875 C10.0781,7.86458 10.0156,8.09896 10.0156,8.39063 C10.0156,8.70313 10.099,8.94531 10.2656,9.11719 C10.4323,9.28906 10.6719,9.375 10.9844,9.375 M18.7813,10 L18.7813,6.3125 C18.7813,5.75 18.7031,5.36198 18.5469,5.14844 C18.3906,4.9349 18.1146,4.82813 17.7188,4.82813 C17.3021,4.82813 16.974,4.98438 16.7344,5.29688 C16.4948,5.60938 16.375,6.05208 16.375,6.625 L16.375,10 L15.4219,10 L15.4219,5.42188 C15.4219,4.74479 15.4115,4.33333 15.3906,4.1875 L16.2969,4.1875 C16.3073,4.20833 16.3125,4.25781 16.3125,4.33594 C16.3125,4.41406 16.3151,4.5026 16.3203,4.60156 C16.3255,4.70052 16.3333,4.89583 16.3438,5.1875 L16.3594,5.1875 C16.5677,4.77083 16.8047,4.48177 17.0703,4.32031 C17.3359,4.15885 17.6667,4.07813 18.0625,4.07813 C18.5,4.07813 18.8464,4.16667 19.1016,4.34375 C19.3568,4.52083 19.5365,4.80208 19.6406,5.1875 L19.6563,5.1875 C19.8542,4.79167 20.0964,4.50781 20.3828,4.33594 C20.6693,4.16406 21.0104,4.07813 21.4063,4.07813 C22,4.07813 22.4297,4.23698 22.6953,4.55469 C22.9609,4.8724 23.0938,5.39583 23.0938,6.125 L23.0938,10 L22.1406,10 L22.1406,6.3125 C22.1406,5.75 22.0625,5.36198 21.9063,5.14844 C21.75,4.9349 21.474,4.82813 21.0781,4.82813 C20.651,4.82813 20.3203,4.98438 20.0859,5.29688 C19.8516,5.60938 19.7344,6.05208 19.7344,6.625 L19.7344,10 L18.7813,10 M25.2969,7.29688 C25.2969,7.96354 25.4349,8.47656 25.7109,8.83594 C25.987,9.19531 26.3906,9.375 26.9219,9.375 C27.3385,9.375 27.6719,9.29167 27.9219,9.125 C28.1719,8.95833 28.3438,8.74479 28.4375,8.48438 L29.2813,8.73438 C28.9375,9.65104 28.151,10.1094 26.9219,10.1094 C26.0573,10.1094 25.401,9.85417 24.9531,9.34375 C24.5052,8.83333 24.2813,8.07292 24.2813,7.0625 C24.2813,6.09375 24.5052,5.35417 24.9531,4.84375 C25.401,4.33333 26.0417,4.07813 26.875,4.07813 C28.5833,4.07813 29.4375,5.10938 29.4375,7.17188 L29.4375,7.29688 L25.2969,7.29688 M28.4375,6.5625 C28.3854,5.94792 28.2318,5.5 27.9766,5.21875 C27.7214,4.9375 27.349,4.79688 26.8594,4.79688 C26.3906,4.79688 26.0208,4.95313 25.75,5.26563 C25.4792,5.57813 25.3333,6.01042 25.3125,6.5625 L28.4375,6.5625 M30.6875,10 L30.6875,5.54688 C30.6875,5.13021 30.6771,4.67708 30.6563,4.1875 L31.5625,4.1875 C31.5938,4.84375 31.6094,5.23958 31.6094,5.375 L31.625,5.375 C31.7813,4.875 31.9609,4.53385 32.1641,4.35156 C32.3672,4.16927 32.651,4.07813 33.0156,4.07813 C33.1406,4.07813 33.2708,4.09896 33.4063,4.14063 L33.4063,5.01563 C33.2708,4.98438 33.099,4.96875 32.8906,4.96875 C32.4844,4.96875 32.1771,5.14063 31.9688,5.48438 C31.7604,5.82813 31.6563,6.32292 31.6563,6.96875 L31.6563,10 L30.6875,10 M35.7969,10.1094 C35.2135,10.1094 34.776,9.95573 34.4844,9.64844 C34.1927,9.34115 34.0469,8.91667 34.0469,8.375 C34.0469,7.77083 34.2448,7.3099 34.6406,6.99219 C35.0365,6.67448 35.6719,6.5 36.5469,6.46875 L37.8594,6.45313 L37.8594,6.14063 C37.8594,5.66146 37.7578,5.32031 37.5547,5.11719 C37.3516,4.91406 37.0365,4.8125 36.6094,4.8125 C36.1823,4.8125 35.8698,4.88542 35.6719,5.03125 C35.474,5.17708 35.3542,5.41146 35.3125,5.73438 L34.2969,5.65625 C34.4635,4.60417 35.2448,4.07813 36.6406,4.07813 C37.3698,4.07813 37.9193,4.24479 38.2891,4.57813 C38.6589,4.91146 38.8438,5.39583 38.8438,6.03125 L38.8438,8.53125 C38.8438,8.82292 38.8802,9.04167 38.9531,9.1875 C39.026,9.33333 39.1667,9.40625 39.375,9.40625 C39.4688,9.40625 39.5781,9.39063 39.7031,9.35938 L39.7031,9.96875 C39.4531,10.0208 39.2031,10.0469 38.9531,10.0469 C38.5885,10.0469 38.3255,9.95313 38.1641,9.76563 C38.0026,9.57813 37.9115,9.28646 37.8906,8.89063 L37.8594,8.89063 C37.6094,9.32813 37.3203,9.64063 36.9922,9.82813 C36.6641,10.0156 36.2656,10.1094 35.7969,10.1094 M36.0156,9.375 C36.3698,9.375 36.6849,9.29688 36.9609,9.14063 C37.237,8.98438 37.4557,8.76563 37.6172,8.48438 C37.7786,8.20313 37.8594,7.91146 37.8594,7.60938 L37.8594,7.125 L36.7969,7.15625 C36.349,7.15625 36.0078,7.20052 35.7734,7.28906 C35.5391,7.3776 35.3594,7.51042 35.2344,7.6875 C35.1094,7.86458 35.0469,8.09896 35.0469,8.39063 C35.0469,8.70313 35.1302,8.94531 35.2969,9.11719 C35.4635,9.28906 35.7031,9.375 36.0156,9.375 M39.6875,10.1094 L41.8906,2.03125 L42.75,2.03125 L40.5625,10.1094 L39.6875,10.1094 M43.5,10 L43.5,5.54688 C43.5,5.13021 43.4896,4.67708 43.4688,4.1875 L44.375,4.1875 C44.4063,4.84375 44.4219,5.23958 44.4219,5.375 L44.4375,5.375 C44.5938,4.875 44.7734,4.53385 44.9766,4.35156 C45.1797,4.16927 45.4635,4.07813 45.8281,4.07813 C45.9531,4.07813 46.0833,4.09896 46.2188,4.14063 L46.2188,5.01563 C46.0833,4.98438 45.9115,4.96875 45.7031,4.96875 C45.2969,4.96875 44.9896,5.14063 44.7813,5.48438 C44.5729,5.82813 44.4688,6.32292 44.4688,6.96875 L44.4688,10 L43.5,10 M49.3281,12.2813 C48.7031,12.2813 48.2005,12.1563 47.8203,11.9063 C47.4401,11.6563 47.1979,11.3021 47.0938,10.8438 L48.0625,10.7031 C48.125,10.974 48.2682,11.1823 48.4922,11.3281 C48.7161,11.474 49.0052,11.5469 49.3594,11.5469 C50.3281,11.5469 50.8125,10.9844 50.8125,9.85938 L50.8125,8.92188 L50.7969,8.92188 C50.6094,9.29688 50.3568,9.57813 50.0391,9.76563 C49.7214,9.95313 49.349,10.0469 48.9219,10.0469 C48.2135,10.0469 47.6927,9.8099 47.3594,9.33594 C47.026,8.86198 46.8594,8.11979 46.8594,7.10938 C46.8594,6.07813 47.0391,5.31771 47.3984,4.82813 C47.7578,4.33854 48.3021,4.09375 49.0313,4.09375 C49.4479,4.09375 49.8073,4.1875 50.1094,4.375 C50.4115,4.5625 50.6458,4.83333 50.8125,5.1875 C50.8125,5.07292 50.8203,4.88281 50.8359,4.61719 C50.8516,4.35156 50.8646,4.20833 50.875,4.1875 L51.7969,4.1875 C51.776,4.38542 51.7656,4.78646 51.7656,5.39063 L51.7656,9.82813 C51.7656,11.4635 50.9531,12.2813 49.3281,12.2813 M50.8125,7.09375 C50.8125,6.625 50.7474,6.21875 50.6172,5.875 C50.487,5.53125 50.3047,5.26823 50.0703,5.08594 C49.8359,4.90365 49.5677,4.8125 49.2656,4.8125 C48.776,4.8125 48.4193,4.99219 48.1953,5.35156 C47.9714,5.71094 47.8594,6.29167 47.8594,7.09375 C47.8594,7.88542 47.9635,8.45573 48.1719,8.80469 C48.3802,9.15365 48.7396,9.32813 49.25,9.32813 C49.5521,9.32813 49.8229,9.23958 50.0625,9.0625 C50.3021,8.88542 50.487,8.6276 50.6172,8.28906 C50.7474,7.95052 50.8125,7.55208 50.8125,7.09375 M58.1563,7.0625 C58.1563,9.09375 57.4427,10.1094 56.0156,10.1094 C55.5781,10.1094 55.2135,10.0286 54.9219,9.86719 C54.6302,9.70573 54.3906,9.44792 54.2031,9.09375 C54.2031,9.20833 54.1953,9.38021 54.1797,9.60938 C54.1641,9.83854 54.151,9.96875 54.1406,10 L53.2031,10 C53.224,9.80208 53.2344,9.40104 53.2344,8.79688 L53.2344,2.03125 L54.2031,2.03125 L54.2031,4.29688 C54.2031,4.53646 54.1979,4.8125 54.1875,5.125 L54.2031,5.125 C54.3906,4.75 54.6302,4.48177 54.9219,4.32031 C55.2135,4.15885 55.5781,4.07813 56.0156,4.07813 C56.7552,4.07813 57.2969,4.32552 57.6406,4.82031 C57.9844,5.3151 58.1563,6.0625 58.1563,7.0625 M57.1406,7.09375 C57.1406,6.28125 57.0339,5.70052 56.8203,5.35156 C56.6068,5.0026 56.2552,4.82813 55.7656,4.82813 C55.224,4.82813 54.8281,5.01302 54.5781,5.38281 C54.3281,5.7526 54.2031,6.34375 54.2031,7.15625 C54.2031,7.91667 54.3255,8.47917 54.5703,8.84375 C54.8151,9.20833 55.2135,9.39063 55.7656,9.39063 C56.2448,9.39063 56.5938,9.21094 56.8125,8.85156 C57.0313,8.49219 57.1406,7.90625 57.1406,7.09375 "/>
</g>

<g fill="none" stroke="#000000" stroke-opacity="1" stroke-width="1" stroke-linecap="square" stroke-linejoin="bevel" transform="matrix(1.99919,0,0,1.99919,395.212,72.9706)"
font-family="sans" font-size="11" font-weight="100" font-style="normal" 
>
</g>

<g fill="none" stroke="#000000" stroke-opacity="1" stroke-width="1" stroke-linecap="square" stroke-linejoin="bevel" transform="matrix(1.99919,0,0,1.99919,395.212,72.9706)"
font-family="Open Sans" font-size="9" font-weight="400" font-style="normal" 
>
</g>

<g fill="none" stroke="#000000" stroke-opacity="1" stroke-width="1" stroke-linecap="square" stroke-linejoin="bevel" transform="matrix(1.99919,0,0,1.99919,0.000799678,244.901)"
font-family="Open Sans" font-size="9" font-weight="400" font-style="normal" 
>
</g>

<g fill="none" stroke="#000000" stroke-opacity="1" stroke-width="1" stroke-linecap="square" stroke-linejoin="bevel" transform="matrix(1.99919,0,0,1.99919,0.000799678,244.901)"
font-family="Open Sans" font-size="9" font-weight="400" font-style="normal" 
>
</g>

<g fill="none" stroke="#000000" stroke-opacity="1" stroke-width="1" stroke-linecap="square" stroke-linejoin="bevel" transform="matrix(1.99919,0,0,1.99919,0.000799678,244.901)"
font-family="Open Sans" font-size="9" font-weight="400" font-style="normal" 
>
</g>

<g fill="none" stroke="#000000" stroke-opacity="1" stroke-width="1" stroke-linecap="square" stroke-linejoin="round" transform="matrix(1.99919,0,0,1.99919,0.000799678,244.901)"
font-family="Open Sans" font-size="9" font-weight="400" font-style="normal" 
>
<rect x="154.489" y="-59.5" width="145.002" height="35"/>
</g>

<g fill="none" stroke="#000000" stroke-opacity="1" stroke-width="1" stroke-linecap="square" stroke-linejoin="bevel" transform="matrix(1.99919,0,0,1.99919,0.000799678,244.901)"
font-family="Open Sans" font-size="9" font-weight="400" font-style="normal" 
>
</g>

<g fill="none" stroke="#000000" stroke-opacity="1" stroke-width="1" stroke-linecap="square" stroke-linejoin="bevel" transform="matrix(1.99919,0,0,1.99919,338.454,147.94)"
font-family="Open Sans" font-size="9" font-weight="400" font-style="normal" 
>
</g>

<g fill="none" stroke="#000000" stroke-opacity="1" stroke-width="1" stroke-linecap="square" stroke-linejoin="bevel" transform="matrix(1.99919,0,0,1.99919,338.454,147.94)"
font-family="sans" font-size="11" font-weight="100" font-style="normal" 
>
</g>

<g fill="#000000" fill-opacity="1" stroke="#000000" stroke-opacity="1" stroke-width="1" stroke-linecap="square" stroke-linejoin="round" transform="matrix(1.99919,0,0,1.99919,338.454,147.94)"
font-family="sans" font-size="11" font-weight="100" font-style="normal" 
>
<path vector-effect="none" fill-rule="nonzero" d="M0,10.1094 L2.20313,2.03125 L3.0625,2.03125 L0.875,10.1094 L0,10.1094 M4.53125,7.0625 C4.53125,7.84375 4.65104,8.41927 4.89063,8.78906 C5.13021,9.15885 5.49479,9.34375 5.98438,9.34375 C6.32813,9.34375 6.61719,9.25 6.85156,9.0625 C7.08594,8.875 7.22917,8.58854 7.28125,8.20313 L8.25,8.26563 C8.17708,8.82813 7.9401,9.27604 7.53906,9.60938 C7.13802,9.94271 6.63021,10.1094 6.01563,10.1094 C5.20313,10.1094 4.58333,9.85156 4.15625,9.33594 C3.72917,8.82031 3.51563,8.07292 3.51563,7.09375 C3.51563,6.11458 3.72917,5.36719 4.15625,4.85156 C4.58333,4.33594 5.19792,4.07813 6,4.07813 C6.59375,4.07813 7.08854,4.23177 7.48438,4.53906 C7.88021,4.84635 8.125,5.27083 8.21875,5.8125 L7.23438,5.89063 C7.18229,5.56771 7.05469,5.3125 6.85156,5.125 C6.64844,4.9375 6.35938,4.84375 5.98438,4.84375 C5.47396,4.84375 5.10417,5.01302 4.875,5.35156 C4.64583,5.6901 4.53125,6.26042 4.53125,7.0625 M10.7656,10.1094 C10.1823,10.1094 9.74479,9.95573 9.45313,9.64844 C9.16146,9.34115 9.01563,8.91667 9.01563,8.375 C9.01563,7.77083 9.21354,7.3099 9.60938,6.99219 C10.0052,6.67448 10.6406,6.5 11.5156,6.46875 L12.8281,6.45313 L12.8281,6.14063 C12.8281,5.66146 12.7266,5.32031 12.5234,5.11719 C12.3203,4.91406 12.0052,4.8125 11.5781,4.8125 C11.151,4.8125 10.8385,4.88542 10.6406,5.03125 C10.4427,5.17708 10.3229,5.41146 10.2813,5.73438 L9.26563,5.65625 C9.43229,4.60417 10.2135,4.07813 11.6094,4.07813 C12.3385,4.07813 12.888,4.24479 13.2578,4.57813 C13.6276,4.91146 13.8125,5.39583 13.8125,6.03125 L13.8125,8.53125 C13.8125,8.82292 13.849,9.04167 13.9219,9.1875 C13.9948,9.33333 14.1354,9.40625 14.3438,9.40625 C14.4375,9.40625 14.5469,9.39063 14.6719,9.35938 L14.6719,9.96875 C14.4219,10.0208 14.1719,10.0469 13.9219,10.0469 C13.5573,10.0469 13.2943,9.95313 13.1328,9.76563 C12.9714,9.57813 12.8802,9.28646 12.8594,8.89063 L12.8281,8.89063 C12.5781,9.32813 12.2891,9.64063 11.9609,9.82813 C11.6328,10.0156 11.2344,10.1094 10.7656,10.1094 M10.9844,9.375 C11.3385,9.375 11.6536,9.29688 11.9297,9.14063 C12.2057,8.98438 12.4245,8.76563 12.5859,8.48438 C12.7474,8.20313 12.8281,7.91146 12.8281,7.60938 L12.8281,7.125 L11.7656,7.15625 C11.3177,7.15625 10.9766,7.20052 10.7422,7.28906 C10.5078,7.3776 10.3281,7.51042 10.2031,7.6875 C10.0781,7.86458 10.0156,8.09896 10.0156,8.39063 C10.0156,8.70313 10.099,8.94531 10.2656,9.11719 C10.4323,9.28906 10.6719,9.375 10.9844,9.375 M18.7813,10 L18.7813,6.3125 C18.7813,5.75 18.7031,5.36198 18.5469,5.14844 C18.3906,4.9349 18.1146,4.82813 17.7188,4.82813 C17.3021,4.82813 16.974,4.98438 16.7344,5.29688 C16.4948,5.60938 16.375,6.05208 16.375,6.625 L16.375,10 L15.4219,10 L15.4219,5.42188 C15.4219,4.74479 15.4115,4.33333 15.3906,4.1875 L16.2969,4.1875 C16.3073,4.20833 16.3125,4.25781 16.3125,4.33594 C16.3125,4.41406 16.3151,4.5026 16.3203,4.60156 C16.3255,4.70052 16.3333,4.89583 16.3438,5.1875 L16.3594,5.1875 C16.5677,4.77083 16.8047,4.48177 17.0703,4.32031 C17.3359,4.15885 17.6667,4.07813 18.0625,4.07813 C18.5,4.07813 18.8464,4.16667 19.1016,4.34375 C19.3568,4.52083 19.5365,4.80208 19.6406,5.1875 L19.6563,5.1875 C19.8542,4.79167 20.0964,4.50781 20.3828,4.33594 C20.6693,4.16406 21.0104,4.07813 21.4063,4.07813 C22,4.07813 22.4297,4.23698 22.6953,4.55469 C22.9609,4.8724 23.0938,5.39583 23.0938,6.125 L23.0938,10 L22.1406,10 L22.1406,6.3125 C22.1406,5.75 22.0625,5.36198 21.9063,5.14844 C21.75,4.9349 21.474,4.82813 21.0781,4.82813 C20.651,4.82813 20.3203,4.98438 20.0859,5.29688 C19.8516,5.60938 19.7344,6.05208 19.7344,6.625 L19.7344,10 L18.7813,10 M25.2969,7.29688 C25.2969,7.96354 25.4349,8.47656 25.7109,8.83594 C25.987,9.19531 26.3906,9.375 26.9219,9.375 C27.3385,9.375 27.6719,9.29167 27.9219,9.125 C28.1719,8.95833 28.3438,8.74479 28.4375,8.48438 L29.2813,8.73438 C28.9375,9.65104 28.151,10.1094 26.9219,10.1094 C26.0573,10.1094 25.401,9.85417 24.9531,9.34375 C24.5052,8.83333 24.2813,8.07292 24.2813,7.0625 C24.2813,6.09375 24.5052,5.35417 24.9531,4.84375 C25.401,4.33333 26.0417,4.07813 26.875,4.07813 C28.5833,4.07813 29.4375,5.10938 29.4375,7.17188 L29.4375,7.29688 L25.2969,7.29688 M28.4375,6.5625 C28.3854,5.94792 28.2318,5.5 27.9766,5.21875 C27.7214,4.9375 27.349,4.79688 26.8594,4.79688 C26.3906,4.79688 26.0208,4.95313 25.75,5.26563 C25.4792,5.57813 25.3333,6.01042 25.3125,6.5625 L28.4375,6.5625 M30.6875,10 L30.6875,5.54688 C30.6875,5.13021 30.6771,4.67708 30.6563,4.1875 L31.5625,4.1875 C31.5938,4.84375 31.6094,5.23958 31.6094,5.375 L31.625,5.375 C31.7813,4.875 31.9609,4.53385 32.1641,4.35156 C32.3672,4.16927 32.651,4.07813 33.0156,4.07813 C33.1406,4.07813 33.2708,4.09896 33.4063,4.14063 L33.4063,5.01563 C33.2708,4.98438 33.099,4.96875 32.8906,4.96875 C32.4844,4.96875 32.1771,5.14063 31.9688,5.48438 C31.7604,5.82813 31.6563,6.32292 31.6563,6.96875 L31.6563,10 L30.6875,10 M35.7969,10.1094 C35.2135,10.1094 34.776,9.95573 34.4844,9.64844 C34.1927,9.34115 34.0469,8.91667 34.0469,8.375 C34.0469,7.77083 34.2448,7.3099 34.6406,6.99219 C35.0365,6.67448 35.6719,6.5 36.5469,6.46875 L37.8594,6.45313 L37.8594,6.14063 C37.8594,5.66146 37.7578,5.32031 37.5547,5.11719 C37.3516,4.91406 37.0365,4.8125 36.6094,4.8125 C36.1823,4.8125 35.8698,4.88542 35.6719,5.03125 C35.474,5.17708 35.3542,5.41146 35.3125,5.73438 L34.2969,5.65625 C34.4635,4.60417 35.2448,4.07813 36.6406,4.07813 C37.3698,4.07813 37.9193,4.24479 38.2891,4.57813 C38.6589,4.91146 38.8438,5.39583 38.8438,6.03125 L38.8438,8.53125 C38.8438,8.82292 38.8802,9.04167 38.9531,9.1875 C39.026,9.33333 39.1667,9.40625 39.375,9.40625 C39.4688,9.40625 39.5781,9.39063 39.7031,9.35938 L39.7031,9.96875 C39.4531,10.0208 39.2031,10.0469 38.9531,10.0469 C38.5885,10.0469 38.3255,9.95313 38.1641,9.76563 C38.0026,9.57813 37.9115,9.28646 37.8906,8.89063 L37.8594,8.89063 C37.6094,9.32813 37.3203,9.64063 36.9922,9.82813 C36.6641,10.0156 36.2656,10.1094 35.7969,10.1094 M36.0156,9.375 C36.3698,9.375 36.6849,9.29688 36.9609,9.14063 C37.237,8.98438 37.4557,8.76563 37.6172,8.48438 C37.7786,8.20313 37.8594,7.91146 37.8594,7.60938 L37.8594,7.125 L36.7969,7.15625 C36.349,7.15625 36.0078,7.20052 35.7734,7.28906 C35.5391,7.3776 35.3594,7.51042 35.2344,7.6875 C35.1094,7.86458 35.0469,8.09896 35.0469,8.39063 C35.0469,8.70313 35.1302,8.94531 35.2969,9.11719 C35.4635,9.28906 35.7031,9.375 36.0156,9.375 M39.6875,10.1094 L41.8906,2.03125 L42.75,2.03125 L40.5625,10.1094 L39.6875,10.1094 M43.5,10 L43.5,5.54688 C43.5,5.13021 43.4896,4.67708 43.4688,4.1875 L44.375,4.1875 C44.4063,4.84375 44.4219,5.23958 44.4219,5.375 L44.4375,5.375 C44.5938,4.875 44.7734,4.53385 44.9766,4.35156 C45.1797,4.16927 45.4635,4.07813 45.8281,4.07813 C45.9531,4.07813 46.0833,4.09896 46.2188,4.14063 L46.2188,5.01563 C46.0833,4.98438 45.9115,4.96875 45.7031,4.96875 C45.2969,4.96875 44.9896,5.14063 44.7813,5.48438 C44.5729,5.82813 44.4688,6.32292 44.4688,6.96875 L44.4688,10 L43.5,10 M49.3281,12.2813 C48.7031,12.2813 48.2005,12.1563 47.8203,11.9063 C47.4401,11.6563 47.1979,11.3021 47.0938,10.8438 L48.0625,10.7031 C48.125,10.974 48.2682,11.1823 48.4922,11.3281 C48.7161,11.474 49.0052,11.5469 49.3594,11.5469 C50.3281,11.5469 50.8125,10.9844 50.8125,9.85938 L50.8125,8.92188 L50.7969,8.92188 C50.6094,9.29688 50.3568,9.57813 50.0391,9.76563 C49.7214,9.95313 49.349,10.0469 48.9219,10.0469 C48.2135,10.0469 47.6927,9.8099 47.3594,9.33594 C47.026,8.86198 46.8594,8.11979 46.8594,7.10938 C46.8594,6.07813 47.0391,5.31771 47.3984,4.82813 C47.7578,4.33854 48.3021,4.09375 49.0313,4.09375 C49.4479,4.09375 49.8073,4.1875 50.1094,4.375 C50.4115,4.5625 50.6458,4.83333 50.8125,5.1875 C50.8125,5.07292 50.8203,4.88281 50.8359,4.61719 C50.8516,4.35156 50.8646,4.20833 50.875,4.1875 L51.7969,4.1875 C51.776,4.38542 51.7656,4.78646 51.7656,5.39063 L51.7656,9.82813 C51.7656,11.4635 50.9531,12.2813 49.3281,12.2813 M50.8125,7.09375 C50.8125,6.625 50.7474,6.21875 50.6172,5.875 C50.487,5.53125 50.3047,5.26823 50.0703,5.08594 C49.8359,4.90365 49.5677,4.8125 49.2656,4.8125 C48.776,4.8125 48.4193,4.99219 48.1953,5.35156 C47.9714,5.71094 47.8594,6.29167 47.8594,7.09375 C47.8594,7.88542 47.9635,8.45573 48.1719,8.80469 C48.3802,9.15365 48.7396,9.32813 49.25,9.32813 C49.5521,9.32813 49.8229,9.23958 50.0625,9.0625 C50.3021,8.88542 50.487,8.6276 50.6172,8.28906 C50.7474,7.95052 50.8125,7.55208 50.8125,7.09375 M58.1563,7.0625 C58.1563,9.09375 57.4427,10.1094 56.0156,10.1094 C55.5781,10.1094 55.2135,10.0286 54.9219,9.86719 C54.6302,9.70573 54.3906,9.44792 54.2031,9.09375 C54.2031,9.20833 54.1953,9.38021 54.1797,9.60938 C54.1641,9.83854 54.151,9.96875 54.1406,10 L53.2031,10 C53.224,9.80208 53.2344,9.40104 53.2344,8.79688 L53.2344,2.03125 L54.2031,2.03125 L54.2031,4.29688 C54.2031,4.53646 54.1979,4.8125 54.1875,5.125 L54.2031,5.125 C54.3906,4.75 54.6302,4.48177 54.9219,4.32031 C55.2135,4.15885 55.5781,4.07813 56.0156,4.07813 C56.7552,4.07813 57.2969,4.32552 57.6406,4.82031 C57.9844,5.3151 58.1563,6.0625 58.1563,7.0625 M57.1406,7.09375 C57.1406,6.28125 57.0339,5.70052 56.8203,5.35156 C56.6068,5.0026 56.2552,4.82813 55.7656,4.82813 C55.224,4.82813 54.8281,5.01302 54.5781,5.38281 C54.3281,5.7526 54.2031,6.34375 54.2031,7.15625 C54.2031,7.91667 54.3255,8.47917 54.5703,8.84375 C54.8151,9.20833 55.2135,9.39063 55.7656,9.39063 C56.2448,9.39063 56.5938,9.21094 56.8125,8.85156 C57.0313,8.49219 57.1406,7.90625 57.1406,7.09375 M58.6094,10.1094 L60.8125,2.03125 L61.6719,2.03125 L59.4844,10.1094 L58.6094,10.1094 M62.3906,2.95313 L62.3906,2.03125 L63.3594,2.03125 L63.3594,2.95313 L62.3906,2.95313 M62.3906,10 L62.3906,4.1875 L63.3594,4.1875 L63.3594,10 L62.3906,10 M68.2188,10 L68.2188,6.3125 C68.2188,5.75 68.1406,5.36198 67.9844,5.14844 C67.8281,4.9349 67.5521,4.82813 67.1563,4.82813 C66.7396,4.82813 66.4115,4.98438 66.1719,5.29688 C65.9323,5.60938 65.8125,6.05208 65.8125,6.625 L65.8125,10 L64.8594,10 L64.8594,5.42188 C64.8594,4.74479 64.849,4.33333 64.8281,4.1875 L65.7344,4.1875 C65.7448,4.20833 65.75,4.25781 65.75,4.33594 C65.75,4.41406 65.7526,4.5026 65.7578,4.60156 C65.763,4.70052 65.7708,4.89583 65.7813,5.1875 L65.7969,5.1875 C66.0052,4.77083 66.2422,4.48177 66.5078,4.32031 C66.7734,4.15885 67.1042,4.07813 67.5,4.07813 C67.9375,4.07813 68.2839,4.16667 68.5391,4.34375 C68.7943,4.52083 68.974,4.80208 69.0781,5.1875 L69.0938,5.1875 C69.2917,4.79167 69.5339,4.50781 69.8203,4.33594 C70.1068,4.16406 70.4479,4.07813 70.8438,4.07813 C71.4375,4.07813 71.8672,4.23698 72.1328,4.55469 C72.3984,4.8724 72.5313,5.39583 72.5313,6.125 L72.5313,10 L71.5781,10 L71.5781,6.3125 C71.5781,5.75 71.5,5.36198 71.3438,5.14844 C71.1875,4.9349 70.9115,4.82813 70.5156,4.82813 C70.0885,4.82813 69.7578,4.98438 69.5234,5.29688 C69.2891,5.60938 69.1719,6.05208 69.1719,6.625 L69.1719,10 L68.2188,10 M75.4688,10.1094 C74.8854,10.1094 74.4479,9.95573 74.1563,9.64844 C73.8646,9.34115 73.7188,8.91667 73.7188,8.375 C73.7188,7.77083 73.9167,7.3099 74.3125,6.99219 C74.7083,6.67448 75.3438,6.5 76.2188,6.46875 L77.5313,6.45313 L77.5313,6.14063 C77.5313,5.66146 77.4297,5.32031 77.2266,5.11719 C77.0234,4.91406 76.7083,4.8125 76.2813,4.8125 C75.8542,4.8125 75.5417,4.88542 75.3438,5.03125 C75.1458,5.17708 75.026,5.41146 74.9844,5.73438 L73.9688,5.65625 C74.1354,4.60417 74.9167,4.07813 76.3125,4.07813 C77.0417,4.07813 77.5911,4.24479 77.9609,4.57813 C78.3307,4.91146 78.5156,5.39583 78.5156,6.03125 L78.5156,8.53125 C78.5156,8.82292 78.5521,9.04167 78.625,9.1875 C78.6979,9.33333 78.8385,9.40625 79.0469,9.40625 C79.1406,9.40625 79.25,9.39063 79.375,9.35938 L79.375,9.96875 C79.125,10.0208 78.875,10.0469 78.625,10.0469 C78.2604,10.0469 77.9974,9.95313 77.8359,9.76563 C77.6745,9.57813 77.5833,9.28646 77.5625,8.89063 L77.5313,8.89063 C77.2813,9.32813 76.9922,9.64063 76.6641,9.82813 C76.3359,10.0156 75.9375,10.1094 75.4688,10.1094 M75.6875,9.375 C76.0417,9.375 76.3568,9.29688 76.6328,9.14063 C76.9089,8.98438 77.1276,8.76563 77.2891,8.48438 C77.4505,8.20313 77.5313,7.91146 77.5313,7.60938 L77.5313,7.125 L76.4688,7.15625 C76.0208,7.15625 75.6797,7.20052 75.4453,7.28906 C75.2109,7.3776 75.0313,7.51042 74.9063,7.6875 C74.7813,7.86458 74.7188,8.09896 74.7188,8.39063 C74.7188,8.70313 74.8021,8.94531 74.9688,9.11719 C75.1354,9.28906 75.375,9.375 75.6875,9.375 M82.2969,12.2813 C81.6719,12.2813 81.1693,12.1563 80.7891,11.9063 C80.4089,11.6563 80.1667,11.3021 80.0625,10.8438 L81.0313,10.7031 C81.0938,10.974 81.237,11.1823 81.4609,11.3281 C81.6849,11.474 81.974,11.5469 82.3281,11.5469 C83.2969,11.5469 83.7813,10.9844 83.7813,9.85938 L83.7813,8.92188 L83.7656,8.92188 C83.5781,9.29688 83.3255,9.57813 83.0078,9.76563 C82.6901,9.95313 82.3177,10.0469 81.8906,10.0469 C81.1823,10.0469 80.6615,9.8099 80.3281,9.33594 C79.9948,8.86198 79.8281,8.11979 79.8281,7.10938 C79.8281,6.07813 80.0078,5.31771 80.3672,4.82813 C80.7266,4.33854 81.2708,4.09375 82,4.09375 C82.4167,4.09375 82.776,4.1875 83.0781,4.375 C83.3802,4.5625 83.6146,4.83333 83.7813,5.1875 C83.7813,5.07292 83.7891,4.88281 83.8047,4.61719 C83.8203,4.35156 83.8333,4.20833 83.8438,4.1875 L84.7656,4.1875 C84.7448,4.38542 84.7344,4.78646 84.7344,5.39063 L84.7344,9.82813 C84.7344,11.4635 83.9219,12.2813 82.2969,12.2813 M83.7813,7.09375 C83.7813,6.625 83.7161,6.21875 83.5859,5.875 C83.4557,5.53125 83.2734,5.26823 83.0391,5.08594 C82.8047,4.90365 82.5365,4.8125 82.2344,4.8125 C81.7448,4.8125 81.388,4.99219 81.1641,5.35156 C80.9401,5.71094 80.8281,6.29167 80.8281,7.09375 C80.8281,7.88542 80.9323,8.45573 81.1406,8.80469 C81.349,9.15365 81.7083,9.32813 82.2188,9.32813 C82.5208,9.32813 82.7917,9.23958 83.0313,9.0625 C83.2708,8.88542 83.4557,8.6276 83.5859,8.28906 C83.7161,7.95052 83.7813,7.55208 83.7813,7.09375 M86.9531,7.29688 C86.9531,7.96354 87.0911,8.47656 87.3672,8.83594 C87.6432,9.19531 88.0469,9.375 88.5781,9.375 C88.9948,9.375 89.3281,9.29167 89.5781,9.125 C89.8281,8.95833 90,8.74479 90.0938,8.48438 L90.9375,8.73438 C90.5938,9.65104 89.8073,10.1094 88.5781,10.1094 C87.7135,10.1094 87.0573,9.85417 86.6094,9.34375 C86.1615,8.83333 85.9375,8.07292 85.9375,7.0625 C85.9375,6.09375 86.1615,5.35417 86.6094,4.84375 C87.0573,4.33333 87.6979,4.07813 88.5313,4.07813 C90.2396,4.07813 91.0938,5.10938 91.0938,7.17188 L91.0938,7.29688 L86.9531,7.29688 M90.0938,6.5625 C90.0417,5.94792 89.888,5.5 89.6328,5.21875 C89.3776,4.9375 89.0052,4.79688 88.5156,4.79688 C88.0469,4.79688 87.6771,4.95313 87.4063,5.26563 C87.1354,5.57813 86.9896,6.01042 86.9688,6.5625 L90.0938,6.5625 M91.4063,12.1875 L91.4063,11.4844 L97.8125,11.4844 L97.8125,12.1875 L91.4063,12.1875 M98.4531,10 L98.4531,5.54688 C98.4531,5.13021 98.4427,4.67708 98.4219,4.1875 L99.3281,4.1875 C99.3594,4.84375 99.375,5.23958 99.375,5.375 L99.3906,5.375 C99.5469,4.875 99.7266,4.53385 99.9297,4.35156 C100.133,4.16927 100.417,4.07813 100.781,4.07813 C100.906,4.07813 101.036,4.09896 101.172,4.14063 L101.172,5.01563 C101.036,4.98438 100.865,4.96875 100.656,4.96875 C100.25,4.96875 99.9427,5.14063 99.7344,5.48438 C99.526,5.82813 99.4219,6.32292 99.4219,6.96875 L99.4219,10 L98.4531,10 M103.563,10.1094 C102.979,10.1094 102.542,9.95573 102.25,9.64844 C101.958,9.34115 101.813,8.91667 101.813,8.375 C101.813,7.77083 102.01,7.3099 102.406,6.99219 C102.802,6.67448 103.438,6.5 104.313,6.46875 L105.625,6.45313 L105.625,6.14063 C105.625,5.66146 105.523,5.32031 105.32,5.11719 C105.117,4.91406 104.802,4.8125 104.375,4.8125 C103.948,4.8125 103.635,4.88542 103.438,5.03125 C103.24,5.17708 103.12,5.41146 103.078,5.73438 L102.063,5.65625 C102.229,4.60417 103.01,4.07813 104.406,4.07813 C105.135,4.07813 105.685,4.24479 106.055,4.57813 C106.424,4.91146 106.609,5.39583 106.609,6.03125 L106.609,8.53125 C106.609,8.82292 106.646,9.04167 106.719,9.1875 C106.792,9.33333 106.932,9.40625 107.141,9.40625 C107.234,9.40625 107.344,9.39063 107.469,9.35938 L107.469,9.96875 C107.219,10.0208 106.969,10.0469 106.719,10.0469 C106.354,10.0469 106.091,9.95313 105.93,9.76563 C105.768,9.57813 105.677,9.28646 105.656,8.89063 L105.625,8.89063 C105.375,9.32813 105.086,9.64063 104.758,9.82813 C104.43,10.0156 104.031,10.1094 103.563,10.1094 M103.781,9.375 C104.135,9.375 104.451,9.29688 104.727,9.14063 C105.003,8.98438 105.221,8.76563 105.383,8.48438 C105.544,8.20313 105.625,7.91146 105.625,7.60938 L105.625,7.125 L104.563,7.15625 C104.115,7.15625 103.773,7.20052 103.539,7.28906 C103.305,7.3776 103.125,7.51042 103,7.6875 C102.875,7.86458 102.813,8.09896 102.813,8.39063 C102.813,8.70313 102.896,8.94531 103.063,9.11719 C103.229,9.28906 103.469,9.375 103.781,9.375 M113.766,10 L112.641,10 L111.625,5.89063 L111.422,4.98438 C111.391,5.14063 111.341,5.36979 111.273,5.67188 C111.206,5.97396 110.844,7.41667 110.188,10 L109.063,10 L107.438,4.1875 L108.391,4.1875 L109.375,8.14063 C109.396,8.22396 109.474,8.57813 109.609,9.20313 L109.703,8.79688 L110.906,4.1875 L111.953,4.1875 L112.969,8.17188 L113.219,9.20313 L113.375,8.45313 L114.484,4.1875 L115.422,4.1875 L113.766,10"/>
</g>

<g fill="none" stroke="#000000" stroke-opacity="1" stroke-width="1" stroke-linecap="square" stroke-linejoin="bevel" transform="matrix(1.99919,0,0,1.99919,338.454,147.94)"
font-family="sans" font-size="11" font-weight="100" font-style="normal" 
>
</g>

<g fill="none" stroke="#000000" stroke-opacity="1" stroke-width="1" stroke-linecap="square" stroke-linejoin="bevel" transform="matrix(1.99919,0,0,1.99919,338.454,147.94)"
font-family="Open Sans" font-size="9" font-weight="400" font-style="normal" 
>
</g>

<g fill="none" stroke="#000000" stroke-opacity="1" stroke-width="1" stroke-linecap="square" stroke-linejoin="bevel" transform="matrix(1.99919,0,0,1.99919,0.000799678,244.901)"
font-family="Open Sans" font-size="9" font-weight="400" font-style="normal" 
>
</g>

<g fill="none" stroke="#000000" stroke-opacity="1" stroke-width="1" stroke-linecap="square" stroke-linejoin="bevel" transform="matrix(1.99919,0,0,1.99919,0.000799678,244.901)"
font-family="Open Sans" font-size="9" font-weight="400" font-style="normal" 
>
</g>

<g fill="none" stroke="#000000" stroke-opacity="1" stroke-width="1" stroke-linecap="square" stroke-linejoin="bevel" transform="matrix(1.99919,0,0,1.99919,0.000799678,244.901)"
font-family="Open Sans" font-size="9" font-weight="400" font-style="normal" 
>
</g>

<g fill="none" stroke="#000000" stroke-opacity="1" stroke-width="1" stroke-linecap="square" stroke-linejoin="round" transform="matrix(1.99919,0,0,1.99919,0.000799678,244.901)"
font-family="Open Sans" font-size="9" font-weight="400" font-style="normal" 
>
<rect x="154.489" y="-59.5" width="145.002" height="35"/>
</g>

<g fill="none" stroke="#000000" stroke-opacity="1" stroke-width="1" stroke-linecap="square" stroke-linejoin="bevel" transform="matrix(1.99919,0,0,1.99919,0.000799678,244.901)"
font-family="Open Sans" font-size="9" font-weight="400" font-style="normal" 
>
</g>

<g fill="none" stroke="#000000" stroke-opacity="1" stroke-width="1" stroke-linecap="square" stroke-linejoin="bevel" transform="matrix(1.99919,0,0,1.99919,338.454,147.94)"
font-family="Open Sans" font-size="9" font-weight="400" font-style="normal" 
>
</g>

<g fill="none" stroke="#000000" stroke-opacity="1" stroke-width="1" stroke-linecap="square" stroke-linejoin="bevel" transform="matrix(1.99919,0,0,1.99919,338.454,147.94)"
font-family="sans" font-size="11" font-weight="100" font-style="normal" 
>
</g>

<g fill="#000000" fill-opacity="1" stroke="#000000" stroke-opacity="1" stroke-width="1" stroke-linecap="square" stroke-linejoin="round" transform="matrix(1.99919,0,0,1.99919,338.454,147.94)"
font-family="sans" font-size="11" font-weight="100" font-style="normal" 
>
<path vector-effect="none" fill-rule="nonzero" d="M0,10.1094 L2.20313,2.03125 L3.0625,2.03125 L0.875,10.1094 L0,10.1094 M4.53125,7.0625 C4.53125,7.84375 4.65104,8.41927 4.89063,8.78906 C5.13021,9.15885 5.49479,9.34375 5.98438,9.34375 C6.32813,9.34375 6.61719,9.25 6.85156,9.0625 C7.08594,8.875 7.22917,8.58854 7.28125,8.20313 L8.25,8.26563 C8.17708,8.82813 7.9401,9.27604 7.53906,9.60938 C7.13802,9.94271 6.63021,10.1094 6.01563,10.1094 C5.20313,10.1094 4.58333,9.85156 4.15625,9.33594 C3.72917,8.82031 3.51563,8.07292 3.51563,7.09375 C3.51563,6.11458 3.72917,5.36719 4.15625,4.85156 C4.58333,4.33594 5.19792,4.07813 6,4.07813 C6.59375,4.07813 7.08854,4.23177 7.48438,4.53906 C7.88021,4.84635 8.125,5.27083 8.21875,5.8125 L7.23438,5.89063 C7.18229,5.56771 7.05469,5.3125 6.85156,5.125 C6.64844,4.9375 6.35938,4.84375 5.98438,4.84375 C5.47396,4.84375 5.10417,5.01302 4.875,5.35156 C4.64583,5.6901 4.53125,6.26042 4.53125,7.0625 M10.7656,10.1094 C10.1823,10.1094 9.74479,9.95573 9.45313,9.64844 C9.16146,9.34115 9.01563,8.91667 9.01563,8.375 C9.01563,7.77083 9.21354,7.3099 9.60938,6.99219 C10.0052,6.67448 10.6406,6.5 11.5156,6.46875 L12.8281,6.45313 L12.8281,6.14063 C12.8281,5.66146 12.7266,5.32031 12.5234,5.11719 C12.3203,4.91406 12.0052,4.8125 11.5781,4.8125 C11.151,4.8125 10.8385,4.88542 10.6406,5.03125 C10.4427,5.17708 10.3229,5.41146 10.2813,5.73438 L9.26563,5.65625 C9.43229,4.60417 10.2135,4.07813 11.6094,4.07813 C12.3385,4.07813 12.888,4.24479 13.2578,4.57813 C13.6276,4.91146 13.8125,5.39583 13.8125,6.03125 L13.8125,8.53125 C13.8125,8.82292 13.849,9.04167 13.9219,9.1875 C13.9948,9.33333 14.1354,9.40625 14.3438,9.40625 C14.4375,9.40625 14.5469,9.39063 14.6719,9.35938 L14.6719,9.96875 C14.4219,10.0208 14.1719,10.0469 13.9219,10.0469 C13.5573,10.0469 13.2943,9.95313 13.1328,9.76563 C12.9714,9.57813 12.8802,9.28646 12.8594,8.89063 L12.8281,8.89063 C12.5781,9.32813 12.2891,9.64063 11.9609,9.82813 C11.6328,10.0156 11.2344,10.1094 10.7656,10.1094 M10.9844,9.375 C11.3385,9.375 11.6536,9.29688 11.9297,9.14063 C12.2057,8.98438 12.4245,8.76563 12.5859,8.48438 C12.7474,8.20313 12.8281,7.91146 12.8281,7.60938 L12.8281,7.125 L11.7656,7.15625 C11.3177,7.15625 10.9766,7.20052 10.7422,7.28906 C10.5078,7.3776 10.3281,7.51042 10.2031,7.6875 C10.0781,7.86458 10.0156,8.09896 10.0156,8.39063 C10.0156,8.70313 10.099,8.94531 10.2656,9.11719 C10.4323,9.28906 10.6719,9.375 10.9844,9.375 M18.7813,10 L18.7813,6.3125 C18.7813,5.75 18.7031,5.36198 18.5469,5.14844 C18.3906,4.9349 18.1146,4.82813 17.7188,4.82813 C17.3021,4.82813 16.974,4.98438 16.7344,5.29688 C16.4948,5.60938 16.375,6.05208 16.375,6.625 L16.375,10 L15.4219,10 L15.4219,5.42188 C15.4219,4.74479 15.4115,4.33333 15.3906,4.1875 L16.2969,4.1875 C16.3073,4.20833 16.3125,4.25781 16.3125,4.33594 C16.3125,4.41406 16.3151,4.5026 16.3203,4.60156 C16.3255,4.70052 16.3333,4.89583 16.3438,5.1875 L16.3594,5.1875 C16.5677,4.77083 16.8047,4.48177 17.0703,4.32031 C17.3359,4.15885 17.6667,4.07813 18.0625,4.07813 C18.5,4.07813 18.8464,4.16667 19.1016,4.34375 C19.3568,4.52083 19.5365,4.80208 19.6406,5.1875 L19.6563,5.1875 C19.8542,4.79167 20.0964,4.50781 20.3828,4.33594 C20.6693,4.16406 21.0104,4.07813 21.4063,4.07813 C22,4.07813 22.4297,4.23698 22.6953,4.55469 C22.9609,4.8724 23.0938,5.39583 23.0938,6.125 L23.0938,10 L22.1406,10 L22.1406,6.3125 C22.1406,5.75 22.0625,5.36198 21.9063,5.14844 C21.75,4.9349 21.474,4.82813 21.0781,4.82813 C20.651,4.82813 20.3203,4.98438 20.0859,5.29688 C19.8516,5.60938 19.7344,6.05208 19.7344,6.625 L19.7344,10 L18.7813,10 M25.2969,7.29688 C25.2969,7.96354 25.4349,8.47656 25.7109,8.83594 C25.987,9.19531 26.3906,9.375 26.9219,9.375 C27.3385,9.375 27.6719,9.29167 27.9219,9.125 C28.1719,8.95833 28.3438,8.74479 28.4375,8.48438 L29.2813,8.73438 C28.9375,9.65104 28.151,10.1094 26.9219,10.1094 C26.0573,10.1094 25.401,9.85417 24.9531,9.34375 C24.5052,8.83333 24.2813,8.07292 24.2813,7.0625 C24.2813,6.09375 24.5052,5.35417 24.9531,4.84375 C25.401,4.33333 26.0417,4.07813 26.875,4.07813 C28.5833,4.07813 29.4375,5.10938 29.4375,7.17188 L29.4375,7.29688 L25.2969,7.29688 M28.4375,6.5625 C28.3854,5.94792 28.2318,5.5 27.9766,5.21875 C27.7214,4.9375 27.349,4.79688 26.8594,4.79688 C26.3906,4.79688 26.0208,4.95313 25.75,5.26563 C25.4792,5.57813 25.3333,6.01042 25.3125,6.5625 L28.4375,6.5625 M30.6875,10 L30.6875,5.54688 C30.6875,5.13021 30.6771,4.67708 30.6563,4.1875 L31.5625,4.1875 C31.5938,4.84375 31.6094,5.23958 31.6094,5.375 L31.625,5.375 C31.7813,4.875 31.9609,4.53385 32.1641,4.35156 C32.3672,4.16927 32.651,4.07813 33.0156,4.07813 C33.1406,4.07813 33.2708,4.09896 33.4063,4.14063 L33.4063,5.01563 C33.2708,4.98438 33.099,4.96875 32.8906,4.96875 C32.4844,4.96875 32.1771,5.14063 31.9688,5.48438 C31.7604,5.82813 31.6563,6.32292 31.6563,6.96875 L31.6563,10 L30.6875,10 M35.7969,10.1094 C35.2135,10.1094 34.776,9.95573 34.4844,9.64844 C34.1927,9.34115 34.0469,8.91667 34.0469,8.375 C34.0469,7.77083 34.2448,7.3099 34.6406,6.99219 C35.0365,6.67448 35.6719,6.5 36.5469,6.46875 L37.8594,6.45313 L37.8594,6.14063 C37.8594,5.66146 37.7578,5.32031 37.5547,5.11719 C37.3516,4.91406 37.0365,4.8125 36.6094,4.8125 C36.1823,4.8125 35.8698,4.88542 35.6719,5.03125 C35.474,5.17708 35.3542,5.41146 35.3125,5.73438 L34.2969,5.65625 C34.4635,4.60417 35.2448,4.07813 36.6406,4.07813 C37.3698,4.07813 37.9193,4.24479 38.2891,4.57813 C38.6589,4.91146 38.8438,5.39583 38.8438,6.03125 L38.8438,8.53125 C38.8438,8.82292 38.8802,9.04167 38.9531,9.1875 C39.026,9.33333 39.1667,9.40625 39.375,9.40625 C39.4688,9.40625 39.5781,9.39063 39.7031,9.35938 L39.7031,9.96875 C39.4531,10.0208 39.2031,10.0469 38.9531,10.0469 C38.5885,10.0469 38.3255,9.95313 38.1641,9.76563 C38.0026,9.57813 37.9115,9.28646 37.8906,8.89063 L37.8594,8.89063 C37.6094,9.32813 37.3203,9.64063 36.9922,9.82813 C36.6641,10.0156 36.2656,10.1094 35.7969,10.1094 M36.0156,9.375 C36.3698,9.375 36.6849,9.29688 36.9609,9.14063 C37.237,8.98438 37.4557,8.76563 37.6172,8.48438 C37.7786,8.20313 37.8594,7.91146 37.8594,7.60938 L37.8594,7.125 L36.7969,7.15625 C36.349,7.15625 36.0078,7.20052 35.7734,7.28906 C35.5391,7.3776 35.3594,7.51042 35.2344,7.6875 C35.1094,7.86458 35.0469,8.09896 35.0469,8.39063 C35.0469,8.70313 35.1302,8.94531 35.2969,9.11719 C35.4635,9.28906 35.7031,9.375 36.0156,9.375 M39.6875,10.1094 L41.8906,2.03125 L42.75,2.03125 L40.5625,10.1094 L39.6875,10.1094 M43.5,10 L43.5,5.54688 C43.5,5.13021 43.4896,4.67708 43.4688,4.1875 L44.375,4.1875 C44.4063,4.84375 44.4219,5.23958 44.4219,5.375 L44.4375,5.375 C44.5938,4.875 44.7734,4.53385 44.9766,4.35156 C45.1797,4.16927 45.4635,4.07813 45.8281,4.07813 C45.9531,4.07813 46.0833,4.09896 46.2188,4.14063 L46.2188,5.01563 C46.0833,4.98438 45.9115,4.96875 45.7031,4.96875 C45.2969,4.96875 44.9896,5.14063 44.7813,5.48438 C44.5729,5.82813 44.4688,6.32292 44.4688,6.96875 L44.4688,10 L43.5,10 M49.3281,12.2813 C48.7031,12.2813 48.2005,12.1563 47.8203,11.9063 C47.4401,11.6563 47.1979,11.3021 47.0938,10.8438 L48.0625,10.7031 C48.125,10.974 48.2682,11.1823 48.4922,11.3281 C48.7161,11.474 49.0052,11.5469 49.3594,11.5469 C50.3281,11.5469 50.8125,10.9844 50.8125,9.85938 L50.8125,8.92188 L50.7969,8.92188 C50.6094,9.29688 50.3568,9.57813 50.0391,9.76563 C49.7214,9.95313 49.349,10.0469 48.9219,10.0469 C48.2135,10.0469 47.6927,9.8099 47.3594,9.33594 C47.026,8.86198 46.8594,8.11979 46.8594,7.10938 C46.8594,6.07813 47.0391,5.31771 47.3984,4.82813 C47.7578,4.33854 48.3021,4.09375 49.0313,4.09375 C49.4479,4.09375 49.8073,4.1875 50.1094,4.375 C50.4115,4.5625 50.6458,4.83333 50.8125,5.1875 C50.8125,5.07292 50.8203,4.88281 50.8359,4.61719 C50.8516,4.35156 50.8646,4.20833 50.875,4.1875 L51.7969,4.1875 C51.776,4.38542 51.7656,4.78646 51.7656,5.39063 L51.7656,9.82813 C51.7656,11.4635 50.9531,12.2813 49.3281,12.2813 M50.8125,7.09375 C50.8125,6.625 50.7474,6.21875 50.6172,5.875 C50.487,5.53125 50.3047,5.26823 50.0703,5.08594 C49.8359,4.90365 49.5677,4.8125 49.2656,4.8125 C48.776,4.8125 48.4193,4.99219 48.1953,5.35156 C47.9714,5.71094 47.8594,6.29167 47.8594,7.09375 C47.8594,7.88542 47.9635,8.45573 48.1719,8.80469 C48.3802,9.15365 48.7396,9.32813 49.25,9.32813 C49.5521,9.32813 49.8229,9.23958 50.0625,9.0625 C50.3021,8.88542 50.487,8.6276 50.6172,8.28906 C50.7474,7.95052 50.8125,7.55208 50.8125,7.09375 M58.1563,7.0625 C58.1563,9.09375 57.4427,10.1094 56.0156,10.1094 C55.5781,10.1094 55.2135,10.0286 54.9219,9.86719 C54.6302,9.70573 54.3906,9.44792 54.2031,9.09375 C54.2031,9.20833 54.1953,9.38021 54.1797,9.60938 C54.1641,9.83854 54.151,9.96875 54.1406,10 L53.2031,10 C53.224,9.80208 53.2344,9.40104 53.2344,8.79688 L53.2344,2.03125 L54.2031,2.03125 L54.2031,4.29688 C54.2031,4.53646 54.1979,4.8125 54.1875,5.125 L54.2031,5.125 C54.3906,4.75 54.6302,4.48177 54.9219,4.32031 C55.2135,4.15885 55.5781,4.07813 56.0156,4.07813 C56.7552,4.07813 57.2969,4.32552 57.6406,4.82031 C57.9844,5.3151 58.1563,6.0625 58.1563,7.0625 M57.1406,7.09375 C57.1406,6.28125 57.0339,5.70052 56.8203,5.35156 C56.6068,5.0026 56.2552,4.82813 55.7656,4.82813 C55.224,4.82813 54.8281,5.01302 54.5781,5.38281 C54.3281,5.7526 54.2031,6.34375 54.2031,7.15625 C54.2031,7.91667 54.3255,8.47917 54.5703,8.84375 C54.8151,9.20833 55.2135,9.39063 55.7656,9.39063 C56.2448,9.39063 56.5938,9.21094 56.8125,8.85156 C57.0313,8.49219 57.1406,7.90625 57.1406,7.09375 M58.6094,10.1094 L60.8125,2.03125 L61.6719,2.03125 L59.4844,10.1094 L58.6094,10.1094 M62.3906,2.95313 L62.3906,2.03125 L63.3594,2.03125 L63.3594,2.95313 L62.3906,2.95313 M62.3906,10 L62.3906,4.1875 L63.3594,4.1875 L63.3594,10 L62.3906,10 M68.2188,10 L68.2188,6.3125 C68.2188,5.75 68.1406,5.36198 67.9844,5.14844 C67.8281,4.9349 67.5521,4.82813 67.1563,4.82813 C66.7396,4.82813 66.4115,4.98438 66.1719,5.29688 C65.9323,5.60938 65.8125,6.05208 65.8125,6.625 L65.8125,10 L64.8594,10 L64.8594,5.42188 C64.8594,4.74479 64.849,4.33333 64.8281,4.1875 L65.7344,4.1875 C65.7448,4.20833 65.75,4.25781 65.75,4.33594 C65.75,4.41406 65.7526,4.5026 65.7578,4.60156 C65.763,4.70052 65.7708,4.89583 65.7813,5.1875 L65.7969,5.1875 C66.0052,4.77083 66.2422,4.48177 66.5078,4.32031 C66.7734,4.15885 67.1042,4.07813 67.5,4.07813 C67.9375,4.07813 68.2839,4.16667 68.5391,4.34375 C68.7943,4.52083 68.974,4.80208 69.0781,5.1875 L69.0938,5.1875 C69.2917,4.79167 69.5339,4.50781 69.8203,4.33594 C70.1068,4.16406 70.4479,4.07813 70.8438,4.07813 C71.4375,4.07813 71.8672,4.23698 72.1328,4.55469 C72.3984,4.8724 72.5313,5.39583 72.5313,6.125 L72.5313,10 L71.5781,10 L71.5781,6.3125 C71.5781,5.75 71.5,5.36198 71.3438,5.14844 C71.1875,4.9349 70.9115,4.82813 70.5156,4.82813 C70.0885,4.82813 69.7578,4.98438 69.5234,5.29688 C69.2891,5.60938 69.1719,6.05208 69.1719,6.625 L69.1719,10 L68.2188,10 M75.4688,10.1094 C74.8854,10.1094 74.4479,9.95573 74.1563,9.64844 C73.8646,9.34115 73.7188,8.91667 73.7188,8.375 C73.7188,7.77083 73.9167,7.3099 74.3125,6.99219 C74.7083,6.67448 75.3438,6.5 76.2188,6.46875 L77.5313,6.45313 L77.5313,6.14063 C77.5313,5.66146 77.4297,5.32031 77.2266,5.11719 C77.0234,4.91406 76.7083,4.8125 76.2813,4.8125 C75.8542,4.8125 75.5417,4.88542 75.3438,5.03125 C75.1458,5.17708 75.026,5.41146 74.9844,5.73438 L73.9688,5.65625 C74.1354,4.60417 74.9167,4.07813 76.3125,4.07813 C77.0417,4.07813 77.5911,4.24479 77.9609,4.57813 C78.3307,4.91146 78.5156,5.39583 78.5156,6.03125 L78.5156,8.53125 C78.5156,8.82292 78.5521,9.04167 78.625,9.1875 C78.6979,9.33333 78.8385,9.40625 79.0469,9.40625 C79.1406,9.40625 79.25,9.39063 79.375,9.35938 L79.375,9.96875 C79.125,10.0208 78.875,10.0469 78.625,10.0469 C78.2604,10.0469 77.9974,9.95313 77.8359,9.76563 C77.6745,9.57813 77.5833,9.28646 77.5625,8.89063 L77.5313,8.89063 C77.2813,9.32813 76.9922,9.64063 76.6641,9.82813 C76.3359,10.0156 75.9375,10.1094 75.4688,10.1094 M75.6875,9.375 C76.0417,9.375 76.3568,9.29688 76.6328,9.14063 C76.9089,8.98438 77.1276,8.76563 77.2891,8.48438 C77.4505,8.20313 77.5313,7.91146 77.5313,7.60938 L77.5313,7.125 L76.4688,7.15625 C76.0208,7.15625 75.6797,7.20052 75.4453,7.28906 C75.2109,7.3776 75.0313,7.51042 74.9063,7.6875 C74.7813,7.86458 74.7188,8.09896 74.7188,8.39063 C74.7188,8.70313 74.8021,8.94531 74.9688,9.11719 C75.1354,9.28906 75.375,9.375 75.6875,9.375 M82.2969,12.2813 C81.6719,12.2813 81.1693,12.1563 80.7891,11.9063 C80.4089,11.6563 80.1667,11.3021 80.0625,10.8438 L81.0313,10.7031 C81.0938,10.974 81.237,11.1823 81.4609,11.3281 C81.6849,11.474 81.974,11.5469 82.3281,11.5469 C83.2969,11.5469 83.7813,10.9844 83.7813,9.85938 L83.7813,8.92188 L83.7656,8.92188 C83.5781,9.29688 83.3255,9.57813 83.0078,9.76563 C82.6901,9.95313 82.3177,10.0469 81.8906,10.0469 C81.1823,10.0469 80.6615,9.8099 80.3281,9.33594 C79.9948,8.86198 79.8281,8.11979 79.8281,7.10938 C79.8281,6.07813 80.0078,5.31771 80.3672,4.82813 C80.7266,4.33854 81.2708,4.09375 82,4.09375 C82.4167,4.09375 82.776,4.1875 83.0781,4.375 C83.3802,4.5625 83.6146,4.83333 83.7813,5.1875 C83.7813,5.07292 83.7891,4.88281 83.8047,4.61719 C83.8203,4.35156 83.8333,4.20833 83.8438,4.1875 L84.7656,4.1875 C84.7448,4.38542 84.7344,4.78646 84.7344,5.39063 L84.7344,9.82813 C84.7344,11.4635 83.9219,12.2813 82.2969,12.2813 M83.7813,7.09375 C83.7813,6.625 83.7161,6.21875 83.5859,5.875 C83.4557,5.53125 83.2734,5.26823 83.0391,5.08594 C82.8047,4.90365 82.5365,4.8125 82.2344,4.8125 C81.7448,4.8125 81.388,4.99219 81.1641,5.35156 C80.9401,5.71094 80.8281,6.29167 80.8281,7.09375 C80.8281,7.88542 80.9323,8.45573 81.1406,8.80469 C81.349,9.15365 81.7083,9.32813 82.2188,9.32813 C82.5208,9.32813 82.7917,9.23958 83.0313,9.0625 C83.2708,8.88542 83.4557,8.6276 83.5859,8.28906 C83.7161,7.95052 83.7813,7.55208 83.7813,7.09375 M86.9531,7.29688 C86.9531,7.96354 87.0911,8.47656 87.3672,8.83594 C87.6432,9.19531 88.0469,9.375 88.5781,9.375 C88.9948,9.375 89.3281,9.29167 89.5781,9.125 C89.8281,8.95833 90,8.74479 90.0938,8.48438 L90.9375,8.73438 C90.5938,9.65104 89.8073,10.1094 88.5781,10.1094 C87.7135,10.1094 87.0573,9.85417 86.6094,9.34375 C86.1615,8.83333 85.9375,8.07292 85.9375,7.0625 C85.9375,6.09375 86.1615,5.35417 86.6094,4.84375 C87.0573,4.33333 87.6979,4.07813 88.5313,4.07813 C90.2396,4.07813 91.0938,5.10938 91.0938,7.17188 L91.0938,7.29688 L86.9531,7.29688 M90.0938,6.5625 C90.0417,5.94792 89.888,5.5 89.6328,5.21875 C89.3776,4.9375 89.0052,4.79688 88.5156,4.79688 C88.0469,4.79688 87.6771,4.95313 87.4063,5.26563 C87.1354,5.57813 86.9896,6.01042 86.9688,6.5625 L90.0938,6.5625 M91.4063,12.1875 L91.4063,11.4844 L97.8125,11.4844 L97.8125,12.1875 L91.4063,12.1875 M98.4531,10 L98.4531,5.54688 C98.4531,5.13021 98.4427,4.67708 98.4219,4.1875 L99.3281,4.1875 C99.3594,4.84375 99.375,5.23958 99.375,5.375 L99.3906,5.375 C99.5469,4.875 99.7266,4.53385 99.9297,4.35156 C100.133,4.16927 100.417,4.07813 100.781,4.07813 C100.906,4.07813 101.036,4.09896 101.172,4.14063 L101.172,5.01563 C101.036,4.98438 100.865,4.96875 100.656,4.96875 C100.25,4.96875 99.9427,5.14063 99.7344,5.48438 C99.526,5.82813 99.4219,6.32292 99.4219,6.96875 L99.4219,10 L98.4531,10 M103.563,10.1094 C102.979,10.1094 102.542,9.95573 102.25,9.64844 C101.958,9.34115 101.813,8.91667 101.813,8.375 C101.813,7.77083 102.01,7.3099 102.406,6.99219 C102.802,6.67448 103.438,6.5 104.313,6.46875 L105.625,6.45313 L105.625,6.14063 C105.625,5.66146 105.523,5.32031 105.32,5.11719 C105.117,4.91406 104.802,4.8125 104.375,4.8125 C103.948,4.8125 103.635,4.88542 103.438,5.03125 C103.24,5.17708 103.12,5.41146 103.078,5.73438 L102.063,5.65625 C102.229,4.60417 103.01,4.07813 104.406,4.07813 C105.135,4.07813 105.685,4.24479 106.055,4.57813 C106.424,4.91146 106.609,5.39583 106.609,6.03125 L106.609,8.53125 C106.609,8.82292 106.646,9.04167 106.719,9.1875 C106.792,9.33333 106.932,9.40625 107.141,9.40625 C107.234,9.40625 107.344,9.39063 107.469,9.35938 L107.469,9.96875 C107.219,10.0208 106.969,10.0469 106.719,10.0469 C106.354,10.0469 106.091,9.95313 105.93,9.76563 C105.768,9.57813 105.677,9.28646 105.656,8.89063 L105.625,8.89063 C105.375,9.32813 105.086,9.64063 104.758,9.82813 C104.43,10.0156 104.031,10.1094 103.563,10.1094 M103.781,9.375 C104.135,9.375 104.451,9.29688 104.727,9.14063 C105.003,8.98438 105.221,8.76563 105.383,8.48438 C105.544,8.20313 105.625,7.91146 105.625,7.60938 L105.625,7.125 L104.563,7.15625 C104.115,7.15625 103.773,7.20052 103.539,7.28906 C103.305,7.3776 103.125,7.51042 103,7.6875 C102.875,7.86458 102.813,8.09896 102.813,8.39063 C102.813,8.70313 102.896,8.94531 103.063,9.11719 C103.229,9.28906 103.469,9.375 103.781,9.375 M113.766,10 L112.641,10 L111.625,5.89063 L111.422,4.98438 C111.391,5.14063 111.341,5.36979 111.273,5.67188 C111.206,5.97396 110.844,7.41667 110.188,10 L109.063,10 L107.438,4.1875 L108.391,4.1875 L109.375,8.14063 C109.396,8.22396 109.474,8.57813 109.609,9.20313 L109.703,8.79688 L110.906,4.1875 L111.953,4.1875 L112.969,8.17188 L113.219,9.20313 L113.375,8.45313 L114.484,4.1875 L115.422,4.1875 L113.766,10"/>
</g>

<g fill="none" stroke="#000000" stroke-opacity="1" stroke-width="1" stroke-linecap="square" stroke-linejoin="bevel" transform="matrix(1.99919,0,0,1.99919,338.454,147.94)"
font-family="sans" font-size="11" font-weight="100" font-style="normal" 
>
</g>

<g fill="none" stroke="#000000" stroke-opacity="1" stroke-width="1" stroke-linecap="square" stroke-linejoin="bevel" transform="matrix(1.99919,0,0,1.99919,338.454,147.94)"
font-family="Open Sans" font-size="9" font-weight="400" font-style="normal" 
>
</g>

<g fill="none" stroke="#000000" stroke-opacity="1" stroke-width="1" stroke-linecap="square" stroke-linejoin="bevel" transform="matrix(1.99919,0,0,1.99919,0.000799678,244.901)"
font-family="Open Sans" font-size="9" font-weight="400" font-style="normal" 
>
</g>

<g fill="none" stroke="#000000" stroke-opacity="1" stroke-width="1" stroke-linecap="square" stroke-linejoin="bevel" transform="matrix(1.99919,0,0,1.99919,0.000799678,244.901)"
font-family="Open Sans" font-size="9" font-weight="400" font-style="normal" 
>
</g>

<g fill="none" stroke="#000000" stroke-opacity="1" stroke-width="1" stroke-linecap="square" stroke-linejoin="bevel" transform="matrix(1.99919,0,0,1.99919,0.000799678,244.901)"
font-family="Open Sans" font-size="9" font-weight="400" font-style="normal" 
>
</g>

<g fill="none" stroke="#000000" stroke-opacity="1" stroke-width="1" stroke-linecap="square" stroke-linejoin="round" transform="matrix(1.99919,0,0,1.99919,0.000799678,244.901)"
font-family="Open Sans" font-size="9" font-weight="400" font-style="normal" 
>
<ellipse cx="378.58" cy="-42" rx="54.094" ry="17.5"/>
</g>

<g fill="none" stroke="#000000" stroke-opacity="1" stroke-width="1" stroke-linecap="square" stroke-linejoin="bevel" transform="matrix(1.99919,0,0,1.99919,0.000799678,244.901)"
font-family="Open Sans" font-size="9" font-weight="400" font-style="normal" 
>
</g>

<g fill="none" stroke="#000000" stroke-opacity="1" stroke-width="1" stroke-linecap="square" stroke-linejoin="bevel" transform="matrix(1.99919,0,0,1.99919,695.818,147.94)"
font-family="Open Sans" font-size="9" font-weight="400" font-style="normal" 
>
</g>

<g fill="none" stroke="#000000" stroke-opacity="1" stroke-width="1" stroke-linecap="square" stroke-linejoin="bevel" transform="matrix(1.99919,0,0,1.99919,695.818,147.94)"
font-family="sans" font-size="11" font-weight="100" font-style="normal" 
>
</g>

<g fill="#000000" fill-opacity="1" stroke="#000000" stroke-opacity="1" stroke-width="1" stroke-linecap="square" stroke-linejoin="round" transform="matrix(1.99919,0,0,1.99919,695.818,147.94)"
font-family="sans" font-size="11" font-weight="100" font-style="normal" 
>
<path vector-effect="none" fill-rule="nonzero" d="M0,10.1094 L2.20313,2.03125 L3.0625,2.03125 L0.875,10.1094 L0,10.1094 M7.45313,9.0625 C7.27604,9.4375 7.03906,9.70573 6.74219,9.86719 C6.44531,10.0286 6.07813,10.1094 5.64063,10.1094 C4.91146,10.1094 4.375,9.86198 4.03125,9.36719 C3.6875,8.8724 3.51563,8.125 3.51563,7.125 C3.51563,5.09375 4.22396,4.07813 5.64063,4.07813 C6.08854,4.07813 6.45833,4.15885 6.75,4.32031 C7.04167,4.48177 7.27604,4.73958 7.45313,5.09375 L7.46875,5.09375 L7.45313,4.4375 L7.45313,2.03125 L8.42188,2.03125 L8.42188,8.79688 C8.42188,9.40104 8.43229,9.80208 8.45313,10 L7.53125,10 C7.52083,9.9375 7.51042,9.80469 7.5,9.60156 C7.48958,9.39844 7.48438,9.21875 7.48438,9.0625 L7.45313,9.0625 M4.53125,7.09375 C4.53125,7.90625 4.63802,8.48698 4.85156,8.83594 C5.0651,9.1849 5.41146,9.35938 5.89063,9.35938 C6.44271,9.35938 6.84115,9.16927 7.08594,8.78906 C7.33073,8.40885 7.45313,7.82292 7.45313,7.03125 C7.45313,6.26042 7.33073,5.69531 7.08594,5.33594 C6.84115,4.97656 6.44792,4.79688 5.90625,4.79688 C5.41667,4.79688 5.0651,4.97656 4.85156,5.33594 C4.63802,5.69531 4.53125,6.28125 4.53125,7.09375 M11.375,10.1094 C10.7917,10.1094 10.3542,9.95573 10.0625,9.64844 C9.77083,9.34115 9.625,8.91667 9.625,8.375 C9.625,7.77083 9.82292,7.3099 10.2188,6.99219 C10.6146,6.67448 11.25,6.5 12.125,6.46875 L13.4375,6.45313 L13.4375,6.14063 C13.4375,5.66146 13.3359,5.32031 13.1328,5.11719 C12.9297,4.91406 12.6146,4.8125 12.1875,4.8125 C11.7604,4.8125 11.4479,4.88542 11.25,5.03125 C11.0521,5.17708 10.9323,5.41146 10.8906,5.73438 L9.875,5.65625 C10.0417,4.60417 10.8229,4.07813 12.2188,4.07813 C12.9479,4.07813 13.4974,4.24479 13.8672,4.57813 C14.237,4.91146 14.4219,5.39583 14.4219,6.03125 L14.4219,8.53125 C14.4219,8.82292 14.4583,9.04167 14.5313,9.1875 C14.6042,9.33333 14.7448,9.40625 14.9531,9.40625 C15.0469,9.40625 15.1563,9.39063 15.2813,9.35938 L15.2813,9.96875 C15.0313,10.0208 14.7813,10.0469 14.5313,10.0469 C14.1667,10.0469 13.9036,9.95313 13.7422,9.76563 C13.5807,9.57813 13.4896,9.28646 13.4688,8.89063 L13.4375,8.89063 C13.1875,9.32813 12.8984,9.64063 12.5703,9.82813 C12.2422,10.0156 11.8438,10.1094 11.375,10.1094 M11.5938,9.375 C11.9479,9.375 12.263,9.29688 12.5391,9.14063 C12.8151,8.98438 13.0339,8.76563 13.1953,8.48438 C13.3568,8.20313 13.4375,7.91146 13.4375,7.60938 L13.4375,7.125 L12.375,7.15625 C11.9271,7.15625 11.5859,7.20052 11.3516,7.28906 C11.1172,7.3776 10.9375,7.51042 10.8125,7.6875 C10.6875,7.86458 10.625,8.09896 10.625,8.39063 C10.625,8.70313 10.7083,8.94531 10.875,9.11719 C11.0417,9.28906 11.2813,9.375 11.5938,9.375 M16.0313,10 L16.0313,5.54688 C16.0313,5.13021 16.0208,4.67708 16,4.1875 L16.9063,4.1875 C16.9375,4.84375 16.9531,5.23958 16.9531,5.375 L16.9688,5.375 C17.125,4.875 17.3047,4.53385 17.5078,4.35156 C17.7109,4.16927 17.9948,4.07813 18.3594,4.07813 C18.4844,4.07813 18.6146,4.09896 18.75,4.14063 L18.75,5.01563 C18.6146,4.98438 18.4427,4.96875 18.2344,4.96875 C17.8281,4.96875 17.5208,5.14063 17.3125,5.48438 C17.1042,5.82813 17,6.32292 17,6.96875 L17,10 L16.0313,10 M23.3125,10 L21.3438,7.34375 L20.625,7.9375 L20.625,10 L19.6563,10 L19.6563,2.03125 L20.625,2.03125 L20.625,7.01563 L23.1875,4.1875 L24.3125,4.1875 L21.9531,6.6875 L24.4375,10 L23.3125,10 M28.8594,10 L28.8594,6.3125 C28.8594,5.92708 28.8203,5.63021 28.7422,5.42188 C28.6641,5.21354 28.5443,5.0625 28.3828,4.96875 C28.2214,4.875 27.9792,4.82813 27.6563,4.82813 C27.1875,4.82813 26.8203,4.98698 26.5547,5.30469 C26.2891,5.6224 26.1563,6.0625 26.1563,6.625 L26.1563,10 L25.1875,10 L25.1875,5.42188 C25.1875,4.74479 25.1771,4.33333 25.1563,4.1875 L26.0625,4.1875 C26.0729,4.20833 26.0781,4.25781 26.0781,4.33594 C26.0781,4.41406 26.0807,4.5026 26.0859,4.60156 C26.0911,4.70052 26.099,4.89583 26.1094,5.1875 L26.125,5.1875 C26.3438,4.78125 26.599,4.49479 26.8906,4.32813 C27.1823,4.16146 27.5469,4.07813 27.9844,4.07813 C28.6198,4.07813 29.0859,4.23698 29.3828,4.55469 C29.6797,4.8724 29.8281,5.39583 29.8281,6.125 L29.8281,10 L28.8594,10 M32.0156,7.29688 C32.0156,7.96354 32.1536,8.47656 32.4297,8.83594 C32.7057,9.19531 33.1094,9.375 33.6406,9.375 C34.0573,9.375 34.3906,9.29167 34.6406,9.125 C34.8906,8.95833 35.0625,8.74479 35.1563,8.48438 L36,8.73438 C35.6563,9.65104 34.8698,10.1094 33.6406,10.1094 C32.776,10.1094 32.1198,9.85417 31.6719,9.34375 C31.224,8.83333 31,8.07292 31,7.0625 C31,6.09375 31.224,5.35417 31.6719,4.84375 C32.1198,4.33333 32.7604,4.07813 33.5938,4.07813 C35.3021,4.07813 36.1563,5.10938 36.1563,7.17188 L36.1563,7.29688 L32.0156,7.29688 M35.1563,6.5625 C35.1042,5.94792 34.9505,5.5 34.6953,5.21875 C34.4401,4.9375 34.0677,4.79688 33.5781,4.79688 C33.1094,4.79688 32.7396,4.95313 32.4688,5.26563 C32.1979,5.57813 32.0521,6.01042 32.0313,6.5625 L35.1563,6.5625 M39.6094,9.95313 C39.2969,10.0469 38.974,10.0938 38.6406,10.0938 C37.8698,10.0938 37.4844,9.65104 37.4844,8.76563 L37.4844,4.89063 L36.8125,4.89063 L36.8125,4.1875 L37.5156,4.1875 L37.7969,2.89063 L38.4531,2.89063 L38.4531,4.1875 L39.5156,4.1875 L39.5156,4.89063 L38.4531,4.89063 L38.4531,8.5625 C38.4531,8.84375 38.4974,9.03906 38.5859,9.14844 C38.6745,9.25781 38.8333,9.3125 39.0625,9.3125 C39.1875,9.3125 39.3698,9.29167 39.6094,9.25 L39.6094,9.95313 M39.5156,12.1875 L39.5156,11.4844 L45.9219,11.4844 L45.9219,12.1875 L39.5156,12.1875 M46.5625,10 L46.5625,5.54688 C46.5625,5.13021 46.5521,4.67708 46.5313,4.1875 L47.4375,4.1875 C47.4688,4.84375 47.4844,5.23958 47.4844,5.375 L47.5,5.375 C47.6563,4.875 47.8359,4.53385 48.0391,4.35156 C48.2422,4.16927 48.526,4.07813 48.8906,4.07813 C49.0156,4.07813 49.1458,4.09896 49.2813,4.14063 L49.2813,5.01563 C49.1458,4.98438 48.974,4.96875 48.7656,4.96875 C48.3594,4.96875 48.0521,5.14063 47.8438,5.48438 C47.6354,5.82813 47.5313,6.32292 47.5313,6.96875 L47.5313,10 L46.5625,10 M55.1094,7.09375 C55.1094,8.10417 54.8854,8.85938 54.4375,9.35938 C53.9896,9.85938 53.3385,10.1094 52.4844,10.1094 C51.6406,10.1094 51.0026,9.85156 50.5703,9.33594 C50.138,8.82031 49.9219,8.07292 49.9219,7.09375 C49.9219,5.08333 50.7865,4.07813 52.5156,4.07813 C53.4115,4.07813 54.0677,4.32292 54.4844,4.8125 C54.901,5.30208 55.1094,6.0625 55.1094,7.09375 M54.0938,7.09375 C54.0938,6.29167 53.974,5.70833 53.7344,5.34375 C53.4948,4.97917 53.0938,4.79688 52.5313,4.79688 C51.9688,4.79688 51.5625,4.98177 51.3125,5.35156 C51.0625,5.72135 50.9375,6.30208 50.9375,7.09375 C50.9375,7.85417 51.0599,8.42708 51.3047,8.8125 C51.5495,9.19792 51.9427,9.39063 52.4844,9.39063 C53.0573,9.39063 53.4688,9.20573 53.7188,8.83594 C53.9688,8.46615 54.0938,7.88542 54.0938,7.09375 M60.6719,8.39063 C60.6719,8.94271 60.4635,9.36719 60.0469,9.66406 C59.6302,9.96094 59.0521,10.1094 58.3125,10.1094 C57.5833,10.1094 57.0234,9.98958 56.6328,9.75 C56.2422,9.51042 55.9896,9.14063 55.875,8.64063 L56.7188,8.46875 C56.8021,8.78125 56.974,9.01042 57.2344,9.15625 C57.4948,9.30208 57.8542,9.375 58.3125,9.375 C58.8021,9.375 59.1589,9.29948 59.3828,9.14844 C59.6068,8.9974 59.7188,8.77083 59.7188,8.46875 C59.7188,8.23958 59.6406,8.05469 59.4844,7.91406 C59.3281,7.77344 59.0729,7.65625 58.7188,7.5625 L58.0313,7.375 C57.4792,7.22917 57.0859,7.08854 56.8516,6.95313 C56.6172,6.81771 56.4323,6.65104 56.2969,6.45313 C56.1615,6.25521 56.0938,6.01042 56.0938,5.71875 C56.0938,5.1875 56.2839,4.78385 56.6641,4.50781 C57.0443,4.23177 57.5938,4.09375 58.3125,4.09375 C58.9583,4.09375 59.4688,4.20833 59.8438,4.4375 C60.2188,4.66667 60.4583,5.02604 60.5625,5.51563 L59.6875,5.625 C59.6354,5.36458 59.4922,5.16667 59.2578,5.03125 C59.0234,4.89583 58.7083,4.82813 58.3125,4.82813 C57.875,4.82813 57.5547,4.89323 57.3516,5.02344 C57.1484,5.15365 57.0469,5.35417 57.0469,5.625 C57.0469,5.79167 57.0885,5.92969 57.1719,6.03906 C57.2552,6.14844 57.3802,6.23958 57.5469,6.3125 C57.7135,6.38542 58.0677,6.48958 58.6094,6.625 C59.1198,6.75 59.4896,6.86719 59.7188,6.97656 C59.9479,7.08594 60.1276,7.20833 60.2578,7.34375 C60.388,7.47917 60.4896,7.63281 60.5625,7.80469 C60.6354,7.97656 60.6719,8.17188 60.6719,8.39063 "/>
</g>

<g fill="none" stroke="#000000" stroke-opacity="1" stroke-width="1" stroke-linecap="square" stroke-linejoin="bevel" transform="matrix(1.99919,0,0,1.99919,695.818,147.94)"
font-family="sans" font-size="11" font-weight="100" font-style="normal" 
>
</g>

<g fill="none" stroke="#000000" stroke-opacity="1" stroke-width="1" stroke-linecap="square" stroke-linejoin="bevel" transform="matrix(1.99919,0,0,1.99919,695.818,147.94)"
font-family="Open Sans" font-size="9" font-weight="400" font-style="normal" 
>
</g>

<g fill="none" stroke="#000000" stroke-opacity="1" stroke-width="1" stroke-linecap="square" stroke-linejoin="bevel" transform="matrix(1.99919,0,0,1.99919,0.000799678,244.901)"
font-family="Open Sans" font-size="9" font-weight="400" font-style="normal" 
>
</g>

<g fill="none" stroke="#000000" stroke-opacity="1" stroke-width="1" stroke-linecap="square" stroke-linejoin="bevel" transform="matrix(1.99919,0,0,1.99919,0.000799678,244.901)"
font-family="Open Sans" font-size="9" font-weight="400" font-style="normal" 
>
</g>

<g fill="none" stroke="#000000" stroke-opacity="1" stroke-width="1" stroke-linecap="square" stroke-linejoin="bevel" transform="matrix(1.99919,0,0,1.99919,0.000799678,244.901)"
font-family="Open Sans" font-size="9" font-weight="400" font-style="normal" 
>
</g>

<g fill="none" stroke="#000000" stroke-opacity="1" stroke-width="1" stroke-linecap="square" stroke-linejoin="round" transform="matrix(1.99919,0,0,1.99919,0.000799678,244.901)"
font-family="Open Sans" font-size="9" font-weight="400" font-style="normal" 
>
<ellipse cx="64.994" cy="-42" rx="64.4944" ry="17.5"/>
</g>

<g fill="none" stroke="#000000" stroke-opacity="1" stroke-width="1" stroke-linecap="square" stroke-linejoin="bevel" transform="matrix(1.99919,0,0,1.99919,0.000799678,244.901)"
font-family="Open Sans" font-size="9" font-weight="400" font-style="normal" 
>
</g>

<g fill="none" stroke="#000000" stroke-opacity="1" stroke-width="1" stroke-linecap="square" stroke-linejoin="bevel" transform="matrix(1.99919,0,0,1.99919,57.9186,147.94)"
font-family="Open Sans" font-size="9" font-weight="400" font-style="normal" 
>
</g>

<g fill="none" stroke="#000000" stroke-opacity="1" stroke-width="1" stroke-linecap="square" stroke-linejoin="bevel" transform="matrix(1.99919,0,0,1.99919,57.9186,147.94)"
font-family="sans" font-size="11" font-weight="100" font-style="normal" 
>
</g>

<g fill="#000000" fill-opacity="1" stroke="#000000" stroke-opacity="1" stroke-width="1" stroke-linecap="square" stroke-linejoin="round" transform="matrix(1.99919,0,0,1.99919,57.9186,147.94)"
font-family="sans" font-size="11" font-weight="100" font-style="normal" 
>
<path vector-effect="none" fill-rule="nonzero" d="M0,10.1094 L2.20313,2.03125 L3.0625,2.03125 L0.875,10.1094 L0,10.1094 M8.98438,10 L5.96875,6.34375 L4.96875,7.09375 L4.96875,10 L3.95313,10 L3.95313,2.4375 L4.96875,2.4375 L4.96875,6.21875 L8.625,2.4375 L9.82813,2.4375 L6.60938,5.71875 L10.2656,10 L8.98438,10 M11.3906,10 L11.3906,2.4375 L12.4219,2.4375 L12.4219,10 L11.3906,10 M17.2969,3.26563 L17.2969,10 L16.2656,10 L16.2656,3.26563 L13.6719,3.26563 L13.6719,2.4375 L19.8906,2.4375 L19.8906,3.26563 L17.2969,3.26563 M24.0156,3.26563 L24.0156,10 L22.9844,10 L22.9844,3.26563 L20.3906,3.26563 L20.3906,2.4375 L26.6094,2.4375 L26.6094,3.26563 L24.0156,3.26563 M27.875,10 L27.875,2.4375 L28.9063,2.4375 L28.9063,10 L27.875,10 M29.7344,12.1875 L29.7344,11.4844 L36.1406,11.4844 L36.1406,12.1875 L29.7344,12.1875 M40.4219,9.0625 C40.2448,9.4375 40.0078,9.70573 39.7109,9.86719 C39.4141,10.0286 39.0469,10.1094 38.6094,10.1094 C37.8802,10.1094 37.3438,9.86198 37,9.36719 C36.6563,8.8724 36.4844,8.125 36.4844,7.125 C36.4844,5.09375 37.1927,4.07813 38.6094,4.07813 C39.0573,4.07813 39.4271,4.15885 39.7188,4.32031 C40.0104,4.48177 40.2448,4.73958 40.4219,5.09375 L40.4375,5.09375 L40.4219,4.4375 L40.4219,2.03125 L41.3906,2.03125 L41.3906,8.79688 C41.3906,9.40104 41.401,9.80208 41.4219,10 L40.5,10 C40.4896,9.9375 40.4792,9.80469 40.4688,9.60156 C40.4583,9.39844 40.4531,9.21875 40.4531,9.0625 L40.4219,9.0625 M37.5,7.09375 C37.5,7.90625 37.6068,8.48698 37.8203,8.83594 C38.0339,9.1849 38.3802,9.35938 38.8594,9.35938 C39.4115,9.35938 39.8099,9.16927 40.0547,8.78906 C40.2995,8.40885 40.4219,7.82292 40.4219,7.03125 C40.4219,6.26042 40.2995,5.69531 40.0547,5.33594 C39.8099,4.97656 39.4167,4.79688 38.875,4.79688 C38.3854,4.79688 38.0339,4.97656 37.8203,5.33594 C37.6068,5.69531 37.5,6.28125 37.5,7.09375 M44.3438,10.1094 C43.7604,10.1094 43.3229,9.95573 43.0313,9.64844 C42.7396,9.34115 42.5938,8.91667 42.5938,8.375 C42.5938,7.77083 42.7917,7.3099 43.1875,6.99219 C43.5833,6.67448 44.2188,6.5 45.0938,6.46875 L46.4063,6.45313 L46.4063,6.14063 C46.4063,5.66146 46.3047,5.32031 46.1016,5.11719 C45.8984,4.91406 45.5833,4.8125 45.1563,4.8125 C44.7292,4.8125 44.4167,4.88542 44.2188,5.03125 C44.0208,5.17708 43.901,5.41146 43.8594,5.73438 L42.8438,5.65625 C43.0104,4.60417 43.7917,4.07813 45.1875,4.07813 C45.9167,4.07813 46.4661,4.24479 46.8359,4.57813 C47.2057,4.91146 47.3906,5.39583 47.3906,6.03125 L47.3906,8.53125 C47.3906,8.82292 47.4271,9.04167 47.5,9.1875 C47.5729,9.33333 47.7135,9.40625 47.9219,9.40625 C48.0156,9.40625 48.125,9.39063 48.25,9.35938 L48.25,9.96875 C48,10.0208 47.75,10.0469 47.5,10.0469 C47.1354,10.0469 46.8724,9.95313 46.7109,9.76563 C46.5495,9.57813 46.4583,9.28646 46.4375,8.89063 L46.4063,8.89063 C46.1563,9.32813 45.8672,9.64063 45.5391,9.82813 C45.2109,10.0156 44.8125,10.1094 44.3438,10.1094 M44.5625,9.375 C44.9167,9.375 45.2318,9.29688 45.5078,9.14063 C45.7839,8.98438 46.0026,8.76563 46.1641,8.48438 C46.3255,8.20313 46.4063,7.91146 46.4063,7.60938 L46.4063,7.125 L45.3438,7.15625 C44.8958,7.15625 44.5547,7.20052 44.3203,7.28906 C44.0859,7.3776 43.9063,7.51042 43.7813,7.6875 C43.6563,7.86458 43.5938,8.09896 43.5938,8.39063 C43.5938,8.70313 43.6771,8.94531 43.8438,9.11719 C44.0104,9.28906 44.25,9.375 44.5625,9.375 M51.2031,9.95313 C50.8906,10.0469 50.5677,10.0938 50.2344,10.0938 C49.4635,10.0938 49.0781,9.65104 49.0781,8.76563 L49.0781,4.89063 L48.4063,4.89063 L48.4063,4.1875 L49.1094,4.1875 L49.3906,2.89063 L50.0469,2.89063 L50.0469,4.1875 L51.1094,4.1875 L51.1094,4.89063 L50.0469,4.89063 L50.0469,8.5625 C50.0469,8.84375 50.0911,9.03906 50.1797,9.14844 C50.2682,9.25781 50.4271,9.3125 50.6563,9.3125 C50.7813,9.3125 50.9635,9.29167 51.2031,9.25 L51.2031,9.95313 M53.5,10.1094 C52.9167,10.1094 52.4792,9.95573 52.1875,9.64844 C51.8958,9.34115 51.75,8.91667 51.75,8.375 C51.75,7.77083 51.9479,7.3099 52.3438,6.99219 C52.7396,6.67448 53.375,6.5 54.25,6.46875 L55.5625,6.45313 L55.5625,6.14063 C55.5625,5.66146 55.4609,5.32031 55.2578,5.11719 C55.0547,4.91406 54.7396,4.8125 54.3125,4.8125 C53.8854,4.8125 53.5729,4.88542 53.375,5.03125 C53.1771,5.17708 53.0573,5.41146 53.0156,5.73438 L52,5.65625 C52.1667,4.60417 52.9479,4.07813 54.3438,4.07813 C55.0729,4.07813 55.6224,4.24479 55.9922,4.57813 C56.362,4.91146 56.5469,5.39583 56.5469,6.03125 L56.5469,8.53125 C56.5469,8.82292 56.5833,9.04167 56.6563,9.1875 C56.7292,9.33333 56.8698,9.40625 57.0781,9.40625 C57.1719,9.40625 57.2813,9.39063 57.4063,9.35938 L57.4063,9.96875 C57.1563,10.0208 56.9063,10.0469 56.6563,10.0469 C56.2917,10.0469 56.0286,9.95313 55.8672,9.76563 C55.7057,9.57813 55.6146,9.28646 55.5938,8.89063 L55.5625,8.89063 C55.3125,9.32813 55.0234,9.64063 54.6953,9.82813 C54.3672,10.0156 53.9688,10.1094 53.5,10.1094 M53.7188,9.375 C54.0729,9.375 54.388,9.29688 54.6641,9.14063 C54.9401,8.98438 55.1589,8.76563 55.3203,8.48438 C55.4818,8.20313 55.5625,7.91146 55.5625,7.60938 L55.5625,7.125 L54.5,7.15625 C54.0521,7.15625 53.7109,7.20052 53.4766,7.28906 C53.2422,7.3776 53.0625,7.51042 52.9375,7.6875 C52.8125,7.86458 52.75,8.09896 52.75,8.39063 C52.75,8.70313 52.8333,8.94531 53,9.11719 C53.1667,9.28906 53.4063,9.375 53.7188,9.375 M62.5,8.39063 C62.5,8.94271 62.2917,9.36719 61.875,9.66406 C61.4583,9.96094 60.8802,10.1094 60.1406,10.1094 C59.4115,10.1094 58.8516,9.98958 58.4609,9.75 C58.0703,9.51042 57.8177,9.14063 57.7031,8.64063 L58.5469,8.46875 C58.6302,8.78125 58.8021,9.01042 59.0625,9.15625 C59.3229,9.30208 59.6823,9.375 60.1406,9.375 C60.6302,9.375 60.987,9.29948 61.2109,9.14844 C61.4349,8.9974 61.5469,8.77083 61.5469,8.46875 C61.5469,8.23958 61.4688,8.05469 61.3125,7.91406 C61.1563,7.77344 60.901,7.65625 60.5469,7.5625 L59.8594,7.375 C59.3073,7.22917 58.9141,7.08854 58.6797,6.95313 C58.4453,6.81771 58.2604,6.65104 58.125,6.45313 C57.9896,6.25521 57.9219,6.01042 57.9219,5.71875 C57.9219,5.1875 58.112,4.78385 58.4922,4.50781 C58.8724,4.23177 59.4219,4.09375 60.1406,4.09375 C60.7865,4.09375 61.2969,4.20833 61.6719,4.4375 C62.0469,4.66667 62.2865,5.02604 62.3906,5.51563 L61.5156,5.625 C61.4635,5.36458 61.3203,5.16667 61.0859,5.03125 C60.8516,4.89583 60.5365,4.82813 60.1406,4.82813 C59.7031,4.82813 59.3828,4.89323 59.1797,5.02344 C58.9766,5.15365 58.875,5.35417 58.875,5.625 C58.875,5.79167 58.9167,5.92969 59,6.03906 C59.0833,6.14844 59.2083,6.23958 59.375,6.3125 C59.5417,6.38542 59.8958,6.48958 60.4375,6.625 C60.9479,6.75 61.3177,6.86719 61.5469,6.97656 C61.776,7.08594 61.9557,7.20833 62.0859,7.34375 C62.2161,7.47917 62.3177,7.63281 62.3906,7.80469 C62.4635,7.97656 62.5,8.17188 62.5,8.39063 M64.375,7.29688 C64.375,7.96354 64.513,8.47656 64.7891,8.83594 C65.0651,9.19531 65.4688,9.375 66,9.375 C66.4167,9.375 66.75,9.29167 67,9.125 C67.25,8.95833 67.4219,8.74479 67.5156,8.48438 L68.3594,8.73438 C68.0156,9.65104 67.2292,10.1094 66,10.1094 C65.1354,10.1094 64.4792,9.85417 64.0313,9.34375 C63.5833,8.83333 63.3594,8.07292 63.3594,7.0625 C63.3594,6.09375 63.5833,5.35417 64.0313,4.84375 C64.4792,4.33333 65.1198,4.07813 65.9531,4.07813 C67.6615,4.07813 68.5156,5.10938 68.5156,7.17188 L68.5156,7.29688 L64.375,7.29688 M67.5156,6.5625 C67.4635,5.94792 67.3099,5.5 67.0547,5.21875 C66.7995,4.9375 66.4271,4.79688 65.9375,4.79688 C65.4688,4.79688 65.099,4.95313 64.8281,5.26563 C64.5573,5.57813 64.4115,6.01042 64.3906,6.5625 L67.5156,6.5625 M71.9688,9.95313 C71.6563,10.0469 71.3333,10.0938 71,10.0938 C70.2292,10.0938 69.8438,9.65104 69.8438,8.76563 L69.8438,4.89063 L69.1719,4.89063 L69.1719,4.1875 L69.875,4.1875 L70.1563,2.89063 L70.8125,2.89063 L70.8125,4.1875 L71.875,4.1875 L71.875,4.89063 L70.8125,4.89063 L70.8125,8.5625 C70.8125,8.84375 70.8568,9.03906 70.9453,9.14844 C71.0339,9.25781 71.1927,9.3125 71.4219,9.3125 C71.5469,9.3125 71.7292,9.29167 71.9688,9.25 L71.9688,9.95313"/>
</g>

<g fill="none" stroke="#000000" stroke-opacity="1" stroke-width="1" stroke-linecap="square" stroke-linejoin="bevel" transform="matrix(1.99919,0,0,1.99919,57.9186,147.94)"
font-family="sans" font-size="11" font-weight="100" font-style="normal" 
>
</g>

<g fill="none" stroke="#000000" stroke-opacity="1" stroke-width="1" stroke-linecap="square" stroke-linejoin="bevel" transform="matrix(1.99919,0,0,1.99919,57.9186,147.94)"
font-family="Open Sans" font-size="9" font-weight="400" font-style="normal" 
>
</g>

<g fill="none" stroke="#000000" stroke-opacity="1" stroke-width="1" stroke-linecap="square" stroke-linejoin="bevel" transform="matrix(1.99919,0,0,1.99919,0.000799678,244.901)"
font-family="Open Sans" font-size="9" font-weight="400" font-style="normal" 
>
</g>

<g fill="none" stroke="#000000" stroke-opacity="1" stroke-width="1" stroke-linecap="square" stroke-linejoin="bevel" transform="matrix(1.99919,0,0,1.99919,0.000799678,244.901)"
font-family="Open Sans" font-size="9" font-weight="400" font-style="normal" 
>
</g>

<g fill="none" stroke="#000000" stroke-opacity="1" stroke-width="1" stroke-linecap="square" stroke-linejoin="bevel" transform="matrix(1.99919,0,0,1.99919,0.000799678,244.901)"
font-family="Open Sans" font-size="9" font-weight="400" font-style="normal" 
>
</g>

<g fill="none" stroke="#000000" stroke-opacity="1" stroke-width="1" stroke-linecap="square" stroke-linejoin="round" transform="matrix(1.99919,0,0,1.99919,0.000799678,244.901)"
font-family="Open Sans" font-size="9" font-weight="400" font-style="normal" 
>
<path vector-effect="none" fill-rule="evenodd" d="M130.42,-42 C134.76,-42 139.17,-42 143.59,-42 "/>
</g>

<g fill="none" stroke="#000000" stroke-opacity="1" stroke-width="1" stroke-linecap="square" stroke-linejoin="bevel" transform="matrix(1.99919,0,0,1.99919,0.000799678,244.901)"
font-family="Open Sans" font-size="9" font-weight="400" font-style="normal" 
>
</g>

<g fill="none" stroke="#000000" stroke-opacity="1" stroke-width="1" stroke-linecap="square" stroke-linejoin="bevel" transform="matrix(1.99919,0,0,1.99919,0.000799678,244.901)"
font-family="Open Sans" font-size="9" font-weight="400" font-style="normal" 
>
</g>

<g fill="#000000" fill-opacity="1" stroke="#000000" stroke-opacity="1" stroke-width="1" stroke-linecap="square" stroke-linejoin="round" transform="matrix(1.99919,0,0,1.99919,0.000799678,244.901)"
font-family="Open Sans" font-size="9" font-weight="400" font-style="normal" 
>
<path vector-effect="none" fill-rule="evenodd" d="M143.59,-42 L143.59,-38.395 L153.89,-42 L143.59,-45.605 L143.59,-42"/>
</g>

<g fill="none" stroke="#000000" stroke-opacity="1" stroke-width="1" stroke-linecap="square" stroke-linejoin="bevel" transform="matrix(1.99919,0,0,1.99919,0.000799678,244.901)"
font-family="Open Sans" font-size="9" font-weight="400" font-style="normal" 
>
</g>

<g fill="none" stroke="#000000" stroke-opacity="1" stroke-width="1" stroke-linecap="square" stroke-linejoin="bevel" transform="matrix(1.99919,0,0,1.99919,0.000799678,244.901)"
font-family="Open Sans" font-size="9" font-weight="400" font-style="normal" 
>
</g>

<g fill="none" stroke="#000000" stroke-opacity="1" stroke-width="1" stroke-linecap="square" stroke-linejoin="bevel" transform="matrix(1.99919,0,0,1.99919,0.000799678,244.901)"
font-family="Open Sans" font-size="9" font-weight="400" font-style="normal" 
>
</g>

<g fill="none" stroke="#000000" stroke-opacity="1" stroke-width="1" stroke-linecap="square" stroke-linejoin="bevel" transform="matrix(1.99919,0,0,1.99919,0.000799678,244.901)"
font-family="Open Sans" font-size="9" font-weight="400" font-style="normal" 
>
</g>

<g fill="none" stroke="#000000" stroke-opacity="1" stroke-width="1" stroke-linecap="square" stroke-linejoin="round" transform="matrix(1.99919,0,0,1.99919,0.000799678,244.901)"
font-family="Open Sans" font-size="9" font-weight="400" font-style="normal" 
>
<path vector-effect="none" fill-rule="evenodd" d="M300.12,-42 C304.64,-42 309.16,-42 313.64,-42 "/>
</g>

<g fill="none" stroke="#000000" stroke-opacity="1" stroke-width="1" stroke-linecap="square" stroke-linejoin="bevel" transform="matrix(1.99919,0,0,1.99919,0.000799678,244.901)"
font-family="Open Sans" font-size="9" font-weight="400" font-style="normal" 
>
</g>

<g fill="none" stroke="#000000" stroke-opacity="1" stroke-width="1" stroke-linecap="square" stroke-linejoin="bevel" transform="matrix(1.99919,0,0,1.99919,0.000799678,244.901)"
font-family="Open Sans" font-size="9" font-weight="400" font-style="normal" 
>
</g>

<g fill="#000000" fill-opacity="1" stroke="#000000" stroke-opacity="1" stroke-width="1" stroke-linecap="square" stroke-linejoin="round" transform="matrix(1.99919,0,0,1.99919,0.000799678,244.901)"
font-family="Open Sans" font-size="9" font-weight="400" font-style="normal" 
>
<path vector-effect="none" fill-rule="evenodd" d="M313.64,-42 L313.64,-38.388 L323.96,-42 L313.64,-45.612 L313.64,-42"/>
</g>

<g fill="none" stroke="#000000" stroke-opacity="1" stroke-width="1" stroke-linecap="square" stroke-linejoin="bevel" transform="matrix(1.99919,0,0,1.99919,0.000799678,244.901)"
font-family="Open Sans" font-size="9" font-weight="400" font-style="normal" 
>
</g>

<g fill="none" stroke="#000000" stroke-opacity="1" stroke-width="1" stroke-linecap="square" stroke-linejoin="bevel" transform="matrix(1,0,0,1,0,0)"
font-family="Open Sans" font-size="9" font-weight="400" font-style="normal" 
>
</g>
</g>
</svg>
