<?xml version="1.0" encoding="UTF-8" standalone="no"?>
<svg width="277.989mm" height="25.4mm"
 xmlns="http://www.w3.org/2000/svg" xmlns:xlink="http://www.w3.org/1999/xlink"  version="1.2" baseProfile="tiny">
<title>Qt SVG Document</title>
<desc>Generated with Qt</desc>
<defs>
</defs>
<g fill="none" stroke="black" stroke-width="1" fill-rule="evenodd" stroke-linecap="square" stroke-linejoin="bevel" >

<g fill="none" stroke="#000000" stroke-opacity="1" stroke-width="1" stroke-linecap="square" stroke-linejoin="bevel" transform="matrix(1,0,0,1,0,0)"
font-family="Open Sans" font-size="9" font-weight="400" font-style="normal" 
>
</g>

<g fill="none" stroke="#000000" stroke-opacity="1" stroke-width="1" stroke-linecap="square" stroke-linejoin="bevel" transform="matrix(1,0,0,1,0,0)"
font-family="Open Sans" font-size="9" font-weight="400" font-style="normal" 
>
</g>

<g fill="none" stroke="#000000" stroke-opacity="1" stroke-width="1" stroke-linecap="square" stroke-linejoin="bevel" transform="matrix(1.99964,0,0,1.99964,-0.0027995,71.9871)"
font-family="Open Sans" font-size="9" font-weight="400" font-style="normal" 
>
</g>

<g fill="#ffffff" fill-opacity="1" stroke="none" transform="matrix(1.99964,0,0,1.99964,-0.0027995,71.9871)"
font-family="Open Sans" font-size="9" font-weight="400" font-style="normal" 
>
<rect x="0.0014" y="-36" width="394.071" height="36"/>
</g>

<g fill="none" stroke="#000000" stroke-opacity="1" stroke-width="1" stroke-linecap="square" stroke-linejoin="bevel" transform="matrix(1.99964,0,0,1.99964,-0.0027995,71.9871)"
font-family="Open Sans" font-size="9" font-weight="400" font-style="normal" 
>
</g>

<g fill="none" stroke="#000000" stroke-opacity="1" stroke-width="1" stroke-linecap="square" stroke-linejoin="bevel" transform="matrix(1.99964,0,0,1.99964,-0.0027995,71.9871)"
font-family="Open Sans" font-size="9" font-weight="400" font-style="normal" 
>
</g>

<g fill="none" stroke="#000000" stroke-opacity="1" stroke-width="1" stroke-linecap="square" stroke-linejoin="bevel" transform="matrix(1.99964,0,0,1.99964,-0.0027995,71.9871)"
font-family="Open Sans" font-size="9" font-weight="400" font-style="normal" 
>
</g>

<g fill="none" stroke="#000000" stroke-opacity="1" stroke-width="1" stroke-linecap="square" stroke-linejoin="bevel" transform="matrix(1.99964,0,0,1.99964,-0.0027995,71.9871)"
font-family="Open Sans" font-size="9" font-weight="400" font-style="normal" 
>
</g>

<g fill="none" stroke="#000000" stroke-opacity="1" stroke-width="1" stroke-linecap="square" stroke-linejoin="round" transform="matrix(1.99964,0,0,1.99964,-0.0027995,71.9871)"
font-family="Open Sans" font-size="9" font-weight="400" font-style="normal" 
>
<ellipse cx="61.745" cy="-18" rx="61.2436" ry="17.5"/>
</g>

<g fill="none" stroke="#000000" stroke-opacity="1" stroke-width="1" stroke-linecap="square" stroke-linejoin="bevel" transform="matrix(1.99964,0,0,1.99964,-0.0027995,71.9871)"
font-family="Open Sans" font-size="9" font-weight="400" font-style="normal" 
>
</g>

<g fill="none" stroke="#000000" stroke-opacity="1" stroke-width="1" stroke-linecap="square" stroke-linejoin="bevel" transform="matrix(1.99964,0,0,1.99964,51.4155,22.9959)"
font-family="Open Sans" font-size="9" font-weight="400" font-style="normal" 
>
</g>

<g fill="none" stroke="#000000" stroke-opacity="1" stroke-width="1" stroke-linecap="square" stroke-linejoin="bevel" transform="matrix(1.99964,0,0,1.99964,51.4155,22.9959)"
font-family="sans" font-size="11" font-weight="100" font-style="normal" 
>
</g>

<g fill="#000000" fill-opacity="1" stroke="#000000" stroke-opacity="1" stroke-width="1" stroke-linecap="square" stroke-linejoin="round" transform="matrix(1.99964,0,0,1.99964,51.4155,22.9959)"
font-family="sans" font-size="11" font-weight="100" font-style="normal" 
>
<path vector-effect="none" fill-rule="nonzero" d="M0,10.1094 L2.20313,2.03125 L3.0625,2.03125 L0.875,10.1094 L0,10.1094 M9.29688,10 L7.32813,6.85938 L4.96875,6.85938 L4.96875,10 L3.95313,10 L3.95313,2.4375 L7.51563,2.4375 C8.35938,2.4375 9.01563,2.6276 9.48438,3.00781 C9.95313,3.38802 10.1875,3.91667 10.1875,4.59375 C10.1875,5.15625 10.0234,5.63021 9.69531,6.01563 C9.36719,6.40104 8.91146,6.64063 8.32813,6.73438 L10.4844,10 L9.29688,10 M9.15625,4.60938 C9.15625,4.17188 9.00521,3.83594 8.70313,3.60156 C8.40104,3.36719 7.96875,3.25 7.40625,3.25 L4.96875,3.25 L4.96875,6.04688 L7.45313,6.04688 C7.99479,6.04688 8.41406,5.92188 8.71094,5.67188 C9.00781,5.42188 9.15625,5.06771 9.15625,4.60938 M16.6406,7.09375 C16.6406,8.10417 16.4167,8.85938 15.9688,9.35938 C15.5208,9.85938 14.8698,10.1094 14.0156,10.1094 C13.1719,10.1094 12.5339,9.85156 12.1016,9.33594 C11.6693,8.82031 11.4531,8.07292 11.4531,7.09375 C11.4531,5.08333 12.3177,4.07813 14.0469,4.07813 C14.9427,4.07813 15.599,4.32292 16.0156,4.8125 C16.4323,5.30208 16.6406,6.0625 16.6406,7.09375 M15.625,7.09375 C15.625,6.29167 15.5052,5.70833 15.2656,5.34375 C15.026,4.97917 14.625,4.79688 14.0625,4.79688 C13.5,4.79688 13.0938,4.98177 12.8438,5.35156 C12.5938,5.72135 12.4688,6.30208 12.4688,7.09375 C12.4688,7.85417 12.5911,8.42708 12.8359,8.8125 C13.0807,9.19792 13.474,9.39063 14.0156,9.39063 C14.5885,9.39063 15,9.20573 15.25,8.83594 C15.5,8.46615 15.625,7.88542 15.625,7.09375 M22.2031,8.39063 C22.2031,8.94271 21.9948,9.36719 21.5781,9.66406 C21.1615,9.96094 20.5833,10.1094 19.8438,10.1094 C19.1146,10.1094 18.5547,9.98958 18.1641,9.75 C17.7734,9.51042 17.5208,9.14063 17.4063,8.64063 L18.25,8.46875 C18.3333,8.78125 18.5052,9.01042 18.7656,9.15625 C19.026,9.30208 19.3854,9.375 19.8438,9.375 C20.3333,9.375 20.6901,9.29948 20.9141,9.14844 C21.138,8.9974 21.25,8.77083 21.25,8.46875 C21.25,8.23958 21.1719,8.05469 21.0156,7.91406 C20.8594,7.77344 20.6042,7.65625 20.25,7.5625 L19.5625,7.375 C19.0104,7.22917 18.6172,7.08854 18.3828,6.95313 C18.1484,6.81771 17.9635,6.65104 17.8281,6.45313 C17.6927,6.25521 17.625,6.01042 17.625,5.71875 C17.625,5.1875 17.8151,4.78385 18.1953,4.50781 C18.5755,4.23177 19.125,4.09375 19.8438,4.09375 C20.4896,4.09375 21,4.20833 21.375,4.4375 C21.75,4.66667 21.9896,5.02604 22.0938,5.51563 L21.2188,5.625 C21.1667,5.36458 21.0234,5.16667 20.7891,5.03125 C20.5547,4.89583 20.2396,4.82813 19.8438,4.82813 C19.4063,4.82813 19.0859,4.89323 18.8828,5.02344 C18.6797,5.15365 18.5781,5.35417 18.5781,5.625 C18.5781,5.79167 18.6198,5.92969 18.7031,6.03906 C18.7865,6.14844 18.9115,6.23958 19.0781,6.3125 C19.2448,6.38542 19.599,6.48958 20.1406,6.625 C20.651,6.75 21.0208,6.86719 21.25,6.97656 C21.4792,7.08594 21.6589,7.20833 21.7891,7.34375 C21.9193,7.47917 22.0208,7.63281 22.0938,7.80469 C22.1667,7.97656 22.2031,8.17188 22.2031,8.39063 M28.25,7.0625 C28.25,9.09375 27.5365,10.1094 26.1094,10.1094 C25.6719,10.1094 25.3073,10.0286 25.0156,9.86719 C24.724,9.70573 24.4844,9.44792 24.2969,9.09375 C24.2969,9.20833 24.2891,9.38021 24.2734,9.60938 C24.2578,9.83854 24.2448,9.96875 24.2344,10 L23.2969,10 C23.3177,9.80208 23.3281,9.40104 23.3281,8.79688 L23.3281,2.03125 L24.2969,2.03125 L24.2969,4.29688 C24.2969,4.53646 24.2917,4.8125 24.2813,5.125 L24.2969,5.125 C24.4844,4.75 24.724,4.48177 25.0156,4.32031 C25.3073,4.15885 25.6719,4.07813 26.1094,4.07813 C26.849,4.07813 27.3906,4.32552 27.7344,4.82031 C28.0781,5.3151 28.25,6.0625 28.25,7.0625 M27.2344,7.09375 C27.2344,6.28125 27.1276,5.70052 26.9141,5.35156 C26.7005,5.0026 26.349,4.82813 25.8594,4.82813 C25.3177,4.82813 24.9219,5.01302 24.6719,5.38281 C24.4219,5.7526 24.2969,6.34375 24.2969,7.15625 C24.2969,7.91667 24.4193,8.47917 24.6641,8.84375 C24.9089,9.20833 25.3073,9.39063 25.8594,9.39063 C26.3385,9.39063 26.6875,9.21094 26.9063,8.85156 C27.125,8.49219 27.2344,7.90625 27.2344,7.09375 M30.9219,10.1094 C30.3385,10.1094 29.901,9.95573 29.6094,9.64844 C29.3177,9.34115 29.1719,8.91667 29.1719,8.375 C29.1719,7.77083 29.3698,7.3099 29.7656,6.99219 C30.1615,6.67448 30.7969,6.5 31.6719,6.46875 L32.9844,6.45313 L32.9844,6.14063 C32.9844,5.66146 32.8828,5.32031 32.6797,5.11719 C32.4766,4.91406 32.1615,4.8125 31.7344,4.8125 C31.3073,4.8125 30.9948,4.88542 30.7969,5.03125 C30.599,5.17708 30.4792,5.41146 30.4375,5.73438 L29.4219,5.65625 C29.5885,4.60417 30.3698,4.07813 31.7656,4.07813 C32.4948,4.07813 33.0443,4.24479 33.4141,4.57813 C33.7839,4.91146 33.9688,5.39583 33.9688,6.03125 L33.9688,8.53125 C33.9688,8.82292 34.0052,9.04167 34.0781,9.1875 C34.151,9.33333 34.2917,9.40625 34.5,9.40625 C34.5938,9.40625 34.7031,9.39063 34.8281,9.35938 L34.8281,9.96875 C34.5781,10.0208 34.3281,10.0469 34.0781,10.0469 C33.7135,10.0469 33.4505,9.95313 33.2891,9.76563 C33.1276,9.57813 33.0365,9.28646 33.0156,8.89063 L32.9844,8.89063 C32.7344,9.32813 32.4453,9.64063 32.1172,9.82813 C31.7891,10.0156 31.3906,10.1094 30.9219,10.1094 M31.1406,9.375 C31.4948,9.375 31.8099,9.29688 32.0859,9.14063 C32.362,8.98438 32.5807,8.76563 32.7422,8.48438 C32.9036,8.20313 32.9844,7.91146 32.9844,7.60938 L32.9844,7.125 L31.9219,7.15625 C31.474,7.15625 31.1328,7.20052 30.8984,7.28906 C30.6641,7.3776 30.4844,7.51042 30.3594,7.6875 C30.2344,7.86458 30.1719,8.09896 30.1719,8.39063 C30.1719,8.70313 30.2552,8.94531 30.4219,9.11719 C30.5885,9.28906 30.8281,9.375 31.1406,9.375 M37.75,12.2813 C37.125,12.2813 36.6224,12.1563 36.2422,11.9063 C35.862,11.6563 35.6198,11.3021 35.5156,10.8438 L36.4844,10.7031 C36.5469,10.974 36.6901,11.1823 36.9141,11.3281 C37.138,11.474 37.4271,11.5469 37.7813,11.5469 C38.75,11.5469 39.2344,10.9844 39.2344,9.85938 L39.2344,8.92188 L39.2188,8.92188 C39.0313,9.29688 38.7786,9.57813 38.4609,9.76563 C38.1432,9.95313 37.7708,10.0469 37.3438,10.0469 C36.6354,10.0469 36.1146,9.8099 35.7813,9.33594 C35.4479,8.86198 35.2813,8.11979 35.2813,7.10938 C35.2813,6.07813 35.4609,5.31771 35.8203,4.82813 C36.1797,4.33854 36.724,4.09375 37.4531,4.09375 C37.8698,4.09375 38.2292,4.1875 38.5313,4.375 C38.8333,4.5625 39.0677,4.83333 39.2344,5.1875 C39.2344,5.07292 39.2422,4.88281 39.2578,4.61719 C39.2734,4.35156 39.2865,4.20833 39.2969,4.1875 L40.2188,4.1875 C40.1979,4.38542 40.1875,4.78646 40.1875,5.39063 L40.1875,9.82813 C40.1875,11.4635 39.375,12.2813 37.75,12.2813 M39.2344,7.09375 C39.2344,6.625 39.1693,6.21875 39.0391,5.875 C38.9089,5.53125 38.7266,5.26823 38.4922,5.08594 C38.2578,4.90365 37.9896,4.8125 37.6875,4.8125 C37.1979,4.8125 36.8411,4.99219 36.6172,5.35156 C36.3932,5.71094 36.2813,6.29167 36.2813,7.09375 C36.2813,7.88542 36.3854,8.45573 36.5938,8.80469 C36.8021,9.15365 37.1615,9.32813 37.6719,9.32813 C37.974,9.32813 38.2448,9.23958 38.4844,9.0625 C38.724,8.88542 38.9089,8.6276 39.0391,8.28906 C39.1693,7.95052 39.2344,7.55208 39.2344,7.09375 M47.6719,4.70313 C47.6719,5.42188 47.4401,5.99219 46.9766,6.41406 C46.513,6.83594 45.8802,7.04688 45.0781,7.04688 L42.8438,7.04688 L42.8438,10 L41.8281,10 L41.8281,2.4375 L45.0156,2.4375 C45.8594,2.4375 46.513,2.63542 46.9766,3.03125 C47.4401,3.42708 47.6719,3.98438 47.6719,4.70313 M46.6406,4.71875 C46.6406,3.73958 46.0573,3.25 44.8906,3.25 L42.8438,3.25 L42.8438,6.23438 L44.9219,6.23438 C46.0677,6.23438 46.6406,5.72917 46.6406,4.71875 M48.9844,10 L48.9844,2.03125 L49.9531,2.03125 L49.9531,10 L48.9844,10 M52.9063,10.1094 C52.3229,10.1094 51.8854,9.95573 51.5938,9.64844 C51.3021,9.34115 51.1563,8.91667 51.1563,8.375 C51.1563,7.77083 51.3542,7.3099 51.75,6.99219 C52.1458,6.67448 52.7813,6.5 53.6563,6.46875 L54.9688,6.45313 L54.9688,6.14063 C54.9688,5.66146 54.8672,5.32031 54.6641,5.11719 C54.4609,4.91406 54.1458,4.8125 53.7188,4.8125 C53.2917,4.8125 52.9792,4.88542 52.7813,5.03125 C52.5833,5.17708 52.4635,5.41146 52.4219,5.73438 L51.4063,5.65625 C51.5729,4.60417 52.3542,4.07813 53.75,4.07813 C54.4792,4.07813 55.0286,4.24479 55.3984,4.57813 C55.7682,4.91146 55.9531,5.39583 55.9531,6.03125 L55.9531,8.53125 C55.9531,8.82292 55.9896,9.04167 56.0625,9.1875 C56.1354,9.33333 56.276,9.40625 56.4844,9.40625 C56.5781,9.40625 56.6875,9.39063 56.8125,9.35938 L56.8125,9.96875 C56.5625,10.0208 56.3125,10.0469 56.0625,10.0469 C55.6979,10.0469 55.4349,9.95313 55.2734,9.76563 C55.112,9.57813 55.0208,9.28646 55,8.89063 L54.9688,8.89063 C54.7188,9.32813 54.4297,9.64063 54.1016,9.82813 C53.7734,10.0156 53.375,10.1094 52.9063,10.1094 M53.125,9.375 C53.4792,9.375 53.7943,9.29688 54.0703,9.14063 C54.3464,8.98438 54.5651,8.76563 54.7266,8.48438 C54.888,8.20313 54.9688,7.91146 54.9688,7.60938 L54.9688,7.125 L53.9063,7.15625 C53.4583,7.15625 53.1172,7.20052 52.8828,7.28906 C52.6484,7.3776 52.4688,7.51042 52.3438,7.6875 C52.2188,7.86458 52.1563,8.09896 52.1563,8.39063 C52.1563,8.70313 52.2396,8.94531 52.4063,9.11719 C52.5729,9.28906 52.8125,9.375 53.125,9.375 M57.8281,12.2813 C57.5573,12.2813 57.3333,12.2604 57.1563,12.2188 L57.1563,11.5 C57.2917,11.5208 57.4427,11.5313 57.6094,11.5313 C58.2135,11.5313 58.6875,11.0885 59.0313,10.2031 L59.125,9.96875 L56.8281,4.1875 L57.8594,4.1875 L59.0781,7.40625 C59.099,7.44792 59.1224,7.50521 59.1484,7.57813 C59.1745,7.65104 59.2552,7.88542 59.3906,8.28125 C59.526,8.67708 59.599,8.90104 59.6094,8.95313 L59.9844,7.89063 L61.25,4.1875 L62.2813,4.1875 L60.0469,10 C59.8073,10.6146 59.5833,11.0755 59.375,11.3828 C59.1667,11.6901 58.9349,11.9167 58.6797,12.0625 C58.4245,12.2083 58.1406,12.2813 57.8281,12.2813 M63.7813,7.29688 C63.7813,7.96354 63.9193,8.47656 64.1953,8.83594 C64.4714,9.19531 64.875,9.375 65.4063,9.375 C65.8229,9.375 66.1563,9.29167 66.4063,9.125 C66.6563,8.95833 66.8281,8.74479 66.9219,8.48438 L67.7656,8.73438 C67.4219,9.65104 66.6354,10.1094 65.4063,10.1094 C64.5417,10.1094 63.8854,9.85417 63.4375,9.34375 C62.9896,8.83333 62.7656,8.07292 62.7656,7.0625 C62.7656,6.09375 62.9896,5.35417 63.4375,4.84375 C63.8854,4.33333 64.526,4.07813 65.3594,4.07813 C67.0677,4.07813 67.9219,5.10938 67.9219,7.17188 L67.9219,7.29688 L63.7813,7.29688 M66.9219,6.5625 C66.8698,5.94792 66.7161,5.5 66.4609,5.21875 C66.2057,4.9375 65.8333,4.79688 65.3438,4.79688 C64.875,4.79688 64.5052,4.95313 64.2344,5.26563 C63.9635,5.57813 63.8177,6.01042 63.7969,6.5625 L66.9219,6.5625 M69.1719,10 L69.1719,5.54688 C69.1719,5.13021 69.1615,4.67708 69.1406,4.1875 L70.0469,4.1875 C70.0781,4.84375 70.0938,5.23958 70.0938,5.375 L70.1094,5.375 C70.2656,4.875 70.4453,4.53385 70.6484,4.35156 C70.8516,4.16927 71.1354,4.07813 71.5,4.07813 C71.625,4.07813 71.7552,4.09896 71.8906,4.14063 L71.8906,5.01563 C71.7552,4.98438 71.5833,4.96875 71.375,4.96875 C70.9688,4.96875 70.6615,5.14063 70.4531,5.48438 C70.2448,5.82813 70.1406,6.32292 70.1406,6.96875 L70.1406,10 L69.1719,10"/>
</g>

<g fill="none" stroke="#000000" stroke-opacity="1" stroke-width="1" stroke-linecap="square" stroke-linejoin="bevel" transform="matrix(1.99964,0,0,1.99964,51.4155,22.9959)"
font-family="sans" font-size="11" font-weight="100" font-style="normal" 
>
</g>

<g fill="none" stroke="#000000" stroke-opacity="1" stroke-width="1" stroke-linecap="square" stroke-linejoin="bevel" transform="matrix(1.99964,0,0,1.99964,51.4155,22.9959)"
font-family="Open Sans" font-size="9" font-weight="400" font-style="normal" 
>
</g>

<g fill="none" stroke="#000000" stroke-opacity="1" stroke-width="1" stroke-linecap="square" stroke-linejoin="bevel" transform="matrix(1.99964,0,0,1.99964,-0.0027995,71.9871)"
font-family="Open Sans" font-size="9" font-weight="400" font-style="normal" 
>
</g>

<g fill="none" stroke="#000000" stroke-opacity="1" stroke-width="1" stroke-linecap="square" stroke-linejoin="bevel" transform="matrix(1.99964,0,0,1.99964,-0.0027995,71.9871)"
font-family="Open Sans" font-size="9" font-weight="400" font-style="normal" 
>
</g>

<g fill="none" stroke="#000000" stroke-opacity="1" stroke-width="1" stroke-linecap="square" stroke-linejoin="bevel" transform="matrix(1.99964,0,0,1.99964,-0.0027995,71.9871)"
font-family="Open Sans" font-size="9" font-weight="400" font-style="normal" 
>
</g>

<g fill="none" stroke="#000000" stroke-opacity="1" stroke-width="1" stroke-linecap="square" stroke-linejoin="round" transform="matrix(1.99964,0,0,1.99964,-0.0027995,71.9871)"
font-family="Open Sans" font-size="9" font-weight="400" font-style="normal" 
>
<ellipse cx="321.28" cy="-18" rx="72.292" ry="17.5"/>
</g>

<g fill="none" stroke="#000000" stroke-opacity="1" stroke-width="1" stroke-linecap="square" stroke-linejoin="bevel" transform="matrix(1.99964,0,0,1.99964,-0.0027995,71.9871)"
font-family="Open Sans" font-size="9" font-weight="400" font-style="normal" 
>
</g>

<g fill="none" stroke="#000000" stroke-opacity="1" stroke-width="1" stroke-linecap="square" stroke-linejoin="bevel" transform="matrix(1.99964,0,0,1.99964,557.598,22.9959)"
font-family="Open Sans" font-size="9" font-weight="400" font-style="normal" 
>
</g>

<g fill="none" stroke="#000000" stroke-opacity="1" stroke-width="1" stroke-linecap="square" stroke-linejoin="bevel" transform="matrix(1.99964,0,0,1.99964,557.598,22.9959)"
font-family="sans" font-size="11" font-weight="100" font-style="normal" 
>
</g>

<g fill="#000000" fill-opacity="1" stroke="#000000" stroke-opacity="1" stroke-width="1" stroke-linecap="square" stroke-linejoin="round" transform="matrix(1.99964,0,0,1.99964,557.598,22.9959)"
font-family="sans" font-size="11" font-weight="100" font-style="normal" 
>
<path vector-effect="none" fill-rule="nonzero" d="M0,10.1094 L2.20313,2.03125 L3.0625,2.03125 L0.875,10.1094 L0,10.1094 M4.53125,7.0625 C4.53125,7.84375 4.65104,8.41927 4.89063,8.78906 C5.13021,9.15885 5.49479,9.34375 5.98438,9.34375 C6.32813,9.34375 6.61719,9.25 6.85156,9.0625 C7.08594,8.875 7.22917,8.58854 7.28125,8.20313 L8.25,8.26563 C8.17708,8.82813 7.9401,9.27604 7.53906,9.60938 C7.13802,9.94271 6.63021,10.1094 6.01563,10.1094 C5.20313,10.1094 4.58333,9.85156 4.15625,9.33594 C3.72917,8.82031 3.51563,8.07292 3.51563,7.09375 C3.51563,6.11458 3.72917,5.36719 4.15625,4.85156 C4.58333,4.33594 5.19792,4.07813 6,4.07813 C6.59375,4.07813 7.08854,4.23177 7.48438,4.53906 C7.88021,4.84635 8.125,5.27083 8.21875,5.8125 L7.23438,5.89063 C7.18229,5.56771 7.05469,5.3125 6.85156,5.125 C6.64844,4.9375 6.35938,4.84375 5.98438,4.84375 C5.47396,4.84375 5.10417,5.01302 4.875,5.35156 C4.64583,5.6901 4.53125,6.26042 4.53125,7.0625 M10.7656,10.1094 C10.1823,10.1094 9.74479,9.95573 9.45313,9.64844 C9.16146,9.34115 9.01563,8.91667 9.01563,8.375 C9.01563,7.77083 9.21354,7.3099 9.60938,6.99219 C10.0052,6.67448 10.6406,6.5 11.5156,6.46875 L12.8281,6.45313 L12.8281,6.14063 C12.8281,5.66146 12.7266,5.32031 12.5234,5.11719 C12.3203,4.91406 12.0052,4.8125 11.5781,4.8125 C11.151,4.8125 10.8385,4.88542 10.6406,5.03125 C10.4427,5.17708 10.3229,5.41146 10.2813,5.73438 L9.26563,5.65625 C9.43229,4.60417 10.2135,4.07813 11.6094,4.07813 C12.3385,4.07813 12.888,4.24479 13.2578,4.57813 C13.6276,4.91146 13.8125,5.39583 13.8125,6.03125 L13.8125,8.53125 C13.8125,8.82292 13.849,9.04167 13.9219,9.1875 C13.9948,9.33333 14.1354,9.40625 14.3438,9.40625 C14.4375,9.40625 14.5469,9.39063 14.6719,9.35938 L14.6719,9.96875 C14.4219,10.0208 14.1719,10.0469 13.9219,10.0469 C13.5573,10.0469 13.2943,9.95313 13.1328,9.76563 C12.9714,9.57813 12.8802,9.28646 12.8594,8.89063 L12.8281,8.89063 C12.5781,9.32813 12.2891,9.64063 11.9609,9.82813 C11.6328,10.0156 11.2344,10.1094 10.7656,10.1094 M10.9844,9.375 C11.3385,9.375 11.6536,9.29688 11.9297,9.14063 C12.2057,8.98438 12.4245,8.76563 12.5859,8.48438 C12.7474,8.20313 12.8281,7.91146 12.8281,7.60938 L12.8281,7.125 L11.7656,7.15625 C11.3177,7.15625 10.9766,7.20052 10.7422,7.28906 C10.5078,7.3776 10.3281,7.51042 10.2031,7.6875 C10.0781,7.86458 10.0156,8.09896 10.0156,8.39063 C10.0156,8.70313 10.099,8.94531 10.2656,9.11719 C10.4323,9.28906 10.6719,9.375 10.9844,9.375 M18.7813,10 L18.7813,6.3125 C18.7813,5.75 18.7031,5.36198 18.5469,5.14844 C18.3906,4.9349 18.1146,4.82813 17.7188,4.82813 C17.3021,4.82813 16.974,4.98438 16.7344,5.29688 C16.4948,5.60938 16.375,6.05208 16.375,6.625 L16.375,10 L15.4219,10 L15.4219,5.42188 C15.4219,4.74479 15.4115,4.33333 15.3906,4.1875 L16.2969,4.1875 C16.3073,4.20833 16.3125,4.25781 16.3125,4.33594 C16.3125,4.41406 16.3151,4.5026 16.3203,4.60156 C16.3255,4.70052 16.3333,4.89583 16.3438,5.1875 L16.3594,5.1875 C16.5677,4.77083 16.8047,4.48177 17.0703,4.32031 C17.3359,4.15885 17.6667,4.07813 18.0625,4.07813 C18.5,4.07813 18.8464,4.16667 19.1016,4.34375 C19.3568,4.52083 19.5365,4.80208 19.6406,5.1875 L19.6563,5.1875 C19.8542,4.79167 20.0964,4.50781 20.3828,4.33594 C20.6693,4.16406 21.0104,4.07813 21.4063,4.07813 C22,4.07813 22.4297,4.23698 22.6953,4.55469 C22.9609,4.8724 23.0938,5.39583 23.0938,6.125 L23.0938,10 L22.1406,10 L22.1406,6.3125 C22.1406,5.75 22.0625,5.36198 21.9063,5.14844 C21.75,4.9349 21.474,4.82813 21.0781,4.82813 C20.651,4.82813 20.3203,4.98438 20.0859,5.29688 C19.8516,5.60938 19.7344,6.05208 19.7344,6.625 L19.7344,10 L18.7813,10 M25.2969,7.29688 C25.2969,7.96354 25.4349,8.47656 25.7109,8.83594 C25.987,9.19531 26.3906,9.375 26.9219,9.375 C27.3385,9.375 27.6719,9.29167 27.9219,9.125 C28.1719,8.95833 28.3438,8.74479 28.4375,8.48438 L29.2813,8.73438 C28.9375,9.65104 28.151,10.1094 26.9219,10.1094 C26.0573,10.1094 25.401,9.85417 24.9531,9.34375 C24.5052,8.83333 24.2813,8.07292 24.2813,7.0625 C24.2813,6.09375 24.5052,5.35417 24.9531,4.84375 C25.401,4.33333 26.0417,4.07813 26.875,4.07813 C28.5833,4.07813 29.4375,5.10938 29.4375,7.17188 L29.4375,7.29688 L25.2969,7.29688 M28.4375,6.5625 C28.3854,5.94792 28.2318,5.5 27.9766,5.21875 C27.7214,4.9375 27.349,4.79688 26.8594,4.79688 C26.3906,4.79688 26.0208,4.95313 25.75,5.26563 C25.4792,5.57813 25.3333,6.01042 25.3125,6.5625 L28.4375,6.5625 M30.6875,10 L30.6875,5.54688 C30.6875,5.13021 30.6771,4.67708 30.6563,4.1875 L31.5625,4.1875 C31.5938,4.84375 31.6094,5.23958 31.6094,5.375 L31.625,5.375 C31.7813,4.875 31.9609,4.53385 32.1641,4.35156 C32.3672,4.16927 32.651,4.07813 33.0156,4.07813 C33.1406,4.07813 33.2708,4.09896 33.4063,4.14063 L33.4063,5.01563 C33.2708,4.98438 33.099,4.96875 32.8906,4.96875 C32.4844,4.96875 32.1771,5.14063 31.9688,5.48438 C31.7604,5.82813 31.6563,6.32292 31.6563,6.96875 L31.6563,10 L30.6875,10 M35.7969,10.1094 C35.2135,10.1094 34.776,9.95573 34.4844,9.64844 C34.1927,9.34115 34.0469,8.91667 34.0469,8.375 C34.0469,7.77083 34.2448,7.3099 34.6406,6.99219 C35.0365,6.67448 35.6719,6.5 36.5469,6.46875 L37.8594,6.45313 L37.8594,6.14063 C37.8594,5.66146 37.7578,5.32031 37.5547,5.11719 C37.3516,4.91406 37.0365,4.8125 36.6094,4.8125 C36.1823,4.8125 35.8698,4.88542 35.6719,5.03125 C35.474,5.17708 35.3542,5.41146 35.3125,5.73438 L34.2969,5.65625 C34.4635,4.60417 35.2448,4.07813 36.6406,4.07813 C37.3698,4.07813 37.9193,4.24479 38.2891,4.57813 C38.6589,4.91146 38.8438,5.39583 38.8438,6.03125 L38.8438,8.53125 C38.8438,8.82292 38.8802,9.04167 38.9531,9.1875 C39.026,9.33333 39.1667,9.40625 39.375,9.40625 C39.4688,9.40625 39.5781,9.39063 39.7031,9.35938 L39.7031,9.96875 C39.4531,10.0208 39.2031,10.0469 38.9531,10.0469 C38.5885,10.0469 38.3255,9.95313 38.1641,9.76563 C38.0026,9.57813 37.9115,9.28646 37.8906,8.89063 L37.8594,8.89063 C37.6094,9.32813 37.3203,9.64063 36.9922,9.82813 C36.6641,10.0156 36.2656,10.1094 35.7969,10.1094 M36.0156,9.375 C36.3698,9.375 36.6849,9.29688 36.9609,9.14063 C37.237,8.98438 37.4557,8.76563 37.6172,8.48438 C37.7786,8.20313 37.8594,7.91146 37.8594,7.60938 L37.8594,7.125 L36.7969,7.15625 C36.349,7.15625 36.0078,7.20052 35.7734,7.28906 C35.5391,7.3776 35.3594,7.51042 35.2344,7.6875 C35.1094,7.86458 35.0469,8.09896 35.0469,8.39063 C35.0469,8.70313 35.1302,8.94531 35.2969,9.11719 C35.4635,9.28906 35.7031,9.375 36.0156,9.375 M41.1719,7.0625 C41.1719,7.84375 41.2917,8.41927 41.5313,8.78906 C41.7708,9.15885 42.1354,9.34375 42.625,9.34375 C42.9688,9.34375 43.2578,9.25 43.4922,9.0625 C43.7266,8.875 43.8698,8.58854 43.9219,8.20313 L44.8906,8.26563 C44.8177,8.82813 44.5807,9.27604 44.1797,9.60938 C43.7786,9.94271 43.2708,10.1094 42.6563,10.1094 C41.8438,10.1094 41.224,9.85156 40.7969,9.33594 C40.3698,8.82031 40.1563,8.07292 40.1563,7.09375 C40.1563,6.11458 40.3698,5.36719 40.7969,4.85156 C41.224,4.33594 41.8385,4.07813 42.6406,4.07813 C43.2344,4.07813 43.7292,4.23177 44.125,4.53906 C44.5208,4.84635 44.7656,5.27083 44.8594,5.8125 L43.875,5.89063 C43.8229,5.56771 43.6953,5.3125 43.4922,5.125 C43.2891,4.9375 43,4.84375 42.625,4.84375 C42.1146,4.84375 41.7448,5.01302 41.5156,5.35156 C41.2865,5.6901 41.1719,6.26042 41.1719,7.0625 M47.4063,10.1094 C46.8229,10.1094 46.3854,9.95573 46.0938,9.64844 C45.8021,9.34115 45.6563,8.91667 45.6563,8.375 C45.6563,7.77083 45.8542,7.3099 46.25,6.99219 C46.6458,6.67448 47.2813,6.5 48.1563,6.46875 L49.4688,6.45313 L49.4688,6.14063 C49.4688,5.66146 49.3672,5.32031 49.1641,5.11719 C48.9609,4.91406 48.6458,4.8125 48.2188,4.8125 C47.7917,4.8125 47.4792,4.88542 47.2813,5.03125 C47.0833,5.17708 46.9635,5.41146 46.9219,5.73438 L45.9063,5.65625 C46.0729,4.60417 46.8542,4.07813 48.25,4.07813 C48.9792,4.07813 49.5286,4.24479 49.8984,4.57813 C50.2682,4.91146 50.4531,5.39583 50.4531,6.03125 L50.4531,8.53125 C50.4531,8.82292 50.4896,9.04167 50.5625,9.1875 C50.6354,9.33333 50.776,9.40625 50.9844,9.40625 C51.0781,9.40625 51.1875,9.39063 51.3125,9.35938 L51.3125,9.96875 C51.0625,10.0208 50.8125,10.0469 50.5625,10.0469 C50.1979,10.0469 49.9349,9.95313 49.7734,9.76563 C49.612,9.57813 49.5208,9.28646 49.5,8.89063 L49.4688,8.89063 C49.2188,9.32813 48.9297,9.64063 48.6016,9.82813 C48.2734,10.0156 47.875,10.1094 47.4063,10.1094 M47.625,9.375 C47.9792,9.375 48.2943,9.29688 48.5703,9.14063 C48.8464,8.98438 49.0651,8.76563 49.2266,8.48438 C49.388,8.20313 49.4688,7.91146 49.4688,7.60938 L49.4688,7.125 L48.4063,7.15625 C47.9583,7.15625 47.6172,7.20052 47.3828,7.28906 C47.1484,7.3776 46.9688,7.51042 46.8438,7.6875 C46.7188,7.86458 46.6563,8.09896 46.6563,8.39063 C46.6563,8.70313 46.7396,8.94531 46.9063,9.11719 C47.0729,9.28906 47.3125,9.375 47.625,9.375 M52.0313,10 L52.0313,2.03125 L53,2.03125 L53,10 L52.0313,10 M54.4688,2.95313 L54.4688,2.03125 L55.4375,2.03125 L55.4375,2.95313 L54.4688,2.95313 M54.4688,10 L54.4688,4.1875 L55.4375,4.1875 L55.4375,10 L54.4688,10 M61.8281,7.0625 C61.8281,9.09375 61.1146,10.1094 59.6875,10.1094 C59.25,10.1094 58.8854,10.0286 58.5938,9.86719 C58.3021,9.70573 58.0625,9.44792 57.875,9.09375 C57.875,9.20833 57.8672,9.38021 57.8516,9.60938 C57.8359,9.83854 57.8229,9.96875 57.8125,10 L56.875,10 C56.8958,9.80208 56.9063,9.40104 56.9063,8.79688 L56.9063,2.03125 L57.875,2.03125 L57.875,4.29688 C57.875,4.53646 57.8698,4.8125 57.8594,5.125 L57.875,5.125 C58.0625,4.75 58.3021,4.48177 58.5938,4.32031 C58.8854,4.15885 59.25,4.07813 59.6875,4.07813 C60.4271,4.07813 60.9688,4.32552 61.3125,4.82031 C61.6563,5.3151 61.8281,6.0625 61.8281,7.0625 M60.8125,7.09375 C60.8125,6.28125 60.7057,5.70052 60.4922,5.35156 C60.2786,5.0026 59.9271,4.82813 59.4375,4.82813 C58.8958,4.82813 58.5,5.01302 58.25,5.38281 C58,5.7526 57.875,6.34375 57.875,7.15625 C57.875,7.91667 57.9974,8.47917 58.2422,8.84375 C58.487,9.20833 58.8854,9.39063 59.4375,9.39063 C59.9167,9.39063 60.2656,9.21094 60.4844,8.85156 C60.7031,8.49219 60.8125,7.90625 60.8125,7.09375 M63.0469,10 L63.0469,5.54688 C63.0469,5.13021 63.0365,4.67708 63.0156,4.1875 L63.9219,4.1875 C63.9531,4.84375 63.9688,5.23958 63.9688,5.375 L63.9844,5.375 C64.1406,4.875 64.3203,4.53385 64.5234,4.35156 C64.7266,4.16927 65.0104,4.07813 65.375,4.07813 C65.5,4.07813 65.6302,4.09896 65.7656,4.14063 L65.7656,5.01563 C65.6302,4.98438 65.4583,4.96875 65.25,4.96875 C64.8438,4.96875 64.5365,5.14063 64.3281,5.48438 C64.1198,5.82813 64.0156,6.32292 64.0156,6.96875 L64.0156,10 L63.0469,10 M68.1563,10.1094 C67.5729,10.1094 67.1354,9.95573 66.8438,9.64844 C66.5521,9.34115 66.4063,8.91667 66.4063,8.375 C66.4063,7.77083 66.6042,7.3099 67,6.99219 C67.3958,6.67448 68.0313,6.5 68.9063,6.46875 L70.2188,6.45313 L70.2188,6.14063 C70.2188,5.66146 70.1172,5.32031 69.9141,5.11719 C69.7109,4.91406 69.3958,4.8125 68.9688,4.8125 C68.5417,4.8125 68.2292,4.88542 68.0313,5.03125 C67.8333,5.17708 67.7135,5.41146 67.6719,5.73438 L66.6563,5.65625 C66.8229,4.60417 67.6042,4.07813 69,4.07813 C69.7292,4.07813 70.2786,4.24479 70.6484,4.57813 C71.0182,4.91146 71.2031,5.39583 71.2031,6.03125 L71.2031,8.53125 C71.2031,8.82292 71.2396,9.04167 71.3125,9.1875 C71.3854,9.33333 71.526,9.40625 71.7344,9.40625 C71.8281,9.40625 71.9375,9.39063 72.0625,9.35938 L72.0625,9.96875 C71.8125,10.0208 71.5625,10.0469 71.3125,10.0469 C70.9479,10.0469 70.6849,9.95313 70.5234,9.76563 C70.362,9.57813 70.2708,9.28646 70.25,8.89063 L70.2188,8.89063 C69.9688,9.32813 69.6797,9.64063 69.3516,9.82813 C69.0234,10.0156 68.625,10.1094 68.1563,10.1094 M68.375,9.375 C68.7292,9.375 69.0443,9.29688 69.3203,9.14063 C69.5964,8.98438 69.8151,8.76563 69.9766,8.48438 C70.138,8.20313 70.2188,7.91146 70.2188,7.60938 L70.2188,7.125 L69.1563,7.15625 C68.7083,7.15625 68.3672,7.20052 68.1328,7.28906 C67.8984,7.3776 67.7188,7.51042 67.5938,7.6875 C67.4688,7.86458 67.4063,8.09896 67.4063,8.39063 C67.4063,8.70313 67.4896,8.94531 67.6563,9.11719 C67.8229,9.28906 68.0625,9.375 68.375,9.375 M75.0156,9.95313 C74.7031,10.0469 74.3802,10.0938 74.0469,10.0938 C73.276,10.0938 72.8906,9.65104 72.8906,8.76563 L72.8906,4.89063 L72.2188,4.89063 L72.2188,4.1875 L72.9219,4.1875 L73.2031,2.89063 L73.8594,2.89063 L73.8594,4.1875 L74.9219,4.1875 L74.9219,4.89063 L73.8594,4.89063 L73.8594,8.5625 C73.8594,8.84375 73.9036,9.03906 73.9922,9.14844 C74.0807,9.25781 74.2396,9.3125 74.4688,9.3125 C74.5938,9.3125 74.776,9.29167 75.0156,9.25 L75.0156,9.95313 M80.75,7.09375 C80.75,8.10417 80.526,8.85938 80.0781,9.35938 C79.6302,9.85938 78.9792,10.1094 78.125,10.1094 C77.2813,10.1094 76.6432,9.85156 76.2109,9.33594 C75.7786,8.82031 75.5625,8.07292 75.5625,7.09375 C75.5625,5.08333 76.4271,4.07813 78.1563,4.07813 C79.0521,4.07813 79.7083,4.32292 80.125,4.8125 C80.5417,5.30208 80.75,6.0625 80.75,7.09375 M79.7344,7.09375 C79.7344,6.29167 79.6146,5.70833 79.375,5.34375 C79.1354,4.97917 78.7344,4.79688 78.1719,4.79688 C77.6094,4.79688 77.2031,4.98177 76.9531,5.35156 C76.7031,5.72135 76.5781,6.30208 76.5781,7.09375 C76.5781,7.85417 76.7005,8.42708 76.9453,8.8125 C77.1901,9.19792 77.5833,9.39063 78.125,9.39063 C78.6979,9.39063 79.1094,9.20573 79.3594,8.83594 C79.6094,8.46615 79.7344,7.88542 79.7344,7.09375 M81.9688,10 L81.9688,5.54688 C81.9688,5.13021 81.9583,4.67708 81.9375,4.1875 L82.8438,4.1875 C82.875,4.84375 82.8906,5.23958 82.8906,5.375 L82.9063,5.375 C83.0625,4.875 83.2422,4.53385 83.4453,4.35156 C83.6484,4.16927 83.9323,4.07813 84.2969,4.07813 C84.4219,4.07813 84.5521,4.09896 84.6875,4.14063 L84.6875,5.01563 C84.5521,4.98438 84.3802,4.96875 84.1719,4.96875 C83.7656,4.96875 83.4583,5.14063 83.25,5.48438 C83.0417,5.82813 82.9375,6.32292 82.9375,6.96875 L82.9375,10 L81.9688,10"/>
</g>

<g fill="none" stroke="#000000" stroke-opacity="1" stroke-width="1" stroke-linecap="square" stroke-linejoin="bevel" transform="matrix(1.99964,0,0,1.99964,557.598,22.9959)"
font-family="sans" font-size="11" font-weight="100" font-style="normal" 
>
</g>

<g fill="none" stroke="#000000" stroke-opacity="1" stroke-width="1" stroke-linecap="square" stroke-linejoin="bevel" transform="matrix(1.99964,0,0,1.99964,557.598,22.9959)"
font-family="Open Sans" font-size="9" font-weight="400" font-style="normal" 
>
</g>

<g fill="none" stroke="#000000" stroke-opacity="1" stroke-width="1" stroke-linecap="square" stroke-linejoin="bevel" transform="matrix(1.99964,0,0,1.99964,-0.0027995,71.9871)"
font-family="Open Sans" font-size="9" font-weight="400" font-style="normal" 
>
</g>

<g fill="none" stroke="#000000" stroke-opacity="1" stroke-width="1" stroke-linecap="square" stroke-linejoin="bevel" transform="matrix(1.99964,0,0,1.99964,-0.0027995,71.9871)"
font-family="Open Sans" font-size="9" font-weight="400" font-style="normal" 
>
</g>

<g fill="none" stroke="#000000" stroke-opacity="1" stroke-width="1" stroke-linecap="square" stroke-linejoin="bevel" transform="matrix(1.99964,0,0,1.99964,-0.0027995,71.9871)"
font-family="Open Sans" font-size="9" font-weight="400" font-style="normal" 
>
</g>

<g fill="none" stroke="#000000" stroke-opacity="1" stroke-width="1" stroke-linecap="square" stroke-linejoin="round" transform="matrix(1.99964,0,0,1.99964,-0.0027995,71.9871)"
font-family="Open Sans" font-size="9" font-weight="400" font-style="normal" 
>
<path vector-effect="none" fill-rule="evenodd" d="M123.58,-18 C157.84,-18 200.9,-18 238.08,-18 "/>
</g>

<g fill="none" stroke="#000000" stroke-opacity="1" stroke-width="1" stroke-linecap="square" stroke-linejoin="bevel" transform="matrix(1.99964,0,0,1.99964,-0.0027995,71.9871)"
font-family="Open Sans" font-size="9" font-weight="400" font-style="normal" 
>
</g>

<g fill="none" stroke="#000000" stroke-opacity="1" stroke-width="1" stroke-linecap="square" stroke-linejoin="bevel" transform="matrix(1.99964,0,0,1.99964,275.459,7.99857)"
font-family="Open Sans" font-size="9" font-weight="400" font-style="normal" 
>
</g>

<g fill="none" stroke="#000000" stroke-opacity="1" stroke-width="1" stroke-linecap="square" stroke-linejoin="bevel" transform="matrix(1.99964,0,0,1.99964,275.459,7.99857)"
font-family="sans" font-size="11" font-weight="100" font-style="normal" 
>
</g>

<g fill="#000000" fill-opacity="1" stroke="#000000" stroke-opacity="1" stroke-width="1" stroke-linecap="square" stroke-linejoin="round" transform="matrix(1.99964,0,0,1.99964,275.459,7.99857)"
font-family="sans" font-size="11" font-weight="100" font-style="normal" 
>
<path vector-effect="none" fill-rule="nonzero" d="M0,10.1094 L2.20313,2.03125 L3.0625,2.03125 L0.875,10.1094 L0,10.1094 M4.53125,7.0625 C4.53125,7.84375 4.65104,8.41927 4.89063,8.78906 C5.13021,9.15885 5.49479,9.34375 5.98438,9.34375 C6.32813,9.34375 6.61719,9.25 6.85156,9.0625 C7.08594,8.875 7.22917,8.58854 7.28125,8.20313 L8.25,8.26563 C8.17708,8.82813 7.9401,9.27604 7.53906,9.60938 C7.13802,9.94271 6.63021,10.1094 6.01563,10.1094 C5.20313,10.1094 4.58333,9.85156 4.15625,9.33594 C3.72917,8.82031 3.51563,8.07292 3.51563,7.09375 C3.51563,6.11458 3.72917,5.36719 4.15625,4.85156 C4.58333,4.33594 5.19792,4.07813 6,4.07813 C6.59375,4.07813 7.08854,4.23177 7.48438,4.53906 C7.88021,4.84635 8.125,5.27083 8.21875,5.8125 L7.23438,5.89063 C7.18229,5.56771 7.05469,5.3125 6.85156,5.125 C6.64844,4.9375 6.35938,4.84375 5.98438,4.84375 C5.47396,4.84375 5.10417,5.01302 4.875,5.35156 C4.64583,5.6901 4.53125,6.26042 4.53125,7.0625 M10.7656,10.1094 C10.1823,10.1094 9.74479,9.95573 9.45313,9.64844 C9.16146,9.34115 9.01563,8.91667 9.01563,8.375 C9.01563,7.77083 9.21354,7.3099 9.60938,6.99219 C10.0052,6.67448 10.6406,6.5 11.5156,6.46875 L12.8281,6.45313 L12.8281,6.14063 C12.8281,5.66146 12.7266,5.32031 12.5234,5.11719 C12.3203,4.91406 12.0052,4.8125 11.5781,4.8125 C11.151,4.8125 10.8385,4.88542 10.6406,5.03125 C10.4427,5.17708 10.3229,5.41146 10.2813,5.73438 L9.26563,5.65625 C9.43229,4.60417 10.2135,4.07813 11.6094,4.07813 C12.3385,4.07813 12.888,4.24479 13.2578,4.57813 C13.6276,4.91146 13.8125,5.39583 13.8125,6.03125 L13.8125,8.53125 C13.8125,8.82292 13.849,9.04167 13.9219,9.1875 C13.9948,9.33333 14.1354,9.40625 14.3438,9.40625 C14.4375,9.40625 14.5469,9.39063 14.6719,9.35938 L14.6719,9.96875 C14.4219,10.0208 14.1719,10.0469 13.9219,10.0469 C13.5573,10.0469 13.2943,9.95313 13.1328,9.76563 C12.9714,9.57813 12.8802,9.28646 12.8594,8.89063 L12.8281,8.89063 C12.5781,9.32813 12.2891,9.64063 11.9609,9.82813 C11.6328,10.0156 11.2344,10.1094 10.7656,10.1094 M10.9844,9.375 C11.3385,9.375 11.6536,9.29688 11.9297,9.14063 C12.2057,8.98438 12.4245,8.76563 12.5859,8.48438 C12.7474,8.20313 12.8281,7.91146 12.8281,7.60938 L12.8281,7.125 L11.7656,7.15625 C11.3177,7.15625 10.9766,7.20052 10.7422,7.28906 C10.5078,7.3776 10.3281,7.51042 10.2031,7.6875 C10.0781,7.86458 10.0156,8.09896 10.0156,8.39063 C10.0156,8.70313 10.099,8.94531 10.2656,9.11719 C10.4323,9.28906 10.6719,9.375 10.9844,9.375 M18.7813,10 L18.7813,6.3125 C18.7813,5.75 18.7031,5.36198 18.5469,5.14844 C18.3906,4.9349 18.1146,4.82813 17.7188,4.82813 C17.3021,4.82813 16.974,4.98438 16.7344,5.29688 C16.4948,5.60938 16.375,6.05208 16.375,6.625 L16.375,10 L15.4219,10 L15.4219,5.42188 C15.4219,4.74479 15.4115,4.33333 15.3906,4.1875 L16.2969,4.1875 C16.3073,4.20833 16.3125,4.25781 16.3125,4.33594 C16.3125,4.41406 16.3151,4.5026 16.3203,4.60156 C16.3255,4.70052 16.3333,4.89583 16.3438,5.1875 L16.3594,5.1875 C16.5677,4.77083 16.8047,4.48177 17.0703,4.32031 C17.3359,4.15885 17.6667,4.07813 18.0625,4.07813 C18.5,4.07813 18.8464,4.16667 19.1016,4.34375 C19.3568,4.52083 19.5365,4.80208 19.6406,5.1875 L19.6563,5.1875 C19.8542,4.79167 20.0964,4.50781 20.3828,4.33594 C20.6693,4.16406 21.0104,4.07813 21.4063,4.07813 C22,4.07813 22.4297,4.23698 22.6953,4.55469 C22.9609,4.8724 23.0938,5.39583 23.0938,6.125 L23.0938,10 L22.1406,10 L22.1406,6.3125 C22.1406,5.75 22.0625,5.36198 21.9063,5.14844 C21.75,4.9349 21.474,4.82813 21.0781,4.82813 C20.651,4.82813 20.3203,4.98438 20.0859,5.29688 C19.8516,5.60938 19.7344,6.05208 19.7344,6.625 L19.7344,10 L18.7813,10 M25.2969,7.29688 C25.2969,7.96354 25.4349,8.47656 25.7109,8.83594 C25.987,9.19531 26.3906,9.375 26.9219,9.375 C27.3385,9.375 27.6719,9.29167 27.9219,9.125 C28.1719,8.95833 28.3438,8.74479 28.4375,8.48438 L29.2813,8.73438 C28.9375,9.65104 28.151,10.1094 26.9219,10.1094 C26.0573,10.1094 25.401,9.85417 24.9531,9.34375 C24.5052,8.83333 24.2813,8.07292 24.2813,7.0625 C24.2813,6.09375 24.5052,5.35417 24.9531,4.84375 C25.401,4.33333 26.0417,4.07813 26.875,4.07813 C28.5833,4.07813 29.4375,5.10938 29.4375,7.17188 L29.4375,7.29688 L25.2969,7.29688 M28.4375,6.5625 C28.3854,5.94792 28.2318,5.5 27.9766,5.21875 C27.7214,4.9375 27.349,4.79688 26.8594,4.79688 C26.3906,4.79688 26.0208,4.95313 25.75,5.26563 C25.4792,5.57813 25.3333,6.01042 25.3125,6.5625 L28.4375,6.5625 M30.6875,10 L30.6875,5.54688 C30.6875,5.13021 30.6771,4.67708 30.6563,4.1875 L31.5625,4.1875 C31.5938,4.84375 31.6094,5.23958 31.6094,5.375 L31.625,5.375 C31.7813,4.875 31.9609,4.53385 32.1641,4.35156 C32.3672,4.16927 32.651,4.07813 33.0156,4.07813 C33.1406,4.07813 33.2708,4.09896 33.4063,4.14063 L33.4063,5.01563 C33.2708,4.98438 33.099,4.96875 32.8906,4.96875 C32.4844,4.96875 32.1771,5.14063 31.9688,5.48438 C31.7604,5.82813 31.6563,6.32292 31.6563,6.96875 L31.6563,10 L30.6875,10 M35.7969,10.1094 C35.2135,10.1094 34.776,9.95573 34.4844,9.64844 C34.1927,9.34115 34.0469,8.91667 34.0469,8.375 C34.0469,7.77083 34.2448,7.3099 34.6406,6.99219 C35.0365,6.67448 35.6719,6.5 36.5469,6.46875 L37.8594,6.45313 L37.8594,6.14063 C37.8594,5.66146 37.7578,5.32031 37.5547,5.11719 C37.3516,4.91406 37.0365,4.8125 36.6094,4.8125 C36.1823,4.8125 35.8698,4.88542 35.6719,5.03125 C35.474,5.17708 35.3542,5.41146 35.3125,5.73438 L34.2969,5.65625 C34.4635,4.60417 35.2448,4.07813 36.6406,4.07813 C37.3698,4.07813 37.9193,4.24479 38.2891,4.57813 C38.6589,4.91146 38.8438,5.39583 38.8438,6.03125 L38.8438,8.53125 C38.8438,8.82292 38.8802,9.04167 38.9531,9.1875 C39.026,9.33333 39.1667,9.40625 39.375,9.40625 C39.4688,9.40625 39.5781,9.39063 39.7031,9.35938 L39.7031,9.96875 C39.4531,10.0208 39.2031,10.0469 38.9531,10.0469 C38.5885,10.0469 38.3255,9.95313 38.1641,9.76563 C38.0026,9.57813 37.9115,9.28646 37.8906,8.89063 L37.8594,8.89063 C37.6094,9.32813 37.3203,9.64063 36.9922,9.82813 C36.6641,10.0156 36.2656,10.1094 35.7969,10.1094 M36.0156,9.375 C36.3698,9.375 36.6849,9.29688 36.9609,9.14063 C37.237,8.98438 37.4557,8.76563 37.6172,8.48438 C37.7786,8.20313 37.8594,7.91146 37.8594,7.60938 L37.8594,7.125 L36.7969,7.15625 C36.349,7.15625 36.0078,7.20052 35.7734,7.28906 C35.5391,7.3776 35.3594,7.51042 35.2344,7.6875 C35.1094,7.86458 35.0469,8.09896 35.0469,8.39063 C35.0469,8.70313 35.1302,8.94531 35.2969,9.11719 C35.4635,9.28906 35.7031,9.375 36.0156,9.375 M39.6875,10.1094 L41.8906,2.03125 L42.75,2.03125 L40.5625,10.1094 L39.6875,10.1094 M43.4688,2.95313 L43.4688,2.03125 L44.4375,2.03125 L44.4375,2.95313 L43.4688,2.95313 M43.4688,10 L43.4688,4.1875 L44.4375,4.1875 L44.4375,10 L43.4688,10 M49.2969,10 L49.2969,6.3125 C49.2969,5.75 49.2188,5.36198 49.0625,5.14844 C48.9063,4.9349 48.6302,4.82813 48.2344,4.82813 C47.8177,4.82813 47.4896,4.98438 47.25,5.29688 C47.0104,5.60938 46.8906,6.05208 46.8906,6.625 L46.8906,10 L45.9375,10 L45.9375,5.42188 C45.9375,4.74479 45.9271,4.33333 45.9063,4.1875 L46.8125,4.1875 C46.8229,4.20833 46.8281,4.25781 46.8281,4.33594 C46.8281,4.41406 46.8307,4.5026 46.8359,4.60156 C46.8411,4.70052 46.849,4.89583 46.8594,5.1875 L46.875,5.1875 C47.0833,4.77083 47.3203,4.48177 47.5859,4.32031 C47.8516,4.15885 48.1823,4.07813 48.5781,4.07813 C49.0156,4.07813 49.362,4.16667 49.6172,4.34375 C49.8724,4.52083 50.0521,4.80208 50.1563,5.1875 L50.1719,5.1875 C50.3698,4.79167 50.612,4.50781 50.8984,4.33594 C51.1849,4.16406 51.526,4.07813 51.9219,4.07813 C52.5156,4.07813 52.9453,4.23698 53.2109,4.55469 C53.4766,4.8724 53.6094,5.39583 53.6094,6.125 L53.6094,10 L52.6563,10 L52.6563,6.3125 C52.6563,5.75 52.5781,5.36198 52.4219,5.14844 C52.2656,4.9349 51.9896,4.82813 51.5938,4.82813 C51.1667,4.82813 50.8359,4.98438 50.6016,5.29688 C50.3672,5.60938 50.25,6.05208 50.25,6.625 L50.25,10 L49.2969,10 M56.5469,10.1094 C55.9635,10.1094 55.526,9.95573 55.2344,9.64844 C54.9427,9.34115 54.7969,8.91667 54.7969,8.375 C54.7969,7.77083 54.9948,7.3099 55.3906,6.99219 C55.7865,6.67448 56.4219,6.5 57.2969,6.46875 L58.6094,6.45313 L58.6094,6.14063 C58.6094,5.66146 58.5078,5.32031 58.3047,5.11719 C58.1016,4.91406 57.7865,4.8125 57.3594,4.8125 C56.9323,4.8125 56.6198,4.88542 56.4219,5.03125 C56.224,5.17708 56.1042,5.41146 56.0625,5.73438 L55.0469,5.65625 C55.2135,4.60417 55.9948,4.07813 57.3906,4.07813 C58.1198,4.07813 58.6693,4.24479 59.0391,4.57813 C59.4089,4.91146 59.5938,5.39583 59.5938,6.03125 L59.5938,8.53125 C59.5938,8.82292 59.6302,9.04167 59.7031,9.1875 C59.776,9.33333 59.9167,9.40625 60.125,9.40625 C60.2188,9.40625 60.3281,9.39063 60.4531,9.35938 L60.4531,9.96875 C60.2031,10.0208 59.9531,10.0469 59.7031,10.0469 C59.3385,10.0469 59.0755,9.95313 58.9141,9.76563 C58.7526,9.57813 58.6615,9.28646 58.6406,8.89063 L58.6094,8.89063 C58.3594,9.32813 58.0703,9.64063 57.7422,9.82813 C57.4141,10.0156 57.0156,10.1094 56.5469,10.1094 M56.7656,9.375 C57.1198,9.375 57.4349,9.29688 57.7109,9.14063 C57.987,8.98438 58.2057,8.76563 58.3672,8.48438 C58.5286,8.20313 58.6094,7.91146 58.6094,7.60938 L58.6094,7.125 L57.5469,7.15625 C57.099,7.15625 56.7578,7.20052 56.5234,7.28906 C56.2891,7.3776 56.1094,7.51042 55.9844,7.6875 C55.8594,7.86458 55.7969,8.09896 55.7969,8.39063 C55.7969,8.70313 55.8802,8.94531 56.0469,9.11719 C56.2135,9.28906 56.4531,9.375 56.7656,9.375 M63.375,12.2813 C62.75,12.2813 62.2474,12.1563 61.8672,11.9063 C61.487,11.6563 61.2448,11.3021 61.1406,10.8438 L62.1094,10.7031 C62.1719,10.974 62.3151,11.1823 62.5391,11.3281 C62.763,11.474 63.0521,11.5469 63.4063,11.5469 C64.375,11.5469 64.8594,10.9844 64.8594,9.85938 L64.8594,8.92188 L64.8438,8.92188 C64.6563,9.29688 64.4036,9.57813 64.0859,9.76563 C63.7682,9.95313 63.3958,10.0469 62.9688,10.0469 C62.2604,10.0469 61.7396,9.8099 61.4063,9.33594 C61.0729,8.86198 60.9063,8.11979 60.9063,7.10938 C60.9063,6.07813 61.0859,5.31771 61.4453,4.82813 C61.8047,4.33854 62.349,4.09375 63.0781,4.09375 C63.4948,4.09375 63.8542,4.1875 64.1563,4.375 C64.4583,4.5625 64.6927,4.83333 64.8594,5.1875 C64.8594,5.07292 64.8672,4.88281 64.8828,4.61719 C64.8984,4.35156 64.9115,4.20833 64.9219,4.1875 L65.8438,4.1875 C65.8229,4.38542 65.8125,4.78646 65.8125,5.39063 L65.8125,9.82813 C65.8125,11.4635 65,12.2813 63.375,12.2813 M64.8594,7.09375 C64.8594,6.625 64.7943,6.21875 64.6641,5.875 C64.5339,5.53125 64.3516,5.26823 64.1172,5.08594 C63.8828,4.90365 63.6146,4.8125 63.3125,4.8125 C62.8229,4.8125 62.4661,4.99219 62.2422,5.35156 C62.0182,5.71094 61.9063,6.29167 61.9063,7.09375 C61.9063,7.88542 62.0104,8.45573 62.2188,8.80469 C62.4271,9.15365 62.7865,9.32813 63.2969,9.32813 C63.599,9.32813 63.8698,9.23958 64.1094,9.0625 C64.349,8.88542 64.5339,8.6276 64.6641,8.28906 C64.7943,7.95052 64.8594,7.55208 64.8594,7.09375 M68.0313,7.29688 C68.0313,7.96354 68.1693,8.47656 68.4453,8.83594 C68.7214,9.19531 69.125,9.375 69.6563,9.375 C70.0729,9.375 70.4063,9.29167 70.6563,9.125 C70.9063,8.95833 71.0781,8.74479 71.1719,8.48438 L72.0156,8.73438 C71.6719,9.65104 70.8854,10.1094 69.6563,10.1094 C68.7917,10.1094 68.1354,9.85417 67.6875,9.34375 C67.2396,8.83333 67.0156,8.07292 67.0156,7.0625 C67.0156,6.09375 67.2396,5.35417 67.6875,4.84375 C68.1354,4.33333 68.776,4.07813 69.6094,4.07813 C71.3177,4.07813 72.1719,5.10938 72.1719,7.17188 L72.1719,7.29688 L68.0313,7.29688 M71.1719,6.5625 C71.1198,5.94792 70.9661,5.5 70.7109,5.21875 C70.4557,4.9375 70.0833,4.79688 69.5938,4.79688 C69.125,4.79688 68.7552,4.95313 68.4844,5.26563 C68.2135,5.57813 68.0677,6.01042 68.0469,6.5625 L71.1719,6.5625 M72.4844,12.1875 L72.4844,11.4844 L78.8906,11.4844 L78.8906,12.1875 L72.4844,12.1875 M79.5313,10 L79.5313,5.54688 C79.5313,5.13021 79.5208,4.67708 79.5,4.1875 L80.4063,4.1875 C80.4375,4.84375 80.4531,5.23958 80.4531,5.375 L80.4688,5.375 C80.625,4.875 80.8047,4.53385 81.0078,4.35156 C81.2109,4.16927 81.4948,4.07813 81.8594,4.07813 C81.9844,4.07813 82.1146,4.09896 82.25,4.14063 L82.25,5.01563 C82.1146,4.98438 81.9427,4.96875 81.7344,4.96875 C81.3281,4.96875 81.0208,5.14063 80.8125,5.48438 C80.6042,5.82813 80.5,6.32292 80.5,6.96875 L80.5,10 L79.5313,10 M84.6406,10.1094 C84.0573,10.1094 83.6198,9.95573 83.3281,9.64844 C83.0365,9.34115 82.8906,8.91667 82.8906,8.375 C82.8906,7.77083 83.0885,7.3099 83.4844,6.99219 C83.8802,6.67448 84.5156,6.5 85.3906,6.46875 L86.7031,6.45313 L86.7031,6.14063 C86.7031,5.66146 86.6016,5.32031 86.3984,5.11719 C86.1953,4.91406 85.8802,4.8125 85.4531,4.8125 C85.026,4.8125 84.7135,4.88542 84.5156,5.03125 C84.3177,5.17708 84.1979,5.41146 84.1563,5.73438 L83.1406,5.65625 C83.3073,4.60417 84.0885,4.07813 85.4844,4.07813 C86.2135,4.07813 86.763,4.24479 87.1328,4.57813 C87.5026,4.91146 87.6875,5.39583 87.6875,6.03125 L87.6875,8.53125 C87.6875,8.82292 87.724,9.04167 87.7969,9.1875 C87.8698,9.33333 88.0104,9.40625 88.2188,9.40625 C88.3125,9.40625 88.4219,9.39063 88.5469,9.35938 L88.5469,9.96875 C88.2969,10.0208 88.0469,10.0469 87.7969,10.0469 C87.4323,10.0469 87.1693,9.95313 87.0078,9.76563 C86.8464,9.57813 86.7552,9.28646 86.7344,8.89063 L86.7031,8.89063 C86.4531,9.32813 86.1641,9.64063 85.8359,9.82813 C85.5078,10.0156 85.1094,10.1094 84.6406,10.1094 M84.8594,9.375 C85.2135,9.375 85.5286,9.29688 85.8047,9.14063 C86.0807,8.98438 86.2995,8.76563 86.4609,8.48438 C86.6224,8.20313 86.7031,7.91146 86.7031,7.60938 L86.7031,7.125 L85.6406,7.15625 C85.1927,7.15625 84.8516,7.20052 84.6172,7.28906 C84.3828,7.3776 84.2031,7.51042 84.0781,7.6875 C83.9531,7.86458 83.8906,8.09896 83.8906,8.39063 C83.8906,8.70313 83.974,8.94531 84.1406,9.11719 C84.3073,9.28906 84.5469,9.375 84.8594,9.375 M94.8438,10 L93.7188,10 L92.7031,5.89063 L92.5,4.98438 C92.4688,5.14063 92.4193,5.36979 92.3516,5.67188 C92.2839,5.97396 91.9219,7.41667 91.2656,10 L90.1406,10 L88.5156,4.1875 L89.4688,4.1875 L90.4531,8.14063 C90.474,8.22396 90.5521,8.57813 90.6875,9.20313 L90.7813,8.79688 L91.9844,4.1875 L93.0313,4.1875 L94.0469,8.17188 L94.2969,9.20313 L94.4531,8.45313 L95.5625,4.1875 L96.5,4.1875 L94.8438,10"/>
</g>

<g fill="none" stroke="#000000" stroke-opacity="1" stroke-width="1" stroke-linecap="square" stroke-linejoin="bevel" transform="matrix(1.99964,0,0,1.99964,275.459,7.99857)"
font-family="sans" font-size="11" font-weight="100" font-style="normal" 
>
</g>

<g fill="none" stroke="#000000" stroke-opacity="1" stroke-width="1" stroke-linecap="square" stroke-linejoin="bevel" transform="matrix(1.99964,0,0,1.99964,275.459,7.99857)"
font-family="Open Sans" font-size="9" font-weight="400" font-style="normal" 
>
</g>

<g fill="none" stroke="#000000" stroke-opacity="1" stroke-width="1" stroke-linecap="square" stroke-linejoin="bevel" transform="matrix(1.99964,0,0,1.99964,-0.0027995,71.9871)"
font-family="Open Sans" font-size="9" font-weight="400" font-style="normal" 
>
</g>

<g fill="#000000" fill-opacity="1" stroke="#000000" stroke-opacity="1" stroke-width="1" stroke-linecap="square" stroke-linejoin="round" transform="matrix(1.99964,0,0,1.99964,-0.0027995,71.9871)"
font-family="Open Sans" font-size="9" font-weight="400" font-style="normal" 
>
<path vector-effect="none" fill-rule="evenodd" d="M238.08,-18 L238.08,-14.388 L248.4,-18 L238.08,-21.612 L238.08,-18"/>
</g>

<g fill="none" stroke="#000000" stroke-opacity="1" stroke-width="1" stroke-linecap="square" stroke-linejoin="bevel" transform="matrix(1.99964,0,0,1.99964,-0.0027995,71.9871)"
font-family="Open Sans" font-size="9" font-weight="400" font-style="normal" 
>
</g>

<g fill="none" stroke="#000000" stroke-opacity="1" stroke-width="1" stroke-linecap="square" stroke-linejoin="bevel" transform="matrix(1,0,0,1,0,0)"
font-family="Open Sans" font-size="9" font-weight="400" font-style="normal" 
>
</g>
</g>
</svg>
