<?xml version="1.0" encoding="UTF-8" standalone="no"?>
<!-- Created with Inkscape (http://www.inkscape.org/) -->

<svg
   xmlns:dc="http://purl.org/dc/elements/1.1/"
   xmlns:cc="http://creativecommons.org/ns#"
   xmlns:rdf="http://www.w3.org/1999/02/22-rdf-syntax-ns#"
   xmlns:svg="http://www.w3.org/2000/svg"
   xmlns="http://www.w3.org/2000/svg"
   xmlns:sodipodi="http://sodipodi.sourceforge.net/DTD/sodipodi-0.dtd"
   xmlns:inkscape="http://www.inkscape.org/namespaces/inkscape"
   width="210mm"
   height="297mm"
   viewBox="0 0 210 297"
   version="1.1"
   id="svg8"
   enable-background="new"
   inkscape:version="0.92.3 (2405546, 2018-03-11)"
   sodipodi:docname="organized-point-cloud-1.svg">
  <sodipodi:namedview
     id="base"
     pagecolor="#ffffff"
     bordercolor="#666666"
     borderopacity="1.0"
     inkscape:pageopacity="0.0"
     inkscape:pageshadow="2"
     inkscape:zoom="0.49497475"
     inkscape:cx="-262.18772"
     inkscape:cy="405.68548"
     inkscape:document-units="mm"
     inkscape:current-layer="layer1"
     showgrid="false"
     inkscape:window-width="1680"
     inkscape:window-height="990"
     inkscape:window-x="1920"
     inkscape:window-y="32"
     inkscape:window-maximized="1" />
  <defs
     id="defs2">
    <marker
       inkscape:stockid="Arrow2Lend"
       orient="auto"
       refY="0.0"
       refX="0.0"
       id="Arrow2Lend"
       style="overflow:visible;"
       inkscape:isstock="true">
      <path
         id="path3635"
         style="fill-rule:evenodd;stroke-width:0.625;stroke-linejoin:round;stroke:#000000;stroke-opacity:1;fill:#000000;fill-opacity:1"
         d="M 8.7185878,4.0337352 L -2.2072895,0.016013256 L 8.7185884,-4.0017078 C 6.9730900,-1.6296469 6.9831476,1.6157441 8.7185878,4.0337352 z "
         transform="scale(1.1) rotate(180) translate(1,0)" />
    </marker>
    <marker
       inkscape:stockid="Arrow2Lstart"
       orient="auto"
       refY="0.0"
       refX="0.0"
       id="Arrow2Lstart"
       style="overflow:visible"
       inkscape:isstock="true">
      <path
         id="path3632"
         style="fill-rule:evenodd;stroke-width:0.625;stroke-linejoin:round;stroke:#000000;stroke-opacity:1;fill:#000000;fill-opacity:1"
         d="M 8.7185878,4.0337352 L -2.2072895,0.016013256 L 8.7185884,-4.0017078 C 6.9730900,-1.6296469 6.9831476,1.6157441 8.7185878,4.0337352 z "
         transform="scale(1.1) translate(1,0)" />
    </marker>
    <marker
       inkscape:stockid="Arrow2Lstart"
       orient="auto"
       refY="0"
       refX="0"
       id="Arrow2Lstart-3"
       style="overflow:visible"
       inkscape:isstock="true">
      <path
         inkscape:connector-curvature="0"
         id="path3632-6"
         style="fill:#000000;fill-opacity:1;fill-rule:evenodd;stroke:#000000;stroke-width:0.625;stroke-linejoin:round;stroke-opacity:1"
         d="M 8.7185878,4.0337352 -2.2072895,0.01601326 8.7185884,-4.0017078 c -1.7454984,2.3720609 -1.7354408,5.6174519 -6e-7,8.035443 z"
         transform="matrix(1.1,0,0,1.1,1.1,0)" />
    </marker>
    <marker
       inkscape:stockid="Arrow2Lend"
       orient="auto"
       refY="0"
       refX="0"
       id="Arrow2Lend-7"
       style="overflow:visible"
       inkscape:isstock="true">
      <path
         inkscape:connector-curvature="0"
         id="path3635-5"
         style="fill:#000000;fill-opacity:1;fill-rule:evenodd;stroke:#000000;stroke-width:0.625;stroke-linejoin:round;stroke-opacity:1"
         d="M 8.7185878,4.0337352 -2.2072895,0.01601326 8.7185884,-4.0017078 c -1.7454984,2.3720609 -1.7354408,5.6174519 -6e-7,8.035443 z"
         transform="matrix(-1.1,0,0,-1.1,-1.1,0)" />
    </marker>
  </defs>
  <metadata
     id="metadata5">
    <rdf:RDF>
      <cc:Work
         rdf:about="">
        <dc:format>image/svg+xml</dc:format>
        <dc:type
           rdf:resource="http://purl.org/dc/dcmitype/StillImage" />
        <dc:title />
      </cc:Work>
    </rdf:RDF>
  </metadata>
  <g
     transform="translate(-224.49896,65.37098)"
     inkscape:label="Layer 1"
     inkscape:groupmode="layer"
     id="layer1"
     style="">
    <path
       style="fill:#000000;stroke-width:0.13032642"
       d="M 263.04623,88.089501 V 41.836452 h 57.63517 57.63517 V 88.089501 134.34256 H 320.6814 263.04623 Z m 11.44528,40.311059 v -5.53686 h -5.59687 -5.59686 v 5.53686 5.53686 h 5.59686 5.59687 z m 11.57106,0 v -5.53686 h -5.59687 -5.59688 v 5.53686 5.53686 h 5.59688 5.59687 z m 11.44528,0 v -5.53686 h -5.59688 -5.59686 v 5.53686 5.53686 h 5.59686 5.59688 z m 11.57106,0 v -5.53686 h -5.59688 -5.59687 v 5.53686 5.53686 h 5.59687 5.59688 z m 11.44526,0 v -5.53686 h -5.59685 -5.59687 v 5.53686 5.53686 h 5.59687 5.59685 z m 11.44529,0 v -5.53686 h -5.59686 -5.59687 v 5.53686 5.53686 h 5.59687 5.59686 z m 11.57106,0 v -5.53686 h -5.59687 -5.59687 v 5.53686 5.53686 h 5.59687 5.59687 z m 11.44528,0 v -5.53686 h -5.59687 -5.59687 v 5.53686 5.53686 h 5.59687 5.59687 z m 11.44528,0 v -5.53686 h -5.59686 -5.59687 v 5.53686 5.53686 h 5.59687 5.59686 z m 11.57105,0 v -5.53686 h -5.59686 -5.59687 v 5.53686 5.53686 h 5.59687 5.59686 z M 274.49151,116.85277 v -5.60578 l -5.56542,0.0352 -5.56543,0.0352 -0.0329,5.4016 c -0.0181,2.97086 -0.006,5.47765 0.0274,5.57061 0.0471,0.13181 1.28009,0.16904 5.59834,0.16904 h 5.53793 z m 11.541,0.0352 -0.0329,-5.57062 -5.56543,-0.0352 -5.56543,-0.0352 v 5.60578 5.60579 h 5.59827 5.59826 z m 11.47534,-0.0352 v -5.60578 l -5.56542,0.0352 -5.56543,0.0352 -0.0329,5.57062 -0.0329,5.57063 h 5.59827 5.59826 z m 11.50817,0.002 v -5.53685 l -5.56542,-0.0352 -5.56544,-0.0352 v 5.60719 5.60721 l 5.56544,-0.0352 5.56542,-0.0352 z m 11.50815,0 v -5.60451 h -5.59685 -5.59687 v 5.60438 5.60439 h 5.59687 5.59685 z m 11.44529,-0.002 v -5.60578 l -5.56542,0.0352 -5.56543,0.0352 -0.0329,5.57062 -0.0329,5.57063 h 5.59827 5.59827 z m 11.54101,0.0352 -0.0329,-5.57062 -5.56542,-0.0352 -5.56542,-0.0352 v 5.60578 5.60579 h 5.59826 5.59826 z m 11.47533,-0.0337 v -5.60437 h -5.59687 -5.59687 v 5.60439 5.60438 h 5.59687 5.59687 z m 11.44528,-0.002 v -5.6058 l -5.56543,0.0352 -5.56542,0.0352 -0.0329,5.40159 c -0.0181,2.97087 -0.006,5.47766 0.0275,5.57063 0.0471,0.1318 1.2801,0.16903 5.59834,0.16903 h 5.53793 z m 11.54101,0.0352 -0.0329,-5.57062 -5.56543,-0.0352 -5.56542,-0.0352 v 5.6058 5.60577 h 5.59826 5.59826 z M 274.49151,105.37355 v -5.605791 l -5.56542,0.0352 -5.56543,0.0352 -0.0329,5.401581 c -0.0181,2.97088 -0.006,5.47767 0.0274,5.57062 0.0471,0.13181 1.28009,0.16903 5.59834,0.16903 h 5.53793 z m 11.57106,0.002 v -5.604381 h -5.59687 -5.59688 v 5.604381 5.60439 h 5.59688 5.59687 z m 11.44528,0 v -5.604381 h -5.59688 -5.59686 v 5.604381 5.60439 h 5.59686 5.59688 z m 11.50817,0 v -5.536861 l -5.56542,-0.0352 -5.56544,-0.0352 v 5.607191 5.60719 l 5.56544,-0.0352 5.56542,-0.0352 z m 11.50815,0 v -5.604381 h -5.59685 -5.59687 v 5.604381 5.60439 h 5.59687 5.59685 z m 11.44529,0 v -5.604381 h -5.59686 -5.59687 v 5.514351 c 0,3.0329 0.0377,5.55488 0.0838,5.60439 0.0461,0.0495 2.5647,0.09 5.59687,0.09 h 5.51302 z m 11.54101,-0.0337 0.0329,-5.570621 h -5.59827 -5.59826 v 5.605801 5.60577 l 5.56542,-0.0352 5.56543,-0.0352 z m 11.47533,0.0337 v -5.604381 h -5.59687 -5.59687 v 5.604381 5.60439 h 5.59687 5.59687 z m 11.44528,-0.002 v -5.605791 l -5.56543,0.0352 -5.56542,0.0352 -0.0329,5.401581 c -0.0181,2.97088 -0.006,5.47767 0.0275,5.57062 0.0471,0.13181 1.2801,0.16903 5.59834,0.16903 h 5.53793 z m 11.57105,0.002 v -5.604381 h -5.59686 -5.59687 v 5.604381 5.60439 h 5.59687 5.59686 z M 274.49151,93.896455 v -5.604384 h -5.59687 -5.59686 v 5.514355 c 0,3.032894 0.0377,5.554867 0.0838,5.604384 0.0461,0.04948 2.56471,0.09002 5.59686,0.09002 h 5.51303 z m 11.541,-0.03379 0.0329,-5.57063 h -5.59826 -5.59826 v 5.605793 5.605792 l 5.56542,-0.03521 5.56542,-0.03521 z m 11.47534,0.03379 v -5.604384 h -5.59688 -5.59686 v 5.514355 c 0,3.032894 0.0377,5.554867 0.0838,5.604384 0.0461,0.04948 2.56471,0.09002 5.59687,0.09002 h 5.51302 z m 11.54101,-0.03379 0.0329,-5.57063 h -5.59827 -5.59827 v 5.605793 5.605792 l 5.56543,-0.03521 5.56543,-0.03521 z m 11.44528,0 0.0329,-5.57063 h -5.59826 -5.59826 v 5.514354 c 0,3.032896 0.0383,5.555502 0.0852,5.605792 0.0469,0.05029 2.55127,0.07564 5.56542,0.05622 l 5.48026,-0.03521 z m 11.47532,0.03379 v -5.604384 h -5.59686 -5.59687 v 5.514355 c 0,3.032894 0.0377,5.554867 0.0838,5.604384 0.0461,0.04948 2.5647,0.09002 5.59687,0.09002 h 5.51302 z m 11.54101,-0.03379 0.0329,-5.57063 h -5.59827 -5.59826 v 5.605793 5.605792 l 5.56542,-0.03521 5.56543,-0.03521 z m 11.44528,0 0.0329,-5.57063 h -5.59827 -5.59827 v 5.514354 c 0,3.032896 0.0383,5.555502 0.0852,5.605792 0.0469,0.05029 2.55127,0.07564 5.56542,0.05622 l 5.48027,-0.03521 z m 11.47533,0.03379 v -5.604384 h -5.59686 -5.59687 v 5.514355 c 0,3.032894 0.0377,5.554867 0.0838,5.604384 0.0461,0.04948 2.56469,0.09002 5.59686,0.09002 h 5.51302 z m 11.54101,-0.03379 0.0329,-5.57063 h -5.59826 -5.59827 v 5.605793 5.605792 l 5.56543,-0.03521 5.56543,-0.03521 z M 274.49151,82.281138 v -5.605793 l -5.56542,0.03521 -5.56543,0.03521 -0.0329,5.57062 -0.0329,5.57063 h 5.59826 5.59826 z m 11.541,0.03521 -0.0329,-5.570619 -5.56543,-0.03521 -5.56543,-0.03521 v 5.605793 5.605783 h 5.59827 5.59826 z m 11.47534,-0.03521 v -5.605793 l -5.56542,0.03521 -5.56543,0.03521 -0.0329,5.57062 -0.0329,5.57063 h 5.59827 5.59826 z m 11.54101,0.03521 -0.0329,-5.570619 -5.56542,-0.03521 -5.56543,-0.03521 v 5.605793 5.605783 h 5.59827 5.59826 z m 11.44528,0 -0.0329,-5.570619 h -5.53398 -5.53399 l -0.0329,5.570619 -0.0329,5.570619 h 5.59965 5.59966 z m 11.47532,-0.03521 v -5.605793 l -5.56542,0.03521 -5.56543,0.03521 -0.0329,5.57062 -0.0329,5.57063 h 5.59827 5.59827 z m 11.54101,0.03521 -0.0329,-5.570619 -5.56542,-0.03521 -5.56542,-0.03521 v 5.605793 5.605783 h 5.59826 5.59826 z m 11.44528,0 -0.0329,-5.570619 h -5.53398 -5.53399 l -0.0329,5.570619 -0.0329,5.570619 h 5.59966 5.59965 z m 11.47533,-0.03521 v -5.605793 l -5.56543,0.03521 -5.56542,0.03521 -0.0329,5.57062 -0.0329,5.57063 h 5.59826 5.59827 z m 11.54101,0.03521 -0.0329,-5.570619 -5.56543,-0.03521 -5.56542,-0.03521 v 5.605793 5.605783 h 5.59826 5.59826 z M 274.49151,70.802288 v -5.605793 l -5.56542,0.03521 -5.56543,0.03521 -0.0329,5.401592 c -0.0181,2.970877 -0.006,5.477653 0.0274,5.57063 0.0471,0.131801 1.28009,0.169027 5.59834,0.169027 h 5.53793 z m 11.57106,0.002 v -5.604506 h -5.59687 -5.59688 v 5.604384 5.604385 h 5.59688 5.59687 z m 11.44528,0 v -5.604506 h -5.59688 -5.59686 v 5.604384 5.604385 h 5.59686 5.59688 z m 11.50817,0 v -5.536985 l -5.56542,-0.03521 -5.56544,-0.03521 v 5.60719 5.607201 l 5.56544,-0.03521 5.56542,-0.03521 z m 11.50815,0 v -5.604506 h -5.59685 -5.59687 v 5.604384 5.604385 h 5.59687 5.59685 z m 11.44529,-0.002 v -5.605793 l -5.56542,0.03521 -5.56543,0.03521 -0.0329,5.57062 -0.0329,5.570629 h 5.59827 5.59827 z m 11.54101,0.03521 -0.0329,-5.570619 -5.56542,-0.03521 -5.56542,-0.03521 v 5.605792 5.605793 h 5.59826 5.59826 z m 11.47533,-0.0338 v -5.604355 h -5.59687 -5.59687 v 5.604385 5.604384 h 5.59687 5.59687 z m 11.44528,-0.002 v -5.605663 l -5.56543,0.03521 -5.56542,0.03521 -0.0329,5.401582 c -0.0181,2.970877 -0.006,5.477662 0.0275,5.57063 0.0471,0.131801 1.2801,0.169026 5.59834,0.169026 h 5.53793 z m 11.57105,0.002 v -5.604355 h -5.59686 -5.59687 v 5.604385 5.604384 h 5.59687 5.59686 z M 274.49151,59.323428 V 53.71764 l -5.56542,0.03517 -5.56543,0.03517 -0.0329,5.401591 c -0.0181,2.970874 -0.006,5.477649 0.0274,5.570617 0.0471,0.131811 1.28009,0.169036 5.59834,0.169036 h 5.53793 z m 11.541,-0.03235 0.0329,-5.570623 h -5.59826 -5.59826 v 5.60579 5.605789 l 5.56542,-0.03521 5.56542,-0.03521 z m 11.47534,0.03377 v -5.60439 h -5.59688 -5.59686 v 5.514354 c 0,3.032901 0.0377,5.554874 0.0838,5.60439 0.0461,0.04948 2.56471,0.09002 5.59687,0.09002 h 5.51302 z m 11.50817,0 v -5.536867 l -5.56542,-0.03517 -5.56544,-0.03517 v 5.607194 5.607199 l 5.56544,-0.03521 5.56542,-0.03521 z m 11.50815,0 v -5.60439 h -5.59685 -5.59687 v 5.604384 5.604389 h 5.59687 5.59685 z m 11.44529,0 v -5.60439 h -5.59686 -5.59687 v 5.514354 c 0,3.032901 0.0377,5.554874 0.0838,5.60439 0.0461,0.04948 2.5647,0.09002 5.59687,0.09002 h 5.51302 z m 11.54101,-0.03377 0.0329,-5.570623 h -5.59827 -5.59826 v 5.60579 5.605789 l 5.56542,-0.03521 5.56543,-0.03521 z m 11.47533,0.03377 v -5.60439 h -5.59687 -5.59687 v 5.604384 5.604389 h 5.59687 5.59687 z m 11.44528,-0.0014 v -5.605789 l -5.56543,0.03517 -5.56542,0.03517 -0.0329,5.401592 c -0.0181,2.970873 -0.006,5.477648 0.0275,5.570616 0.0471,0.131811 1.2801,0.169036 5.59834,0.169036 h 5.53793 z m 11.54101,-0.03235 0.0329,-5.570623 h -5.59826 -5.59827 v 5.60579 5.605789 l 5.56543,-0.03521 5.56543,-0.03521 z M 274.49151,47.778451 v -5.536863 h -5.59687 -5.59686 v 5.536863 5.53686 h 5.59686 5.59687 z m 11.57106,0 v -5.536863 h -5.59687 -5.59688 v 5.536863 5.53686 h 5.59688 5.59687 z m 11.44528,0 v -5.536863 h -5.59688 -5.59686 v 5.536863 5.53686 h 5.59686 5.59688 z m 11.57106,0 v -5.536863 h -5.59688 -5.59687 v 5.536863 5.53686 h 5.59687 5.59688 z m 11.44526,0 v -5.536863 h -5.59685 -5.59687 v 5.536863 5.53686 h 5.59687 5.59685 z m 11.44529,0 v -5.536863 h -5.59686 -5.59687 v 5.536863 5.53686 h 5.59687 5.59686 z m 11.57106,0 v -5.536863 h -5.59687 -5.59687 v 5.536863 5.53686 h 5.59687 5.59687 z m 11.44528,0 v -5.536863 h -5.59687 -5.59687 v 5.536863 5.53686 h 5.59687 5.59687 z m 11.44528,0 v -5.536863 h -5.59686 -5.59687 v 5.536863 5.53686 h 5.59687 5.59686 z m 11.57105,0 v -5.536863 h -5.59686 -5.59687 v 5.536863 5.53686 h 5.59687 5.59686 z"
       id="path3598"
       inkscape:connector-curvature="0" />
    <path
       style="fill:none;stroke:#000000;stroke-width:0.45903388;stroke-linecap:butt;stroke-linejoin:miter;stroke-miterlimit:4;stroke-dasharray:none;stroke-opacity:1;marker-start:url(#Arrow2Lstart);marker-end:url(#Arrow2Lend)"
       d="M 262.85441,30.642325 H 376.12075"
       id="path3612"
       inkscape:connector-curvature="0" />
    <path
       style="fill:none;stroke:#000000;stroke-width:0.44368443;stroke-linecap:butt;stroke-linejoin:miter;stroke-miterlimit:4;stroke-dasharray:none;stroke-opacity:1;marker-start:url(#Arrow2Lstart-3);marker-end:url(#Arrow2Lend-7)"
       d="m 250.52452,133.97195 0.24305,-92.114564"
       id="path3612-3"
       inkscape:connector-curvature="0" />
    <text
       xml:space="preserve"
       style="font-style:normal;font-weight:normal;font-size:10.58333302px;line-height:1.25;font-family:sans-serif;letter-spacing:0px;word-spacing:0px;fill:#000000;fill-opacity:1;stroke:none;stroke-width:0.26458332"
       x="281.16006"
       y="20.486082"
       id="text6619"><tspan
         sodipodi:role="line"
         id="tspan6617"
         x="281.16006"
         y="20.486082"
         style="stroke-width:0.26458332">Azimuthal Angle</tspan></text>
    <text
       xml:space="preserve"
       style="font-style:normal;font-weight:normal;font-size:10.58333302px;line-height:1.25;font-family:sans-serif;letter-spacing:0px;word-spacing:0px;fill:#000000;fill-opacity:1;stroke:none;stroke-width:0.26458332"
       x="-103.3884"
       y="243.91104"
       id="text6623"
       transform="rotate(-88.982301)"><tspan
         sodipodi:role="line"
         id="tspan6621"
         x="-103.3884"
         y="243.91104"
         style="stroke-width:0.26458332">Laser ID</tspan></text>
  </g>
</svg>
