<?xml version="1.0" encoding="UTF-8" standalone="no"?>
<!-- Created with Inkscape (http://www.inkscape.org/) -->

<svg
   xmlns:osb="http://www.openswatchbook.org/uri/2009/osb"
   xmlns:dc="http://purl.org/dc/elements/1.1/"
   xmlns:cc="http://creativecommons.org/ns#"
   xmlns:rdf="http://www.w3.org/1999/02/22-rdf-syntax-ns#"
   xmlns:svg="http://www.w3.org/2000/svg"
   xmlns="http://www.w3.org/2000/svg"
   xmlns:sodipodi="http://sodipodi.sourceforge.net/DTD/sodipodi-0.dtd"
   xmlns:inkscape="http://www.inkscape.org/namespaces/inkscape"
   width="210mm"
   height="297mm"
   viewBox="0 0 210 297"
   version="1.1"
   id="svg8"
   enable-background="new"
   inkscape:version="0.92.3 (2405546, 2018-03-11)"
   sodipodi:docname="organized-point-cloud-2.svg">
  <sodipodi:namedview
     id="base"
     pagecolor="#ffffff"
     bordercolor="#666666"
     borderopacity="1.0"
     inkscape:pageopacity="0.0"
     inkscape:pageshadow="2"
     inkscape:zoom="0.98994949"
     inkscape:cx="142.60477"
     inkscape:cy="765.72994"
     inkscape:document-units="mm"
     inkscape:current-layer="layer1"
     showgrid="false"
     inkscape:window-width="1680"
     inkscape:window-height="990"
     inkscape:window-x="1920"
     inkscape:window-y="32"
     inkscape:window-maximized="1" />
  <defs
     id="defs2">
    <linearGradient
       id="linearGradient6673"
       osb:paint="solid">
      <stop
         style="stop-color:#000000;stop-opacity:1;"
         offset="0"
         id="stop6671" />
    </linearGradient>
    <marker
       inkscape:stockid="Arrow2Lend"
       orient="auto"
       refY="0.0"
       refX="0.0"
       id="Arrow2Lend"
       style="overflow:visible;"
       inkscape:isstock="true">
      <path
         id="path3635"
         style="fill-rule:evenodd;stroke-width:0.625;stroke-linejoin:round;stroke:#000000;stroke-opacity:1;fill:#000000;fill-opacity:1"
         d="M 8.7185878,4.0337352 L -2.2072895,0.016013256 L 8.7185884,-4.0017078 C 6.9730900,-1.6296469 6.9831476,1.6157441 8.7185878,4.0337352 z "
         transform="scale(1.1) rotate(180) translate(1,0)" />
    </marker>
    <marker
       inkscape:stockid="Arrow2Lstart"
       orient="auto"
       refY="0.0"
       refX="0.0"
       id="Arrow2Lstart"
       style="overflow:visible"
       inkscape:isstock="true">
      <path
         id="path3632"
         style="fill-rule:evenodd;stroke-width:0.625;stroke-linejoin:round;stroke:#000000;stroke-opacity:1;fill:#000000;fill-opacity:1"
         d="M 8.7185878,4.0337352 L -2.2072895,0.016013256 L 8.7185884,-4.0017078 C 6.9730900,-1.6296469 6.9831476,1.6157441 8.7185878,4.0337352 z "
         transform="scale(1.1) translate(1,0)" />
    </marker>
    <marker
       inkscape:stockid="Arrow2Lstart"
       orient="auto"
       refY="0"
       refX="0"
       id="Arrow2Lstart-3"
       style="overflow:visible"
       inkscape:isstock="true">
      <path
         inkscape:connector-curvature="0"
         id="path3632-6"
         style="fill:#000000;fill-opacity:1;fill-rule:evenodd;stroke:#000000;stroke-width:0.625;stroke-linejoin:round;stroke-opacity:1"
         d="M 8.7185878,4.0337352 -2.2072895,0.01601326 8.7185884,-4.0017078 c -1.7454984,2.3720609 -1.7354408,5.6174519 -6e-7,8.035443 z"
         transform="matrix(1.1,0,0,1.1,1.1,0)" />
    </marker>
    <marker
       inkscape:stockid="Arrow2Lend"
       orient="auto"
       refY="0"
       refX="0"
       id="Arrow2Lend-7"
       style="overflow:visible"
       inkscape:isstock="true">
      <path
         inkscape:connector-curvature="0"
         id="path3635-5"
         style="fill:#000000;fill-opacity:1;fill-rule:evenodd;stroke:#000000;stroke-width:0.625;stroke-linejoin:round;stroke-opacity:1"
         d="M 8.7185878,4.0337352 -2.2072895,0.01601326 8.7185884,-4.0017078 c -1.7454984,2.3720609 -1.7354408,5.6174519 -6e-7,8.035443 z"
         transform="matrix(-1.1,0,0,-1.1,-1.1,0)" />
    </marker>
    <marker
       inkscape:stockid="Arrow2Lstart"
       orient="auto"
       refY="0"
       refX="0"
       id="Arrow2Lstart-3-6"
       style="overflow:visible"
       inkscape:isstock="true">
      <path
         inkscape:connector-curvature="0"
         id="path3632-6-2"
         style="fill:#000000;fill-opacity:1;fill-rule:evenodd;stroke:#000000;stroke-width:0.625;stroke-linejoin:round;stroke-opacity:1"
         d="M 8.7185878,4.0337352 -2.2072895,0.01601326 8.7185884,-4.0017078 c -1.7454984,2.3720609 -1.7354408,5.6174519 -6e-7,8.035443 z"
         transform="matrix(1.1,0,0,1.1,1.1,0)" />
    </marker>
    <marker
       inkscape:stockid="Arrow2Lend"
       orient="auto"
       refY="0"
       refX="0"
       id="Arrow2Lend-7-9"
       style="overflow:visible"
       inkscape:isstock="true">
      <path
         inkscape:connector-curvature="0"
         id="path3635-5-1"
         style="fill:#000000;fill-opacity:1;fill-rule:evenodd;stroke:#000000;stroke-width:0.625;stroke-linejoin:round;stroke-opacity:1"
         d="M 8.7185878,4.0337352 -2.2072895,0.01601326 8.7185884,-4.0017078 c -1.7454984,2.3720609 -1.7354408,5.6174519 -6e-7,8.035443 z"
         transform="matrix(-1.1,0,0,-1.1,-1.1,0)" />
    </marker>
  </defs>
  <metadata
     id="metadata5">
    <rdf:RDF>
      <cc:Work
         rdf:about="">
        <dc:format>image/svg+xml</dc:format>
        <dc:type
           rdf:resource="http://purl.org/dc/dcmitype/StillImage" />
        <dc:title></dc:title>
      </cc:Work>
    </rdf:RDF>
  </metadata>
  <g
     transform="translate(-224.49896,65.37098)"
     inkscape:label="Layer 1"
     inkscape:groupmode="layer"
     id="layer1"
     style="opacity:1;">
    <path
       style="fill:none;stroke:#000000;stroke-width:0.47839177;stroke-linecap:butt;stroke-linejoin:miter;stroke-miterlimit:4;stroke-dasharray:none;stroke-opacity:1;marker-start:url(#Arrow2Lstart);marker-end:url(#Arrow2Lend)"
       d="M 295.54364,-7.4074702 H 418.56453"
       id="path3612"
       inkscape:connector-curvature="0" />
    <path
       style="fill:none;stroke:#000000;stroke-width:0.47561979;stroke-linecap:butt;stroke-linejoin:miter;stroke-miterlimit:4;stroke-dasharray:none;stroke-opacity:1;marker-start:url(#Arrow2Lstart-3);marker-end:url(#Arrow2Lend-7)"
       d="m 255.32662,134.07522 0.26055,-98.744753"
       id="path3612-3"
       inkscape:connector-curvature="0" />
    <text
       xml:space="preserve"
       style="font-style:normal;font-weight:normal;font-size:10.58333302px;line-height:1.25;font-family:sans-serif;letter-spacing:0px;word-spacing:0px;fill:#000000;fill-opacity:1;stroke:none;stroke-width:0.26458332"
       x="319.7522"
       y="-13.554653"
       id="text6619"><tspan
         sodipodi:role="line"
         id="tspan6617"
         x="319.7522"
         y="-13.554653"
         style="stroke-width:0.26458332">Azimuthal Angle</tspan></text>
    <text
       xml:space="preserve"
       style="font-style:normal;font-weight:normal;font-size:10.58333302px;line-height:1.25;font-family:sans-serif;letter-spacing:0px;word-spacing:0px;fill:#000000;fill-opacity:1;stroke:none;stroke-width:0.26458332"
       x="-103.3884"
       y="243.91104"
       id="text6623"
       transform="rotate(-88.982301)"><tspan
         sodipodi:role="line"
         id="tspan6621"
         x="-103.3884"
         y="243.91104"
         style="stroke-width:0.26458332">Laser ID</tspan></text>
    <path
       style="fill:#000000;stroke-width:0.1699129"
       d="M 261.35564,84.43501 V 34.268479 h 2.46454 2.46455 l -1.7e-4,-2.767505 -1.6e-4,-2.767507 h 2.50579 2.50577 v -3.821929 -3.82193 l 3.09102,1.38e-4 3.09106,1.34e-4 -0.0337,-2.745865 -0.0337,-2.745865 2.98073,0.03237 2.98076,0.03236 v -2.557936 -2.557936 h 3.12173 3.12175 V 7.8281295 5.1092494 l 2.42346,-0.048627 2.42348,-0.048627 V 2.7714212 0.53083985 l 62.72255,1.7591e-4 62.72254,1.7591e-4 V 50.6538 100.7764 h -2.42363 -2.42367 v 2.24057 2.24058 l -3.08066,-1.8e-4 -3.08031,-1.7e-4 v 2.72358 2.72357 h -3.03961 -3.0396 v 2.54786 2.54787 h -3.03959 -3.0396 v 2.81143 2.81144 h -2.46454 -2.46452 v 3.77786 3.77786 h -2.46456 -2.46455 v 2.81145 2.81143 h -62.76352 -62.76363 z m 12.48701,43.75294 v -6.06215 h -6.0792 -6.07918 v 5.94501 c 0,3.26975 0.0493,5.99773 0.10956,6.06216 0.0602,0.0644 2.79587,0.11718 6.0792,0.11718 h 5.96965 z m 12.61239,-0.0439 0.0432,-6.01822 h -6.16351 -6.16351 v 5.94502 c 0,3.26974 0.0502,5.99867 0.11156,6.06427 0.0613,0.0656 2.81547,0.0986 6.12028,0.0731 l 6.00873,-0.0461 z m 12.48701,0 0.0432,-6.01822 h -6.08135 -6.08136 v 6.06433 6.06432 l 6.03811,-0.0461 6.03813,-0.0461 z m 12.487,0 0.0432,-6.01822 h -6.08136 -6.08135 v 6.06433 6.06432 l 6.03811,-0.0461 6.03814,-0.0461 z m 12.52593,0.0439 v -6.06215 h -6.07921 -6.0792 v 6.06215 6.06216 h 6.0792 6.07921 z m 12.487,0 v -6.06215 h -6.07921 -6.0792 v 6.06215 6.06216 h 6.0792 6.07921 z m 12.48699,0 v -6.06215 h -6.07917 -6.07923 v 6.06215 6.06216 h 6.07923 6.07917 z m 12.48703,0 v -6.06215 h -6.07922 -6.0792 v 5.94501 c 0,3.26975 0.0494,5.99773 0.10957,6.06216 0.0602,0.0644 2.79589,0.11718 6.0792,0.11718 h 5.96968 z m 12.48698,0 v -6.06215 h -6.07919 -6.0792 v 5.94501 c 0,3.26975 0.0494,5.99773 0.10956,6.06216 0.0602,0.0644 2.7959,0.11718 6.07921,0.11718 h 5.96966 z m 12.61241,-0.0439 0.0432,-6.01822 h -6.16351 -6.16351 v 5.94502 c 0,3.26974 0.0502,5.99867 0.11155,6.06427 0.0613,0.0656 2.81547,0.0986 6.12028,0.0731 l 6.00876,-0.0461 z m 4.96798,-5.57893 v -6.06217 h -2.30023 -2.30025 v 6.06217 6.06214 h 2.30025 2.30023 z m -117.64072,-6.9429 v -6.15219 l -6.03812,0.0461 -6.03813,0.0461 -0.0433,5.88521 c -0.0239,3.23686 -0.008,5.98459 0.0359,6.10608 0.0616,0.17181 1.41317,0.22089 6.08146,0.22089 h 6.0022 z m 12.56915,0.002 v -6.06216 h -6.07919 -6.0792 l -0.0434,5.88519 c -0.0239,3.23685 -0.007,5.98558 0.0367,6.10826 0.0632,0.17583 1.35905,0.21331 6.12252,0.17697 l 6.0425,-0.0461 v -6.06214 z m 12.48701,0 v -6.06216 l -6.03813,-0.0461 -6.03811,-0.0461 v 6.15436 6.15434 l 6.03811,-0.0461 6.03813,-0.0461 z m 12.48701,0 v -6.06216 l -6.03814,-0.0461 -6.03812,-0.0461 v 6.15436 6.15434 l 6.03812,-0.0461 6.03814,-0.0461 z m 12.48699,0 v -6.06216 h -5.99704 -5.99705 l -0.0432,6.10825 -0.0432,6.10826 6.04026,-0.0461 6.04025,-0.0461 v -6.06214 z m 12.53022,0.044 -0.0432,-6.1061 h -5.99706 -5.99704 l -0.0432,6.1061 -0.0432,6.10608 h 6.08346 6.08347 z m 12.487,0 -0.0432,-6.1061 h -5.99704 -5.99705 l -0.0434,5.88519 c -0.0239,3.23686 -0.008,5.98459 0.0359,6.10609 0.0616,0.17181 1.41357,0.2209 6.08359,0.2209 h 6.00432 z m 12.52597,-0.0461 v -6.15216 l -6.03814,0.0461 -6.03812,0.0461 -0.0433,5.88521 c -0.0239,3.23686 -0.008,5.98459 0.0359,6.10607 0.0616,0.17181 1.41315,0.2209 6.08148,0.2209 h 6.0022 z m 12.48698,0 v -6.15216 l -6.03812,0.0461 -6.03812,0.0461 -0.0433,5.88521 c -0.0239,3.23686 -0.008,5.98459 0.036,6.10607 0.0616,0.17181 1.41315,0.2209 6.08146,0.2209 h 6.0022 z m 12.56917,0.002 v -6.06216 h -6.07921 -6.0792 l -0.0433,5.88521 c -0.0239,3.23684 -0.007,5.98556 0.0368,6.10824 0.0631,0.17584 1.35907,0.21332 6.12255,0.17697 l 6.0425,-0.0461 v -6.06215 z m 9.94032,-0.615 V 108.947 h -2.30026 -2.30022 v 6.06215 6.06216 h 2.30022 2.30026 z m -4.9291,-4.92001 v -6.06215 h -2.30023 -2.30025 v 6.06215 6.06217 h 2.30025 2.30023 z m 11.00828,-0.70287 v -6.06215 h -2.87529 -2.87531 v 6.06215 6.06217 h 2.87531 2.87529 z m 6.07921,-5.0957 v -6.062167 h -2.8753 -2.8753 v 6.062167 6.06214 h 2.8753 2.8753 z M 273.84265,103.1454 v -6.152158 l -6.03812,0.04608 -6.03813,0.04608 -0.0433,5.885168 c -0.0239,3.23686 -0.008,5.9846 0.0359,6.10611 0.0616,0.17179 1.41317,0.22089 6.08146,0.22089 h 6.0022 v -6.1522 z m 12.56915,0.002 v -6.062149 h -6.07919 -6.0792 l -0.0434,5.885179 c -0.0239,3.23687 -0.007,5.98557 0.0367,6.10826 0.0632,0.17585 1.35905,0.21331 6.12252,0.17696 l 6.0425,-0.0461 v -6.06215 z m 12.48701,0 v -6.062149 l -6.03813,-0.04608 -6.03811,-0.04609 v 6.154339 6.15435 l 6.03811,-0.0461 6.03813,-0.0461 v -6.06214 z m 12.48701,0 v -6.062149 l -6.03814,-0.04608 -6.03812,-0.04609 v 6.154339 6.15435 l 6.03812,-0.0461 6.03814,-0.0461 v -6.06214 z m 12.48699,0 v -6.062149 h -5.99704 -5.99705 l -0.0434,5.885179 c -0.0239,3.23687 -0.007,5.98558 0.0367,6.10827 0.063,0.17584 1.34292,0.21333 6.0404,0.17697 l 5.96032,-0.0461 v -6.06258 z m 12.48702,0 v -6.062149 h -5.99706 -5.99703 l -0.0433,5.885179 c -0.0239,3.23687 -0.007,5.98558 0.0367,6.10827 0.0632,0.17584 1.34291,0.21333 6.04038,0.17697 l 5.96036,-0.0461 v -6.06258 z m 12.48699,0 v -6.062149 h -5.99702 -5.99706 l -0.0434,5.885179 c -0.0239,3.23687 -0.007,5.98558 0.0368,6.10827 0.063,0.17584 1.34292,0.21333 6.04038,0.17697 l 5.96034,-0.0461 v -6.06258 z m 12.56918,-0.002 v -6.152158 l -6.03814,0.04608 -6.03812,0.04608 -0.0433,5.885168 c -0.0239,3.23686 -0.008,5.98461 0.0359,6.10611 0.0616,0.1718 1.41315,0.22089 6.08148,0.22089 h 6.0022 v -6.15219 z m 12.48698,0 v -6.152158 l -6.03812,0.04608 -6.03812,0.04608 -0.0433,5.885168 c -0.0239,3.23686 -0.008,5.98461 0.036,6.10611 0.0616,0.1718 1.41315,0.22089 6.08146,0.22089 h 6.0022 v -6.15219 z m 12.56917,0.002 v -6.062149 h -6.07921 -6.0792 l -0.0433,5.885179 c -0.0239,3.23687 -0.007,5.98557 0.0368,6.10826 0.0631,0.17585 1.35907,0.21331 6.12255,0.17696 l 6.0425,-0.0461 v -6.06215 z m 9.94032,-0.61501 v -6.062143 h -2.30026 -2.30022 v 6.062143 6.06215 h 2.30022 2.30026 z m 18.23759,-3.689557 v -6.061242 h -2.8753 -2.8753 v 6.062168 6.062141 h 2.8753 2.8753 z m -23.16669,-1.230008 v -6.062158 h -2.30023 -2.30025 v 6.062158 6.062155 h 2.30025 2.30023 z m 11.00828,-0.702866 v -6.06258 h -2.87529 -2.87531 v 6.062148 6.062143 h 2.87531 2.87529 z m 17.08749,-2.640668 v -6.067045 l -2.25917,0.04887 -2.25915,0.04887 -0.0426,6.018222 -0.0426,6.018232 h 2.30174 2.30174 z m -11.00828,-2.455037 v -6.062159 h -2.8753 -2.8753 v 6.062159 6.062138 h 2.8753 2.8753 z M 273.84265,90.670712 v -6.15217 l -6.03812,0.04608 -6.03813,0.04608 -0.0433,5.88519 c -0.0239,3.236857 -0.008,5.984594 0.0359,6.106094 0.0616,0.171795 1.41317,0.220885 6.08146,0.220885 h 6.0022 z m 12.56915,0.0021 v -6.062149 h -6.07919 -6.0792 l -0.0434,5.88519 c -0.0239,3.236847 -0.007,5.985572 0.0367,6.108255 0.0632,0.175858 1.35905,0.213303 6.12252,0.176959 l 6.0425,-0.04608 V 90.67284 Z m 12.48701,0 v -6.062149 l -6.03813,-0.04608 -6.03811,-0.04608 v 6.15434 6.154342 l 6.03811,-0.04608 6.03813,-0.04609 v -6.062128 z m 12.48701,0 v -6.062149 l -6.03814,-0.04608 -6.03812,-0.04608 v 6.15434 6.154342 l 6.03812,-0.04608 6.03814,-0.04609 v -6.062128 z m 12.48699,0 v -6.062149 l -6.03812,-0.04608 -6.03812,-0.04608 v 6.03503 c 0,3.319268 0.0502,6.08872 0.11157,6.154342 0.0613,0.06563 2.77851,0.09855 6.03812,0.07315 l 5.92656,-0.04608 v -6.062138 z m 12.53022,-0.04393 0.0432,-6.106074 h -6.08133 -6.08133 v 6.032871 c 0,3.318084 0.0502,6.086559 0.11156,6.152171 0.0614,0.06563 2.77852,0.09855 6.03813,0.07314 l 5.92657,-0.04608 0.0432,-6.106084 z m 12.487,-0.0021 0.0432,-6.108244 -6.04024,0.04608 -6.04025,0.04608 -0.0433,5.88519 c -0.0239,3.236857 -0.007,5.985581 0.0367,6.108285 0.063,0.175818 1.34292,0.213314 6.0404,0.176959 l 5.96032,-0.04608 0.0432,-6.108244 z m 12.52597,0.04393 v -6.15217 l -6.03814,0.04608 -6.03812,0.04608 -0.0433,5.88519 c -0.0239,3.236857 -0.008,5.984594 0.0359,6.106094 0.0616,0.171795 1.41315,0.220885 6.08148,0.220885 h 6.0022 z m 12.48698,0 v -6.15217 l -6.03812,0.04608 -6.03812,0.04608 -0.0433,5.88519 c -0.0239,3.236857 -0.008,5.984594 0.036,6.106094 0.0616,0.171795 1.41315,0.220885 6.08146,0.220885 h 6.0022 z m 12.56917,0.0021 v -6.062149 h -6.07921 -6.0792 l -0.0433,5.88519 c -0.0239,3.236857 -0.007,5.985582 0.0368,6.108255 0.0631,0.175858 1.35907,0.213303 6.12255,0.176959 l 6.0425,-0.04608 V 90.67279 Z m 9.85815,-0.702902 v -6.062189 h -2.21809 -2.21807 l -0.0432,6.111052 -0.0432,6.111064 2.2613,-0.04887 2.26131,-0.04887 v -6.06218 z m 18.31976,-3.602173 v -6.06213 h -2.8753 -2.8753 v 6.062161 6.062148 h 2.8753 2.8753 z m -23.16669,-1.229998 v -6.062164 h -2.30023 -2.30025 v 6.062164 6.062148 h 2.30025 2.30023 z m 11.00828,-0.702866 V 78.37272 h -2.87529 -2.87531 v 6.062153 6.062159 h 2.87531 2.87529 z m 17.08749,-2.640675 v -6.067043 l -2.25917,0.04889 -2.25915,0.04889 -0.0426,6.018229 -0.0426,6.01823 h 2.30174 2.30174 z M 408.57086,79.339074 V 73.27692 h -2.8753 -2.8753 v 6.062154 6.062159 h 2.8753 2.8753 z M 273.84265,78.10699 v -6.064319 l -6.03812,0.04608 -6.03813,0.04608 -0.0432,6.018221 -0.0432,6.018225 h 6.08135 6.08136 z m 12.61239,0.04608 -0.0432,-6.018227 h -6.07918 -6.0792 l -0.0432,6.018227 -0.0432,6.018224 h 6.16567 6.16566 z m 12.48701,0 -0.0432,-6.018227 -6.03812,-0.04608 -6.03813,-0.04608 V 78.107 84.171327 h 6.08137 6.08134 z m 12.487,0 -0.0432,-6.018227 -6.03816,-0.04608 -6.03811,-0.04608 V 78.107 84.171327 h 6.08136 6.08136 z m 12.48701,0 -0.0432,-6.018227 -6.03812,-0.04608 -6.03813,-0.04608 V 78.107 84.171327 h 6.08136 6.08137 z m 12.52592,-0.04391 v -6.062152 h -6.07921 -6.0792 v 6.062153 6.06215 h 6.0792 6.07921 z m 12.48699,-0.002 v -6.064319 l -6.03811,0.04608 -6.03812,0.04608 -0.0432,6.018221 -0.0432,6.018225 h 6.08132 6.08137 z m 12.48703,0 v -6.064319 l -6.03814,0.04608 -6.03812,0.04608 -0.0432,6.018221 -0.0432,6.018225 h 6.08137 6.08136 z m 12.48698,0 v -6.064319 l -6.03812,0.04608 -6.03812,0.04608 -0.0432,6.018221 -0.0432,6.018225 h 6.08137 6.08134 z m 12.61241,0.04608 -0.0432,-6.018228 h -6.07922 -6.07919 l -0.0432,6.018228 -0.0432,6.018225 h 6.16567 6.16567 z m 9.81491,-0.658871 v -6.062152 h -2.21809 -2.21807 l -0.0433,5.885184 c -0.0239,3.236861 -0.007,5.986902 0.0378,6.111212 0.0616,0.172014 0.60208,0.214297 2.26142,0.176967 l 2.18034,-0.04907 z m 18.31976,-3.602118 v -6.062185 h -2.8753 -2.8753 v 6.062153 6.062153 h 2.8753 2.8753 z M 391.44446,72.618227 391.48764,66.6 h -2.3024 -2.3024 v 6.067114 6.067113 l 2.25917,-0.04889 2.25916,-0.04889 z m 11.04719,-0.65893 v -6.062186 h -2.87529 -2.87531 v 6.062154 6.062152 h 2.87531 2.87529 z m 17.08749,-2.640675 v -6.067076 l -2.25917,0.04889 -2.25915,0.04889 -0.0426,6.018227 -0.0426,6.018222 h 2.30174 2.30174 z m -11.00828,-2.455046 v -6.06216 h -2.8753 -2.8753 v 6.06216 6.062152 h 2.8753 2.8753 z M 273.84265,65.63138 v -6.064319 l -6.03812,0.04608 -6.03813,0.04608 -0.0432,6.018227 -0.0432,6.018227 h 6.08135 6.08136 z m 12.61239,0.04608 -0.0432,-6.018221 h -6.07918 -6.0792 l -0.0432,6.018221 -0.0432,6.018227 h 6.16567 6.16566 z m 12.48701,0 -0.0432,-6.018221 -6.03812,-0.04608 -6.03813,-0.04608 v 6.064318 6.064318 h 6.08137 6.08134 z m 12.487,0 -0.0432,-6.018221 -6.03816,-0.04608 -6.03811,-0.04608 v 6.064318 6.064318 h 6.08136 6.08136 z m 12.52593,-0.04397 v -6.062153 h -6.07921 -6.0792 v 6.062153 6.062158 h 6.0792 6.07921 z m 12.487,0 v -6.062153 h -6.07921 -6.0792 v 6.062153 6.062158 h 6.0792 6.07921 z m 12.48699,0 v -6.062153 h -6.07917 -6.07923 v 6.062153 6.062158 h 6.07923 6.07917 z m 12.48703,-0.002 v -6.064356 l -6.03814,0.04608 -6.03812,0.04608 -0.0432,6.018227 -0.0432,6.018228 h 6.08137 6.08136 z m 12.48698,0 v -6.064356 l -6.03812,0.04608 -6.03812,0.04608 -0.0432,6.018227 -0.0432,6.018228 h 6.08137 6.08134 z m 12.61241,0.04608 -0.0432,-6.018222 h -6.07922 -6.07919 l -0.0432,6.018222 -0.0432,6.018228 h 6.16567 6.16567 z m 9.81491,-0.658867 v -6.06216 l -2.25914,-0.04889 -2.25917,-0.04889 v 6.037826 c 0,3.320812 0.0513,6.092736 0.11413,6.159838 0.0627,0.0671 1.07936,0.100049 2.25914,0.07322 l 2.14509,-0.04883 z m 18.31976,-3.602125 v -6.062183 h -2.8753 -2.8753 v 6.062154 6.062159 h 2.8753 2.8753 z m -23.2056,-1.273926 0.0432,-6.018228 h -2.3024 -2.3024 v 6.067114 6.067114 l 2.25917,-0.04889 2.25916,-0.04889 z m 11.04719,-0.658931 v -6.06216 h -2.87529 -2.87531 v 6.06216 6.062152 h 2.87531 2.87529 z m 17.08749,-2.640681 v -6.067114 l -2.25917,0.0489 -2.25915,0.0489 -0.0426,6.018228 -0.0426,6.018227 h 2.30174 2.30174 z M 408.57086,54.387995 V 48.32584 h -2.8753 -2.8753 v 6.062155 6.062159 h 2.8753 2.8753 z M 273.84265,53.155641 v -6.06432 l -6.03812,0.04608 -6.03813,0.04609 -0.0432,6.018229 -0.0432,6.018225 h 6.08135 6.08136 z m 12.61239,0.0461 -0.0432,-6.018227 h -6.07918 -6.0792 l -0.0432,6.018227 -0.0432,6.01823 h 6.16567 6.16566 z m 12.48701,0 -0.0432,-6.018227 -6.03812,-0.0461 -6.03813,-0.04608 v 6.064319 6.064324 h 6.08137 6.08134 z m 12.52593,-0.04393 V 47.09566 h -6.07921 -6.07921 v 6.062155 6.062155 h 6.07921 6.07921 z m 12.487,0 V 47.09566 h -6.07921 -6.0792 v 6.062155 6.062155 h 6.0792 6.07921 z m 12.487,0 V 47.09566 h -6.07921 -6.0792 v 6.062155 6.062155 h 6.0792 6.07921 z m 12.48699,0 V 47.09566 h -6.07917 -6.07923 v 6.062155 6.062155 h 6.07923 6.07917 z m 12.48703,-0.0023 v -6.064322 l -6.03814,0.04608 -6.03812,0.0461 -0.0432,6.018227 -0.0432,6.018227 h 6.08137 6.08136 z m 12.48698,0 v -6.064322 l -6.03812,0.04608 -6.03812,0.0461 -0.0432,6.018227 -0.0432,6.018227 h 6.08137 6.08134 z m 12.61241,0.04608 -0.0432,-6.018226 h -6.07922 -6.07919 l -0.0432,6.018226 -0.0432,6.01823 h 6.16567 6.16567 z m 9.89708,-0.746786 V 46.39265 h -2.30026 -2.30022 v 6.062156 6.062153 h 2.30022 2.30026 z m 18.23759,-3.514264 V 42.87843 h -2.8753 -2.8753 v 6.062156 6.062154 h 2.8753 2.8753 z m -23.2056,-1.27393 0.0432,-6.018229 h -2.3024 -2.3024 v 6.067115 6.067112 l 2.25917,-0.04889 2.25916,-0.04889 z m 11.04719,-0.658931 v -6.062155 h -2.87529 -2.87531 v 6.062155 6.062155 h 2.87531 2.87529 z m 17.08749,-2.640678 v -6.067114 l -2.25917,0.0489 -2.25915,0.0489 -0.0426,6.018225 -0.0426,6.018227 h 2.30174 2.30174 z M 408.57086,41.911957 V 35.8498 h -2.8753 -2.8753 v 6.062158 6.062156 h 2.8753 2.8753 z M 273.84265,40.679901 v -6.064322 l -6.03812,0.0461 -6.03813,0.04609 -0.0432,6.018227 -0.0432,6.018227 h 6.08135 6.08136 z m 12.61239,0.04609 -0.0432,-6.018226 h -6.07918 -6.0792 l -0.0432,6.018226 -0.0432,6.018228 h 6.16567 6.16566 z m 12.48701,0 -0.0432,-6.018226 -6.03812,-0.04608 -6.03813,-0.0461 v 6.064321 6.064323 h 6.08137 6.08134 z m 12.52593,-0.04393 v -6.062156 h -6.07921 -6.07921 v 6.062156 6.062155 h 6.07921 6.07921 z m 12.487,0 v -6.062156 h -6.07921 -6.0792 v 6.062156 6.062155 h 6.0792 6.07921 z m 12.487,0 v -6.062156 h -6.07921 -6.0792 v 6.062156 6.062155 h 6.0792 6.07921 z m 12.48699,0 v -6.062156 h -6.07917 -6.07923 v 6.062156 6.062155 h 6.07923 6.07917 z m 12.48703,-0.0023 v -6.064293 l -6.03814,0.0461 -6.03812,0.0461 -0.0432,6.018227 -0.0432,6.018228 h 6.08137 6.08136 z m 12.48698,0 v -6.064293 l -6.03812,0.0461 -6.03812,0.0461 -0.0432,6.018227 -0.0432,6.018228 h 6.08137 6.08134 z m 12.61241,0.04608 -0.0432,-6.018226 h -6.07922 -6.07919 l -0.0432,6.018226 -0.0432,6.018226 h 6.16567 6.16567 z m 9.89708,-0.746788 v -6.062156 h -2.30026 -2.30022 v 6.062156 6.062156 h 2.30022 2.30026 z m 18.23759,-3.514294 v -6.062115 h -2.8753 -2.8753 v 6.062157 6.062154 h 2.8753 2.8753 z m -23.2056,-1.273899 0.0432,-6.018228 h -6.08134 -6.08136 v 2.547863 2.547862 h 3.77895 3.77895 v 3.519252 3.519251 l 2.25917,-0.0489 2.25916,-0.0489 z m 11.00827,-0.70286 0.0432,-6.018227 h -2.87746 -2.87746 v 6.066305 6.066305 l 2.83423,-0.04809 2.83422,-0.04808 z m 17.12641,-2.591792 v -6.062154 h -2.29412 -2.2941 l -0.006,6.062156 -0.006,6.062156 h 2.29955 2.29958 z m -11.00828,-2.45996 V 23.37409 h -2.8753 -2.8753 v 6.062158 6.062155 h 2.8753 2.8753 z m -129.63482,2.284316 v -2.547861 h -6.16135 -6.16136 v 2.547862 2.547862 h 6.16136 6.16135 z m 12.48699,0 v -2.547861 h -6.0792 -6.07919 v 2.547862 2.547862 h 6.07919 6.0792 z m 12.48701,0 v -2.547861 h -6.0792 -6.0792 v 2.547862 2.547862 h 6.0792 6.0792 z m 12.487,0 v -2.547861 h -6.0792 -6.07919 v 2.547862 2.547862 h 6.07919 6.0792 z m 12.48702,0 v -2.547861 h -6.07921 -6.0792 v 2.547862 2.547862 h 6.0792 6.07921 z m 12.48699,0 v -2.547861 h -6.0792 -6.07919 v 2.547862 2.547862 h 6.07919 6.0792 z m 12.48701,0 v -2.547861 h -6.0792 -6.0792 v 2.547862 2.547862 h 6.0792 6.0792 z m 12.6513,0 v -2.547861 h -6.16135 -6.16135 v 2.547862 2.547862 h 6.16135 6.16135 z m 12.48701,0 v -2.547861 h -6.0792 -6.07919 v 2.547862 2.547862 h 6.07919 6.0792 z m 17.4161,-4.217152 v -6.062156 h -6.07922 -6.07921 v 3.701886 3.701887 l 3.77914,-0.0558 3.77912,-0.05581 -1.7e-4,2.416077 -1.4e-4,2.416076 h 2.30022 2.30026 z m 18.23759,-3.514293 v -6.062157 h -2.8753 -2.8753 v 6.062157 6.062154 h 2.8753 2.8753 z m -130.86709,1.142197 v -3.60215 l -6.03812,-0.04608 -6.03813,-0.04609 v 3.69251 3.692513 l 6.03813,-0.04428 6.03812,-0.04428 z m 12.5314,-0.04394 0.0444,-3.646077 h -6.08253 -6.08253 v 3.690344 3.690348 l 6.03812,-0.04427 6.03814,-0.04428 z m 12.48702,0 0.0443,-3.646077 h -6.08253 -6.08252 v 3.690344 3.690348 l 6.03812,-0.04427 6.03814,-0.04428 z m 12.52474,0.03841 V 21.4413 h -6.07919 -6.07922 v 3.572866 c 0,1.965077 0.0486,3.624948 0.10817,3.688609 0.0595,0.06366 2.79519,0.113878 6.07921,0.11161 l 5.97097,-0.0041 z m 12.487,-0.002 v -3.682405 h -6.07921 -6.07918 v 3.572865 c 0,1.965075 0.0485,3.62482 0.10794,3.688324 0.0594,0.06351 2.79501,0.112818 6.07919,0.109587 l 5.97123,-0.0059 v -3.682453 z m 12.487,-0.0023 V 21.43687 l -6.03812,0.04608 -6.03813,0.04609 -0.0448,3.421256 c -0.0246,1.881692 -0.008,3.521681 0.0353,3.644425 0.0628,0.174934 1.37755,0.221895 6.08287,0.217268 l 6.0028,-0.0059 v -3.684544 z m 12.56915,0.0098 v -3.602173 h -6.07919 -6.07919 l -0.0449,3.421258 c -0.0245,1.881692 -0.008,3.522583 0.036,3.646428 0.064,0.178557 1.33175,0.216004 6.12394,0.180892 l 6.04315,-0.04429 V 25.13135 Z m 12.48703,0 v -3.602173 l -6.03815,-0.04609 -6.03812,-0.04609 v 3.692511 3.692511 l 6.03812,-0.04428 6.03815,-0.04428 z m 12.5314,-0.04393 0.0443,-3.646081 h -6.08253 -6.08253 v 3.690345 3.690348 l 6.03811,-0.04427 6.03814,-0.04428 z m 18.56502,-3.075007 0.0432,-6.018227 h -6.08135 -6.08137 v 2.547863 2.547861 h 3.20391 3.20389 v 3.518442 3.518444 l 2.83423,-0.04809 2.83422,-0.04808 z m 17.12641,-2.591797 V 13.35841 h -2.29188 -2.29187 l -0.008,6.062155 -0.008,6.062157 h 2.29954 2.29953 v -6.062115 z m -11.00828,-2.460004 v -6.062155 h -6.07921 -6.07918 v 2.385583 2.385584 l 3.20406,-0.05736 3.20406,-0.05736 -1.5e-4,3.733935 -1.8e-4,3.733936 h 2.8753 2.8753 z m -118.62655,1.58152 V 15.99422 h -6.16134 -6.16136 v 2.547861 2.547865 h 6.16136 6.16134 z m 12.48701,0 V 15.99422 h -6.07921 -6.07918 v 2.547861 2.547865 h 6.07918 6.07921 z m 12.487,0 V 15.99422 h -6.07919 -6.0792 v 2.547861 2.547865 h 6.0792 6.07919 z m 12.48701,0 V 15.99422 h -6.0792 -6.07919 v 2.547861 2.547865 h 6.07919 6.0792 z m 12.487,0 V 15.99422 h -6.0792 -6.07921 v 2.547861 2.547865 h 6.07921 6.0792 z m 12.487,0 V 15.99422 h -6.0792 -6.0792 v 2.547861 2.547865 h 6.0792 6.0792 z m 12.487,0 V 15.99422 h -6.07919 -6.0792 v 2.547861 2.547865 h 6.0792 6.07919 z m 12.65132,0 V 15.99422 h -6.16134 -6.16137 v 2.547861 2.547865 h 6.16137 6.16134 z m 12.48701,0 V 15.99422 h -6.07921 -6.0792 v 2.547861 2.547865 h 6.0792 6.07921 z m 24.6454,-7.028586 V 5.4513821 h -6.0792 -6.07921 v 2.5478631 2.5478628 h 3.20391 3.2039 v 3.514293 3.514293 h 2.8753 2.8753 z m -118.66285,1.713219 0.0459,-2.328219 h -6.16611 -6.16611 v 2.255003 c 0,1.240254 0.0484,2.306724 0.10745,2.369936 0.0592,0.06321 2.81324,0.09615 6.12028,0.07323 l 6.01282,-0.0417 z m 12.487,0 0.0459,-2.328219 h -6.08397 -6.08399 v 2.369963 2.369966 l 6.03814,-0.04174 6.03811,-0.04174 z m 12.487,0 0.0459,-2.328219 h -6.08396 -6.08397 v 2.371194 2.371195 l 6.03812,-0.04298 6.03813,-0.04298 z m 12.48701,0 0.0459,-2.328219 h -6.08396 -6.08398 v 2.371194 2.371195 l 6.03812,-0.04298 6.03813,-0.04298 z m 12.52331,0.03883 v -2.367044 h -6.0792 -6.0792 v 2.368125 2.368124 l 6.0792,-10e-4 6.0792,-0.001 v -2.367045 z m 12.48701,1.1e-4 v -2.367154 h -6.07921 -6.0792 v 2.255004 c 0,1.240253 0.0475,2.305806 0.10559,2.367893 0.0581,0.06209 2.79369,0.112549 6.0792,0.112148 l 5.97364,-7.32e-4 v -2.367154 z m 12.487,0 v -2.367154 h -6.07921 -6.07919 v 2.255004 c 0,1.240253 0.0475,2.305806 0.10558,2.367893 0.0582,0.06209 2.79368,0.112549 6.07919,0.112148 l 5.97366,-7.32e-4 z m 12.61499,-0.03895 0.0459,-2.328219 h -6.16612 -6.16612 v 2.255004 c 0,1.240254 0.0484,2.306724 0.10747,2.369936 0.0592,0.06321 2.81323,0.09615 6.12027,0.07323 l 6.01282,-0.04172 z m 12.48701,0 0.0459,-2.328219 h -6.16611 -6.16613 v 2.255004 c 0,1.240254 0.0484,2.306724 0.10748,2.369936 0.0592,0.06321 2.81322,0.09615 6.12028,0.07323 l 6.0128,-0.04172 z m 23.5316,-6.2817602 V 0.88277497 h -6.07921 -6.0792 V 2.9913511 5.0999262 l 3.82004,-1.758e-4 3.82005,-1.75e-4 -0.0498,3.9537574 -0.0498,3.9537572 h 2.30896 2.30899 V 6.9448502 Z M 302.1027,7.999238 V 5.4513749 h -6.07919 -6.0792 v 2.5478631 2.547861 h 6.0792 6.07919 z m 12.48701,0 V 5.4513749 h -6.0792 -6.07919 v 2.5478631 2.547861 h 6.07919 6.0792 z m 12.48701,0 V 5.4513749 h -6.0792 -6.0792 v 2.4307188 c 0,1.3368964 0.0493,2.4834343 0.10958,2.5478613 0.0602,0.06443 2.79587,0.117148 6.0792,0.117148 h 5.96965 z m 12.61473,-0.043926 0.0457,-2.5039342 h -6.16587 -6.16586 v 2.4307188 c 0,1.3368974 0.0502,2.4843944 0.11157,2.5499964 0.0613,0.0656 2.81546,0.09855 6.12027,0.07323 l 6.00875,-0.04606 z m 12.52358,0.043926 V 5.4513749 h -6.07919 -6.0792 v 2.5478631 2.547861 h 6.0792 6.07919 z m 12.48701,0 V 5.4513749 h -6.0792 -6.0792 v 2.5478631 2.547861 h 6.0792 6.0792 z m 12.487,0 V 5.4513749 h -6.0792 -6.07919 v 2.5478631 2.547861 h 6.07919 6.0792 z m 12.487,0 V 5.4513749 h -6.07919 -6.0792 v 2.5478631 2.547861 h 6.0792 6.07919 z m 12.48701,0 V 5.4513749 h -6.0792 -6.07919 v 2.5478631 2.547861 h 6.07919 6.0792 z m -95.16712,-5.0517983 0.0463,-2.06464719 h -6.08441 -6.08441 V 2.9935351 5.1042736 l 6.03813,-0.046097 6.03812,-0.046097 z m 12.52286,0.043937 V 0.88277607 h -6.07919 -6.07919 V 2.9913532 5.0999284 h 6.07919 6.07919 z m 12.48702,0 V 0.88277607 h -6.07921 -6.0792 V 2.9913532 5.0999284 h 6.0792 6.07921 z m 12.48699,0 V 0.88277607 h -6.0792 -6.0792 V 2.9913532 5.0999284 h 6.0792 6.0792 z m 12.487,0 V 0.88277607 h -6.0792 -6.07918 V 2.9913532 5.0999284 h 6.07918 6.0792 z m 12.487,0 V 0.88277607 h -6.07918 -6.0792 V 2.9913532 5.0999284 h 6.0792 6.07918 z m 12.56917,0 V 0.97063402 l -6.12027,-0.0460759 -6.12028,-0.0460759 V 2.8720537 c 0,1.0964652 0.0502,2.0472476 0.11157,2.1128473 0.0613,0.065601 2.81546,0.09855 6.12027,0.073224 l 6.00875,-0.046066 z m 12.53328,-0.043937 0.0463,-2.06464719 h -6.08441 -6.08441 V 2.9935351 5.1042736 l 6.03812,-0.046097 6.03814,-0.046097 z m 12.52288,0.043937 V 0.88277607 h -6.07919 -6.07922 V 2.9913532 5.0999284 h 6.07922 6.07919 z"
       id="path8207"
       inkscape:connector-curvature="0" />
    <path
       style="opacity:1;fill:none;stroke:#000000;stroke-width:0.5;stroke-linecap:butt;stroke-linejoin:miter;stroke-miterlimit:4;stroke-dasharray:none;stroke-opacity:1;marker-start:url(#Arrow2Lstart-3-6);marker-end:url(#Arrow2Lend-7-9)"
       d="M 257.38752,29.211278 288.95093,-3.1970639"
       id="path3612-3-2"
       inkscape:connector-curvature="0" />
    <text
       xml:space="preserve"
       style="font-style:normal;font-variant:normal;font-weight:normal;font-stretch:normal;font-size:8.6116581px;line-height:1.25;font-family:sans-serif;-inkscape-font-specification:'sans-serif, Normal';font-variant-ligatures:normal;font-variant-caps:normal;font-variant-numeric:normal;font-feature-settings:normal;text-align:center;letter-spacing:0px;word-spacing:0px;writing-mode:lr-tb;text-anchor:middle;opacity:1;fill:#000000;fill-opacity:1;stroke:none;stroke-width:0.2152929"
       x="158.29114"
       y="190.45549"
       id="text6623-7"
       transform="matrix(0.7643527,-0.7365051,0.71553423,0.61883132,0,0)"><tspan
         sodipodi:role="line"
         id="tspan884"
         style="font-style:normal;font-variant:normal;font-weight:normal;font-stretch:normal;font-size:8.6116581px;font-family:sans-serif;-inkscape-font-specification:'sans-serif, Normal';font-variant-ligatures:normal;font-variant-caps:normal;font-variant-numeric:normal;font-feature-settings:normal;text-align:center;writing-mode:lr-tb;text-anchor:middle;stroke-width:0.2152929"
         x="159.48534"
         y="190.45549">Multiple </tspan><tspan
         sodipodi:role="line"
         id="tspan886"
         style="font-style:normal;font-variant:normal;font-weight:normal;font-stretch:normal;font-size:8.6116581px;font-family:sans-serif;-inkscape-font-specification:'sans-serif, Normal';font-variant-ligatures:normal;font-variant-caps:normal;font-variant-numeric:normal;font-feature-settings:normal;text-align:center;writing-mode:lr-tb;text-anchor:middle;stroke-width:0.2152929"
         x="158.29114"
         y="201.22006">Point Clouds</tspan></text>
    <flowRoot
       xml:space="preserve"
       id="flowRoot12506"
       style="fill:black;fill-opacity:1;stroke:none;font-family:sans-serif;font-style:normal;font-weight:normal;font-size:40px;line-height:1.25;letter-spacing:0px;word-spacing:0px"><flowRegion
         id="flowRegion12508"><rect
           id="rect12510"
           width="4.0406103"
           height="50.507626"
           x="83.842659"
           y="282.07272" /></flowRegion><flowPara
         id="flowPara12512" /></flowRoot>  </g>
  <g
     inkscape:groupmode="layer"
     id="layer2"
     inkscape:label="Layer 2"
     style="display:inline" />
</svg>
